<?xml version="1.0" encoding="UTF-8"?>
<!DOCTYPE svg PUBLIC "-//W3C//DTD SVG 1.1//EN" "http://www.w3.org/Graphics/SVG/1.1/DTD/svg11.dtd">
<!-- Creator: CorelDRAW 2019 (64-Bit) -->
<svg xmlns="http://www.w3.org/2000/svg" xml:space="preserve" width="2445px" height="2440px" version="1.1" style="shape-rendering:geometricPrecision; text-rendering:geometricPrecision; image-rendering:optimizeQuality; fill-rule:evenodd; clip-rule:evenodd"
viewBox="0 0 2503.65 2498.25"
 xmlns:xlink="http://www.w3.org/1999/xlink"
 xmlns:xodm="http://www.corel.com/coreldraw/odm/2003">
 <defs>
  <style type="text/css">
   <![CDATA[
    .str0 {stroke:#CCCCCC;stroke-width:2.13;stroke-miterlimit:2.61313}
    .fil1 {fill:#FEFEFE}
    .fil0 {fill:#BDBFC1}
    .fil6 {fill:#008CD2}
    .fil11 {fill:#0B758F}
    .fil17 {fill:#30454C}
    .fil21 {fill:#3CB8C4}
    .fil22 {fill:#59AFCD}
    .fil24 {fill:#606965}
    .fil3 {fill:#6D2F12}
    .fil15 {fill:#704127}
    .fil20 {fill:#87A4AA}
    .fil2 {fill:#9ACBC8}
    .fil7 {fill:#A6CCE3}
    .fil19 {fill:#AA754B}
    .fil8 {fill:#ADBAC3}
    .fil4 {fill:#CFDDE6}
    .fil16 {fill:#CFEAFB}
    .fil23 {fill:#DB7334}
    .fil13 {fill:#E06415}
    .fil10 {fill:#E2F3FC}
    .fil9 {fill:#F6AE12}
    .fil5 {fill:#F6F3D3}
    .fil18 {fill:#FAB46F}
    .fil14 {fill:#FAC831}
    .fil12 {fill:white}
   ]]>
  </style>
    <clipPath id="id0">
     <rect x="1.07" y="1.07" width="2418.88" height="2418.88"/>
    </clipPath>
 </defs>
 <g id="Layer_x0020_1">
  <metadata id="CorelCorpID_0Corel-Layer"/>
  <rect class="fil0" x="84.76" y="79.36" width="2418.89" height="2418.89" rx="168.67" ry="181.42"/>
  <rect class="fil1 str0" x="1.07" y="1.07" width="2418.89" height="2418.89" rx="168.67" ry="181.42"/>
  <g id="_1362796445920">
  </g>
  <g id="_1363001982272">
   <g style="clip-path:url(#id0)">
    <image x="1.07" y="1.07" width="2418.89" height="2418.89" xlink:href="Bathroom _Images\Bathroom _ImgID1.png"/>
   </g>
  </g>
 </g>
 <g id="Objects">
  <metadata id="CorelCorpID_1Corel-Layer"/>
  <path class="fil2" d="M1347.38 362.96c-21.37,3.19 -41.73,2.96 -62.76,-0.29l-0.12 9.15 32.92 0.18 4.83 12.82c15.52,1.73 26.25,18.26 30.99,32.33 2.51,7.44 3.99,17.86 4.42,27.05 0.8,17.35 3.02,28.71 -4.48,27.24 -1.77,1.25 -0.17,3.14 -5.63,1.35l10.17 -0.1 -0.05 46.45 -86.93 1.36 -0.33 17.76 86.99 0.24c1.38,90.1 3.87,80.61 -114.43,77.17 -20.94,-0.75 -76.01,2.76 -91.99,-1.11 1.66,4.3 2.89,2.7 9.24,2.86 4.12,0.11 9.1,-0.18 13.37,-0.19l782.44 0.01 0.2 32.71c3.41,-5.7 1.45,-28.84 0.65,-33.42 -23.48,-5.43 -71.62,2.24 -98.51,-1.58l0.1 -23.21c30.47,0.4 45.62,-1.68 61.76,-19.04 28.28,-30.41 25.1,-99.23 1.24,-130.82 -14.93,-19.75 -34,-18.56 -62.94,-16.11l-0.11 -26.53c-16.14,5.97 -38.53,8.58 -58.26,10.12 -21.02,1.65 -47.41,-2.62 -67.05,-0.01l-10.19 0.39c11.56,4.12 55,2.58 69.35,1.44l0.07 203.37 -86.42 0.04c-6.5,0.41 -9.68,1.79 -16.53,1.69 -11.48,-0.17 -19.77,-3.49 -32.46,-0.95l-120.78 0.23c-2.49,-8.82 -1.28,-16.1 -0.85,-26.06 22.17,-8.02 22.65,-24.12 25.65,-50.93 2.59,-23.08 5.26,-46.52 7.83,-69.58 5.09,-45.61 12.46,-94.4 15.89,-139.62 -4.39,3.05 -15.13,20.81 -18.94,25.93 -20.75,27.84 -37.77,46.32 -52.6,81.47 -23.95,56.81 -18.1,101.42 -10.18,155.49 -18.09,-1.14 -18.77,-6.32 -24.48,-19.83 -4.24,-10.01 -7.48,-19.84 -10.26,-31.11 -5.45,-22.11 -9.04,-51.16 -5.83,-75.68l-3.1 -6.48c-0.18,-0.57 -0.95,-5.48 -1.03,-6.3l-17.91 -179.56c-1.5,-15.84 -7.93,-34.47 8.26,-40.3 6.78,-2.44 40.46,-2.39 50.67,-2.82 12.14,-0.52 24.03,-1.45 30.27,10.35 5.34,10.1 3.15,53.85 2,63.63 20.14,-27.28 32.6,-33.62 31.89,-81.85l30.07 0.01c1.68,2.03 2.07,-1.8 2.14,6.97l2.97 -17.29c0.51,-5.51 0.81,-9.18 0.7,-14.9l-176.78 -0.79c-1.33,8.66 20.07,179.9 22.82,204.42l17.16 152.71c0.83,8.81 1.74,15.39 6.25,22.08 5.75,8.54 8.17,8.03 15.83,14.23 1.31,8.79 1.56,18.53 -0.67,25.83l-96.16 -0.14c8.35,-1.07 5.19,-52.23 5.19,-65.37 0,-24.79 0,-49.59 0,-74.39 0,-21.25 3.1,-48.16 -5.34,-66.77 -7.66,-16.88 -22.58,-28.49 -41.21,-33.5l0.98 -12.45z"/>
  <path class="fil3" d="M1085.86 616.54l-75.26 0.36 -0.93 32.45 946.56 0.6 -0.2 -32.71 -782.44 -0.01c-4.27,0.01 -9.25,0.3 -13.37,0.19 -6.35,-0.16 -7.58,1.44 -9.24,-2.86l-0.28 -14.5c-7.1,0.37 -11.87,3.23 -21.55,3.54l0.62 11.89 -43.91 1.05z"/>
  <path class="fil4" d="M1656.93 615.33c12.69,-2.54 20.98,0.78 32.46,0.95 6.85,0.1 10.03,-1.28 16.53,-1.69l86.42 -0.04 -0.07 -203.37c-14.35,1.14 -57.79,2.68 -69.35,-1.44l-19.59 -1.13c-2.75,-6.88 -2.46,-14.57 -2.33,-22.19 -6,0.32 -16.73,1.67 -22.91,2.81 -24.08,4.41 -21.9,3.77 -21.33,18.63 2.25,59.59 -0.73,144.74 0.17,207.47z"/>
  <path class="fil5" d="M1242.97 615.67c118.3,3.44 115.81,12.93 114.43,-77.17l-86.99 -0.24 0.33 -17.76 86.93 -1.36 0.05 -46.45 -10.17 0.1c1.77,3.92 -4.67,2.2 6.47,5.63l-7.91 0.89c2.44,3.31 2.99,0.49 1.61,4.06 -1.97,5.1 0.76,-0.64 -3.42,2.8l4.93 2.61c-2.01,1.11 -1.32,1.97 -7.77,0.21 2.79,4.21 2.24,2.67 4.07,7.03l-7.27 -2.86 3.77 8.15 -9.45 -1.37c-2.94,4.08 -3.23,-5.83 -1.7,7.3 -2.77,-2.68 -2.25,-2.61 -5.91,-5.01l0.18 9.17 -4.86 -7.71 -2.53 7.12 -1.99 -6.49c-0.66,0.65 -0.74,0.58 -2.16,2.57 -0.18,0.25 -0.91,1.76 -1.84,2.46l-2.04 -6.09 -2.56 5.8 -2.59 -5.6c-0.06,-0.48 -0.22,-0.66 -0.51,-1.04l-3.05 5.1 -0.43 -7.68c-4.16,2.85 -2.18,2.08 -6.65,4.32l2.3 -7.44c-4.34,2.77 -2.63,2.15 -7.29,3.69l3.07 -7 -6.94 1.95 3.83 -6.38 -7.86 1.44 5.34 -6.03 -8.45 0.23 6.06 -3.98 -0.3 -11.55 -5.97 -3.5 6.79 -1.95 -6.36 -3.55c5.42,-1.62 4.22,0.36 8.11,-2.53 -4.52,-2.3 -2.86,-1.99 -6.28,-4.53l8.97 2.34c-2.62,-4.27 -1.44,-1.12 -3.46,-6.76l7.27 2.37 -3.38 -7.19 6.96 3.76 -1.89 -7.47 6.22 4.46 -0.96 -8.41 4.24 6.25c1.08,-1.82 0.53,0 1.34,-3.39 0.09,-0.36 0.11,-3.07 0.11,-3.62l4.13 4c4.29,0.25 -1.39,2.06 1.77,-1.55l1.15 -2.36c5.08,8.9 1.87,3.15 4.62,2.49 5.57,-1.35 -3.96,-3.56 2.57,0.33 5.44,3.24 -2.07,-0.08 1.79,2l3.6 -7.24 -0.17 9.01c0.46,-0.35 1.02,-0.76 1.37,-1.04l3.61 -2.94c0.2,-0.63 0.68,-0.61 1.15,-0.9l-1.12 6.49c2.97,-0.89 2.34,-1.18 6.43,-3.16l-1.93 6.64c4,-2.3 2.01,-1.58 6.89,-3l-2.89 5.84c4.26,-0.25 1.69,-1.82 4.11,0.5 4.24,4.09 -0.76,-0.15 0.89,2.63 0.06,0.1 0.3,0.49 0.37,0.59 2.19,2.9 10.12,-4.32 0.73,5.88l7.38 0.36 -5.43 4.56 6.2 0.79 -5.83 4.94 6.38 1.21c7.5,1.47 5.28,-9.89 4.48,-27.24 -0.43,-9.19 -1.91,-19.61 -4.42,-27.05 -4.74,-14.07 -15.47,-30.6 -30.99,-32.33l-4.83 -12.82 -32.92 -0.18c-6.95,8.74 -25.86,7.17 -40.12,34.15 -9.8,18.53 -6.77,45.36 -6.77,68.06 0,24.25 0,48.49 0,72.74 0,18.56 -4.13,58.5 5.36,68.9z"/>
  <path class="fil5" d="M1064.8 564.82l1.33 -6.15c7.75,3.39 3.79,21.23 23.15,19.97 10.48,-1.36 2.31,1.89 6.61,-6.54 9.29,-0.01 20.75,1.1 28.98,-1.09 25.99,-6.94 27.38,-19.7 31.34,-52.95l-76.09 -1.89c-2.49,-5.85 -1.58,-8.5 -1.52,-15.65l80.43 0.74c3.18,-28.1 13.22,-71.62 2.18,-97.39 -14.65,-34.18 -56.99,-22.05 -83.12,-22.74 25.79,-9.25 79.47,-2.75 96.79,-3.76 15.72,-0.91 3.15,4.3 13.61,1.98 3.04,-0.68 2.42,2.57 2.73,-4l-0.88 -3.2c-0.02,-0.24 -0.29,-0.35 -0.21,-0.68l14.74 0.51c-8.77,-7.77 -70.86,-8.69 -87.51,-8.44 -33.81,0.51 -53.78,5.65 -84.65,11.51 -1.11,19.32 11,71.13 14.95,94.03l14.84 91.05c2.28,6.18 0.77,2.31 2.3,4.69z"/>
  <path class="fil6" d="M1531.54 304.16c-5.66,8.15 -12.27,14.14 -18.19,21.93 -14.19,18.69 -35.7,54.26 -39.23,76.87 -3.35,21.43 11.2,137.01 6.97,145.12 -15.98,-15.44 -14.12,-67.67 -17.26,-95.29l-1.45 12.85c-3.21,24.52 0.38,53.57 5.83,75.68 2.78,11.27 6.02,21.1 10.26,31.11 5.71,13.51 6.39,18.69 24.48,19.83 -7.92,-54.07 -13.77,-98.68 10.18,-155.49 14.83,-35.15 31.85,-53.63 52.6,-81.47 3.81,-5.12 14.55,-22.88 18.94,-25.93l10.97 -100.08c-0.07,-8.77 -0.46,-4.94 -2.14,-6.97l-30.07 -0.01c0.71,48.23 -11.75,54.57 -31.89,81.85z"/>
  <path class="fil7" d="M1462.38 465.64l1.45 -12.85c3.14,27.62 1.28,79.85 17.26,95.29 4.23,-8.11 -10.32,-123.69 -6.97,-145.12 3.53,-22.61 25.04,-58.18 39.23,-76.87 5.92,-7.79 12.53,-13.78 18.19,-21.93 1.15,-9.78 3.34,-53.53 -2,-63.63 -6.24,-11.8 -18.13,-10.87 -30.27,-10.35 -10.21,0.43 -43.89,0.38 -50.67,2.82 -16.19,5.83 -9.76,24.46 -8.26,40.3l17.91 179.56c0.08,0.82 0.85,5.73 1.03,6.3l3.1 6.48z"/>
  <path class="fil8" d="M1064.8 564.82c0.24,14.99 10.65,29.71 20.27,34.52l0.79 17.2 43.91 -1.05 -0.62 -11.89c9.68,-0.31 14.45,-3.17 21.55,-3.54 0.38,-0.14 0.92,-0.83 1.08,-0.52 0.15,0.31 0.85,-0.41 1.06,-0.53 17.64,-9.99 19.2,-27.2 22.09,-46.3l26.08 -155.65c1.91,-11.03 6.07,-12.56 6.3,-19.95 0.24,-7.59 0.85,-3.8 -2.44,-5.13l-14.74 -0.51c-0.08,0.33 0.19,0.44 0.21,0.68l0.88 3.2c-0.31,6.57 0.31,3.32 -2.73,4 -10.46,2.32 2.11,-2.89 -13.61,-1.98 -17.32,1.01 -71,-5.49 -96.79,3.76 26.13,0.69 68.47,-11.44 83.12,22.74 11.04,25.77 1,69.29 -2.18,97.39l-80.43 -0.74c-0.06,7.15 -0.97,9.8 1.52,15.65l76.09 1.89c-3.96,33.25 -5.35,46.01 -31.34,52.95 -8.23,2.19 -19.69,1.08 -28.98,1.09 -4.3,8.43 3.87,5.18 -6.61,6.54 -19.36,1.26 -15.4,-16.58 -23.15,-19.97l-1.33 6.15z"/>
  <path class="fil9" d="M1701 386.42c-0.13,7.62 -0.42,15.31 2.33,22.19l19.59 1.13 10.19 -0.39 -2.38 -22.3 -13.45 -118.06c-0.21,-21.32 12.69,16.99 3.52,-84.29 -3.92,-43.33 -44.11,-18.34 -44.32,-17.99 -1.94,11.63 2.14,42.2 3.11,55.76 2.64,36.65 -1.06,46.03 14.79,46.13l6.62 117.82z"/>
  <path class="fil10" d="M1813.85 285.56l1.64 -3.21c2.14,-6.63 1.19,-5.02 1.19,-13.23 7.7,3.14 20.95,0.29 30,-0.21l4.4 -28.01c0.12,-0.3 2.13,-3.58 2.62,-5.42l0.52 -4.5c-0.01,-0.3 -0.02,-0.83 -0.05,-1.12l-0.37 -2c-3.01,-11.59 4.41,-5.65 -4.89,-11.17l6.22 -1.47c-3.34,-11.09 -4.57,-0.49 -1.77,-9.36l1.21 -5.01c0.29,-0.74 1.18,-2.17 1.65,-2.9l-5.85 -4.18c10.1,-4.1 2.59,-4.99 2.51,-5.2 -1.7,-4.26 -0.6,-1.32 2.12,-7.89 -4.82,-0.38 -6.35,-1.43 -8.84,0.46 5.4,-3.94 4.42,-0.88 6.68,-7.63 0.17,-0.52 0.8,-2.84 1.33,-4.44 1.39,-4.17 2.13,2.01 1.06,-4.65 -10.55,-0.47 -24.92,0.86 -33.79,-1.81 -5.61,5.19 -13.05,2.47 -24.71,3.9 -7.62,16.41 -7.15,40.1 -8.56,60.49 -2.91,42.15 -3,28.16 26.25,42.05l-0.57 16.51z"/>
  <path class="fil11" d="M1730.73 387.05l2.38 22.3c19.64,-2.61 46.03,1.66 67.05,0.01 19.73,-1.54 42.12,-4.15 58.26,-10.12 -7.3,-9.07 -36.44,-10.21 -50.35,-10.81l5.78 -102.87 0.57 -16.51c-29.25,-13.89 -29.16,0.1 -26.25,-42.05 1.41,-20.39 0.94,-44.08 8.56,-60.49 11.66,-1.43 19.1,1.29 24.71,-3.9 -29.39,-0.9 -37.44,-20.54 -39.95,71.71 -0.5,18.29 -0.66,20.65 10.32,29.76l-13.25 122.72 -47.83 0.25z"/>
  <path class="fil12" d="M1858.43 558.36c41.23,8.25 56.64,-19.92 56.57,-56.22 -0.08,-35.53 -16.28,-64.44 -56.26,-55.52l-0.31 111.74z"/>
  <path class="fil13" d="M1284.62 362.67c21.03,3.25 41.39,3.48 62.76,0.29 6.11,-7.15 4.54,-5.47 4.5,-17.84 -0.09,-22.61 6.65,-39.08 -34.46,-38.85 -13.13,0.07 -31.94,1.57 -36.14,12.81 -1.81,4.84 -0.74,16.94 -0.72,22.7 0.07,12.75 -1.59,14.89 4.06,20.89z"/>
  <path class="fil14" d="M1347.55 472.79c5.46,1.79 3.86,-0.1 5.63,-1.35l-6.38 -1.21 5.83 -4.94 -6.2 -0.79 5.43 -4.56 -7.38 -0.36c9.39,-10.2 1.46,-2.98 -0.73,-5.88 -0.07,-0.1 -0.31,-0.49 -0.37,-0.59 -1.65,-2.78 3.35,1.46 -0.89,-2.63 -2.42,-2.32 0.15,-0.75 -4.11,-0.5l2.89 -5.84c-4.88,1.42 -2.89,0.7 -6.89,3l1.93 -6.64c-4.09,1.98 -3.46,2.27 -6.43,3.16l1.12 -6.49c-0.47,0.29 -0.95,0.27 -1.15,0.9l-3.61 2.94c-0.35,0.28 -0.91,0.69 -1.37,1.04l0.17 -9.01 -3.6 7.24c-3.86,-2.08 3.65,1.24 -1.79,-2 -6.53,-3.89 3,-1.68 -2.57,-0.33 -2.75,0.66 0.46,6.41 -4.62,-2.49l-1.15 2.36c-3.16,3.61 2.52,1.8 -1.77,1.55l-4.13 -4c0,0.55 -0.02,3.26 -0.11,3.62 -0.81,3.39 -0.26,1.57 -1.34,3.39l-4.24 -6.25 0.96 8.41 -6.22 -4.46 1.89 7.47 -6.96 -3.76 3.38 7.19 -7.27 -2.37c2.02,5.64 0.84,2.49 3.46,6.76l-8.97 -2.34c3.42,2.54 1.76,2.23 6.28,4.53 -3.89,2.89 -2.69,0.91 -8.11,2.53l6.36 3.55 -6.79 1.95 5.97 3.5 0.3 11.55 -6.06 3.98 8.45 -0.23 -5.34 6.03 7.86 -1.44 -3.83 6.38 6.94 -1.95 -3.07 7c4.66,-1.54 2.95,-0.92 7.29,-3.69l-2.3 7.44c4.47,-2.24 2.49,-1.47 6.65,-4.32l0.43 7.68 3.05 -5.1c0.29,0.38 0.45,0.56 0.51,1.04l2.59 5.6 2.56 -5.8 2.04 6.09c0.93,-0.7 1.66,-2.21 1.84,-2.46 1.42,-1.99 1.5,-1.92 2.16,-2.57l1.99 6.49 2.53 -7.12 4.86 7.71 -0.18 -9.17c3.66,2.4 3.14,2.33 5.91,5.01 -1.53,-13.13 -1.24,-3.22 1.7,-7.3l9.45 1.37 -3.77 -8.15 7.27 2.86c-1.83,-4.36 -1.28,-2.82 -4.07,-7.03 6.45,1.76 5.76,0.9 7.77,-0.21l-4.93 -2.61c4.18,-3.44 1.45,2.3 3.42,-2.8 1.38,-3.57 0.83,-0.75 -1.61,-4.06l7.91 -0.89c-11.14,-3.43 -4.7,-1.71 -6.47,-5.63z"/>
  <path class="fil14" d="M1105.5 434.07c-15.23,-10.88 6.6,8.78 -10.58,-1.09 5.13,11.61 1.45,2.37 -2.46,8.54l-1.28 2.52c-0.03,0.1 -0.1,0.52 -0.13,0.61l-2.55 11.34c0,0.07 -0.06,0.46 -0.06,0.53 -0.01,0.08 -0.17,0.47 -0.19,0.55l0.09 4.96c-0.01,0.07 -0.15,0.47 -0.16,0.55l-0.06 1.11c1.07,8.02 7.87,2.72 -0.3,11.51l6.98 -1.05c-1.99,2.07 -1.1,-1.37 -1.27,2.27 -0.12,2.67 0.56,1.02 2.36,2.72 3.39,3.19 -1.97,-0.84 1.8,1.99l3.44 2.08c0.41,0.36 1.2,3.28 3.7,0.19l-0.25 7.16 4.4 -5.09c1.72,3.55 3.17,2.69 6.96,3.23 0.1,0.02 0.54,0.03 0.64,0.04 4.48,0.59 -3.33,-2.52 2.02,0.17 2.35,1.18 1.56,1.66 3.17,5.04l1.4 -7.43 3.26 5.42c-0.15,0.03 0.9,-3.35 1.39,-3.94 3.92,-4.74 -1.66,0.22 2.9,-1.02 4.3,-1.16 4.73,-0.74 6.05,-3.35l0.43 -1.02c0.04,-0.06 0.32,-0.34 0.37,-0.39l2.96 -4.42 6.03 2.47 -4.66 -6.38 7.88 1.45c-1.92,-1.55 -3.28,-3.06 -5.11,-4.79 4.01,-1.82 2.96,-2.58 3.65,-5.68l0.33 -1.85c0.47,-3.42 -5.25,-1.74 5.14,-4.25l-6.48 -2.34 5.53 -3.4 -6.72 -1.51c9.48,-6.34 2.2,-2.59 0.49,-4.97l-0.79 -2.1c-2.86,-4.82 -4.2,1.16 -0.26,-6.99 -11.16,3.36 -3.33,2.19 -6.03,-0.94l-4.34 -4.4c-7.97,-6.37 -7.18,5.06 -7.82,-6.6 -5.56,5.78 -3.87,1.63 -8.85,2.92l-5.5 0.45c-0.12,0.02 -0.59,0.02 -0.7,0.05l-3.2 2.65c-2.78,-2.69 -2.98,-3 -4.52,-5.18l0.9 7.66z"/>
  <g id="_1362880356832">
   <path class="fil15" d="M1033.94 1252.96c-8.74,3.33 -13.19,3.27 -22.15,5.59l-0.16 31.29 -394.55 0.01 0.07 -31.68 -19.12 0.23 0.02 31.43 -394.53 0.01 -0.03 -1.85 0.08 -29.87c-8.3,-0.37 -15.58,-2.89 -22.27,-4.91l-0.01 527.25c0,16.61 -2.08,62.32 0.78,75.56l851.23 0.02 0.64 -603.08z"/>
   <path class="fil16" d="M191.73 1163.9c1.29,2.01 0.73,-0.03 0.99,3.65 0.08,1.17 -0.2,4.67 -0.17,6.37 0.07,4.64 0.85,8.29 2.57,11.64 9.81,19.06 48.99,17.8 68.53,17.8l685.39 0c35.17,0 80.15,2.09 72.01,-40.46 -13.52,-16.95 -6.5,-9.56 -24.78,-22.89l-40.9 -29.3c-3.61,-2.79 -7.22,-8.71 -17.76,-17.56 -13.48,-11.32 -46.88,-38.42 -64.1,-42.7 -13.34,-3.31 -9.79,-8.27 -33.54,-13.84 -10.82,-2.54 -23.17,-8.37 -39.89,-8.79 -8.15,-0.2 -16.74,0.06 -24.94,0.06l-353.65 -0.02c-3.95,-0.02 -7.97,-0.16 -11.89,0.23 -10.63,1.06 -5.69,2.71 -14.43,2.71 0,-37.04 -7.94,-83.72 27.64,-102.19 13.51,-7.01 37.43,-12.03 50.34,-1.85 19.34,15.25 17.58,43.11 20.32,45.57 2.77,2.49 16.95,2.52 21.42,0.67 7.99,-3.32 2.81,-0.12 5.96,-5.05 1.59,-6.02 -10.46,-71.28 -58.34,-75.15 -37.44,-3.02 -71.15,12.11 -87.33,45.41 -11.28,23.22 -9.03,47.66 -9.23,77.97 -12.36,-1.25 -24.28,-8.63 -31.09,5.79 -2.45,5.18 -3.04,10.73 -2.05,16.62 1.37,8.07 3.24,8.41 9.15,12.74 -12.81,1.15 -48.92,27.26 -59.5,37.62 -4.13,4.04 -5.45,3.97 -8.51,7.57 -14.75,17.32 -25.87,22.06 -46.65,36.86 -6.54,4.66 -12.41,9 -18.67,13.46 -12.72,9.07 -7.42,8.6 -14.18,14.86l-1.77 1.47c-0.21,0.17 -0.65,0.47 -0.95,0.73z"/>
   <path class="fil17" d="M191.73 1163.9c-9.55,12.57 -33.02,18.7 -34.99,39.23 -2.46,25.65 8.93,41.56 24.56,50.08 6.69,2.02 13.97,4.54 22.27,4.91l394.46 0.28 19.12 -0.23 394.64 0.38c8.96,-2.32 13.41,-2.26 22.15,-5.59 15.96,-8.06 27.55,-25.75 24.48,-51.24 -1.29,-10.78 -9.37,-16.51 -15.94,-21.76 -7.85,-6.27 -14.28,-11.47 -21.43,-17.06 8.14,42.55 -36.84,40.46 -72.01,40.46l-685.39 0c-19.54,0 -58.72,1.26 -68.53,-17.8 -1.72,-3.35 -2.5,-7 -2.57,-11.64 -0.03,-1.7 0.25,-5.2 0.17,-6.37 -0.26,-3.68 0.3,-1.64 -0.99,-3.65z"/>
   <polygon class="fil18" points="617.01,1412.64 1011.69,1412.62 1011.53,1380.27 617.73,1380.34 "/>
   <polygon class="fil18" points="617.15,1740.98 1011.4,1740.97 1011.65,1708.66 617.24,1708.68 "/>
   <polygon class="fil18" points="617.22,1663.34 1011.2,1663.32 1011.69,1631.04 617.17,1631.04 "/>
   <polygon class="fil18" points="617.17,1495.4 1011.32,1495.4 1011.66,1463.11 617.25,1463.13 "/>
   <polygon class="fil18" points="203.42,1412.63 598.09,1412.62 597.97,1380.4 204.11,1380.33 "/>
   <polygon class="fil18" points="203.55,1740.98 597.79,1740.97 598.09,1708.77 203.66,1708.68 "/>
   <polygon class="fil18" points="203.58,1495.41 597.72,1495.4 598.09,1463.22 203.65,1463.13 "/>
   <polygon class="fil18" points="203.61,1663.32 597.59,1663.31 598.13,1631.14 203.6,1631.04 "/>
   <polygon class="fil18" points="617.08,1823.55 1011.67,1823.54 1011.65,1817 1011.66,1791.48 617.05,1791.49 "/>
   <polygon class="fil18" points="203.51,1798 203.51,1823.54 592.46,1823.54 598.09,1823.46 598.09,1791.59 592.46,1791.47 209.58,1791.49 203.49,1791.5 "/>
   <polygon class="fil18" points="617.08,1332.42 1010.42,1332.39 1011.67,1332.42 1011.65,1300.36 617.07,1300.35 "/>
   <polygon class="fil18" points="203.5,1332.4 598.08,1332.38 598.09,1300.46 203.49,1300.35 "/>
   <polygon class="fil18" points="598.03,1258.4 203.57,1258.12 203.49,1287.99 203.52,1289.84 598.05,1289.83 "/>
   <polygon class="fil18" points="1011.79,1258.55 617.15,1258.17 617.08,1289.85 1011.63,1289.84 "/>
   <polygon class="fil18" points="617.04,1781 1010.42,1780.97 1011.65,1781.01 1011.58,1751.22 617.43,1751.25 "/>
   <polygon class="fil18" points="616.99,1620.56 1011.67,1620.55 1011.51,1590.79 617.81,1590.83 "/>
   <polygon class="fil18" points="617.25,1452.86 1011.16,1452.84 1011.71,1423.11 617.07,1423.11 "/>
   <polygon class="fil18" points="203.46,1780.97 598.08,1780.97 598.01,1751.32 203.84,1751.25 "/>
   <path class="fil18" d="M617.05 1580.56l394.55 -0.01 -0.03 -32.33 -322.5 0.04c-13.07,30.12 -46.31,32.95 -61.62,0.04l-9.89 -0.05 -0.51 32.31z"/>
   <polygon class="fil18" points="203.65,1452.86 597.54,1452.84 598.15,1423.22 203.5,1423.11 "/>
   <polygon class="fil18" points="203.4,1620.54 598.1,1620.55 597.94,1590.89 204.21,1590.83 "/>
   <path class="fil18" d="M203.46 1580.55l394.56 0 -0.02 -32.2 -14.43 -0.11c-14.72,33.27 -46.15,26.28 -57.81,8.15 -3.29,-5.11 -1.4,-6.24 -6.37,-8.13l-315.43 0 -0.5 32.29z"/>
   <polygon class="fil18" points="203.5,1350.83 203.5,1363.98 203.54,1370.07 598.04,1370.06 598.09,1343.01 592.46,1342.87 203.49,1342.9 "/>
   <polygon class="fil18" points="617.07,1344.98 617.1,1370.08 1011.62,1370.06 1011.67,1361.06 1011.65,1355.21 1011.66,1342.89 617.06,1342.9 "/>
   <path class="fil18" d="M690.19 1537.98l321.29 0 0 -32.32 -336.33 0.04c5.44,10.55 12.69,5.93 15.04,32.28z"/>
   <path class="fil18" d="M203.53 1537.98l317.28 0c0.59,-7.48 1.4,-13.59 4.53,-19.19 3.76,-6.73 7.56,-7.59 10.6,-13.02l-332.16 -0.07 -0.25 32.28z"/>
   <polygon class="fil18" points="617.22,1698.43 1011.25,1698.42 1011.66,1673.59 617.27,1673.62 "/>
   <polygon class="fil18" points="203.61,1698.43 597.64,1698.41 598.1,1673.71 203.69,1673.62 "/>
   <path class="fil19" d="M648.73 1515.97c-17.05,5.6 -18,24.52 -13.6,34.54 4.19,9.56 19.12,17.18 32.5,11.19 27.82,-12.46 12.85,-56.16 -18.9,-45.73z"/>
   <path class="fil19" d="M542.9 1515.97c-18.6,6.09 -22.81,34.75 -2.59,44.9 5.92,2.98 13.81,3.78 19.9,1.52 29.52,-10.94 15.76,-57.26 -17.31,-46.42z"/>
  </g>
  <g id="_1362880369600">
   <path class="fil16" d="M1970.61 1376.31c3.98,6.34 2.45,35.8 1.48,46.15 41.31,-4.45 77.56,-8.44 121.7,-8.25 30.74,0.13 96.51,2.44 121.79,9.6 -2.23,-9.41 -2.59,-41.64 0.84,-47.89 -2.16,-2.45 -0.09,0.61 -1.56,-2.8 -0.67,-1.56 -0.16,-1.43 -1.15,-3.49l-9.92 -0.18c4.09,-4.25 9.5,-7.53 13.6,-10.81 11.09,-8.87 27.65,-25.58 36.65,-36.76 125.54,-155.99 31.28,-417.67 -160.25,-417.99 -184.62,-0.3 -289.84,250.4 -161.16,417.46 25.13,32.61 44.3,40.46 50.6,47.79 -17.78,0.86 -6.17,-0.42 -12.62,7.17z"/>
   <path class="fil16" d="M1949.08 1650.44c0.32,0.19 0.77,0.17 0.92,0.63 0.8,2.4 11.94,3.78 12.82,3.94 5.17,0.95 9.02,2.76 14.49,3.91 35.65,7.47 69.52,10.61 106.81,8.24l0.19 324.46 -45.41 -0.88c2.42,1.98 6.57,2.02 9.65,2.12l83.75 -0.99c49.2,-5.88 42.82,-9.38 77.07,-19.07 -5.32,-51.99 -9.09,-104.55 -14.08,-156.5l-8.72 -119.98c-0.6,-10.52 0.66,-32.95 -4.31,-39.72 28.45,-16.14 50.25,-80.43 31.64,-98.68 -13.04,-12.79 -28.03,-6.21 -37.79,-11.11 -13.81,0.19 -31.68,1.53 -45.71,2.58 -32.38,2.45 -110.36,-1.24 -140.84,-5.04 -31.9,-3.98 -104.08,-16.07 -133.21,-36.68 -10.83,-7.67 -9.9,-8.87 -14.17,-11.98 4.67,35.11 35.99,89.4 59.7,118.88l16.14 16.28c7.72,6.35 21.63,17.27 31.06,19.59z"/>
   <path class="fil10" d="M1923.78 1844.87c2.87,1.72 -5.24,53.28 -6.03,59.41 -9.03,70.06 101.91,89.34 121.15,86.46l45.41 0.88 -0.19 -324.46c-37.29,2.37 -71.16,-0.77 -106.81,-8.24 -5.47,-1.15 -9.32,-2.96 -14.49,-3.91 -0.88,-0.16 -12.02,-1.54 -12.82,-3.94 -0.15,-0.46 -0.6,-0.44 -0.92,-0.63 -1.29,30.12 -8.02,67.79 -11.76,98.26 -2.22,18.06 -7.79,86.47 -13.54,96.17z"/>
   <path class="fil7" d="M2176.11 1546.81c9.76,4.9 24.75,-1.68 37.79,11.11 18.61,18.25 -3.19,82.54 -31.64,98.68 4.97,6.77 3.71,29.2 4.31,39.72l8.72 119.98c4.99,51.95 8.76,104.51 14.08,156.5 -34.25,9.69 -27.87,13.19 -77.07,19.07l-83.75 0.99c-3.08,-0.1 -7.23,-0.14 -9.65,-2.12 -19.24,2.88 -130.18,-16.4 -121.15,-86.46 0.79,-6.13 8.9,-57.69 6.03,-59.41 -24.99,9.99 -55,31.15 -63.13,55.6 -11.91,35.85 23.24,62.39 42.64,73.8 96.24,56.59 302.54,56.62 392.16,-8.54 47.12,-34.26 40.48,-76.72 -8.93,-107.91 -11.77,-7.42 -38.54,-18.46 -40.19,-20.49 -3.69,-6.32 -21.61,-162.45 -23.53,-183.28 0.37,-0.22 0.95,-0.87 1.17,-0.53l22.01 -10.93c18.99,-12.52 37.33,-32.59 50.37,-52.65 9.2,-14.14 40.93,-74.32 41.05,-94.69 -13.45,17.27 -41.94,28.81 -70.11,35.94 -21.52,5.45 -69.15,16.13 -91.18,15.62z"/>
   <path class="fil16" d="M2103.66 1421.26l-28.22 0c-38.39,0 -180.58,13.25 -165.56,55.33 20.25,56.72 332.37,59.78 359.56,1.58 7.48,-16.01 -8.58,-26.13 -21.61,-32.06 -37.89,-17.24 -102.41,-24.85 -144.17,-24.85z"/>
   <path class="fil8" d="M1972.09 1422.46c0.97,-10.35 2.5,-39.81 -1.48,-46.15 -69.93,-46.22 -110.11,-142.08 -108.24,-228.77 0.36,-17.07 2.25,-35.59 4.57,-52.06 2.32,-16.48 8.72,-30.38 11.43,-45.15l-78.78 0.05 -0.09 45.73 15.1 0.56c0.97,25.99 36.11,238.45 42.27,276.64 4.51,27.96 3.92,54.24 33.72,62.04 12.26,3.21 16.21,0.62 27.45,-2.3 17.28,-4.49 35.77,-7.79 54.05,-10.59z"/>
   <path class="fil8" d="M2216.42 1375.92c-3.43,6.25 -3.07,38.48 -0.84,47.89 35.07,3.73 77.21,26.84 99.87,-1.03 9.83,-12.1 10.65,-32.22 13.52,-49.9l42.77 -275.96 14.3 -0.36 0.14 -46.23 -77.72 0.02c3.32,14.46 9.39,28.31 11.55,44.68 7.3,55.42 8.82,93.33 -9.35,149.41 -9.52,29.37 -22.86,53.49 -37.85,75.06 -8.83,12.7 -15.92,20.44 -25.95,30.48 -7.58,7.6 -20.53,20.95 -30.44,25.94z"/>
  </g>
  <g id="_1362880373920">
   <path class="fil20" d="M606.26 313.77c-207.93,19.23 -308.76,299.88 -189.76,490.73 27.83,44.64 64.32,78.72 111.43,102.46 33.45,16.86 76.54,25.82 119.27,21.79 194.6,-18.36 289.85,-264.79 213.01,-443.88 -18.36,-42.8 -36.48,-68.16 -63.73,-96.95 -48.06,-50.77 -116.3,-80.99 -190.22,-74.15z"/>
   <path class="fil17" d="M604.43 353.61c-127.68,15.15 -217.48,145.89 -207.69,293.53 9.05,136.63 113.57,265.17 251.85,248.76 167.4,-19.87 253.32,-229.23 183.1,-394.31 -10.64,-25.02 -19.49,-38.51 -34.25,-59.1 -11.99,-16.72 -31.28,-35.23 -47.16,-47.36 -39.83,-30.46 -92.3,-47.88 -145.85,-41.52z"/>
   <path class="fil10" d="M615.43 362.04c-197.13,12.2 -280.27,294.51 -145.13,450.09 18.12,20.86 37.96,38.75 67.58,54.12 95.27,49.44 195.89,10.1 253.99,-65.98 58.49,-76.6 74,-190.73 35.7,-287.48 -34.3,-86.64 -113.83,-156.84 -212.14,-150.75z"/>
   <path class="fil12" d="M430.86 725.87c2.68,-1.52 3.05,-3.6 4.73,-5.86 11.08,-0.12 7.12,-1.06 13.54,-6.18 6.9,-5.5 6.27,-2.09 6.11,-11.48 5.77,-0.44 2.55,0.68 3.57,-2.39l5.47 2.29c0.27,0.12 0.61,0.27 0.85,0.37l2.13 -3.5c2.95,-5.12 9.45,-7.89 13.57,-11.45 3.5,-3.02 4.89,-5.06 8.65,-7.94l11.3 -9.9c8.76,-8.24 6.69,-2.97 10.54,-12.82l16.59 -18c2.5,-1.4 -0.67,-0.06 3.06,-1.58 -2.86,-6.15 3.31,4.54 -1.4,-1.58 -1.44,-1.88 -1.02,-0.1 -2.14,-3.14 5.3,2.04 6.97,2.29 14.49,2.16 2.11,-0.9 3.21,-3.8 4.89,-5.26 3.75,-3.24 10.03,-9.86 14.52,-11.67 2.74,-1.1 1.42,-0.82 4.86,-0.82 -1.63,-2.34 -1.49,3.75 -0.34,-1.91 0.69,-3.4 4.46,-5.03 6.72,-8.13l2.64 -3.45c0.04,-0.03 2.64,-1.21 2.89,-1.33l0.12 -8.58c6.78,-0.12 11.34,-8.26 16.81,-11.62 3.66,-2.25 3.08,-1.5 8.33,-1.5 3.74,-1.45 -0.92,1.12 1.48,-1.59 0.18,-0.21 0.8,-1.03 1.04,-1.27l12.14 -9.31c4.13,-3.29 3.72,-5.47 9.01,-9.87l6.9 -11.8c1.92,-3.9 2.07,-1.64 2.19,-7.39 0.23,0.27 0.46,0.41 0.55,0.9 0.44,2.14 1.78,3.22 3.31,3.73 2.2,-3.82 0.97,-1.49 2.6,-2.91l6.79 -6.23c3.61,-3.07 5.16,-6.24 8.64,-8.18 2.26,-1.26 2.15,0.79 3.06,-1.51 1.47,-3.79 0.99,3.66 -0.1,-1.05 -0.05,-0.24 -1.05,-2.02 -1.18,-2.43 11.56,-0.14 1.64,-4.14 11.74,-7.36 0.19,-0.06 3.56,-0.97 3.64,-1 3.22,-1.6 0.17,0.25 2.45,-2.12l9.89 -10.19c9.01,-11.06 12.27,-9.67 19.82,-9.14 0.11,-0.15 1.11,-1.24 1.49,-1.62 0.82,-0.82 1.62,-1.54 2.36,-2.24 1.69,-1.6 2.52,-2.61 4.18,-4.12l23.4 -20.21c0.94,-1.38 0.86,-0.59 1.25,-3.23 0.09,-0.62 0,-3.78 0.02,-4.66l16.33 -14.17c-19.06,-15.09 -30.66,-27.35 -54.9,-38.92 -21.76,-10.38 -47.96,-17.52 -76.84,-17.65 -100.77,-0.46 -177.79,81.99 -201.19,176.71 -6.81,27.54 -9.64,55.09 -8.38,85.44 0.97,23.61 8.06,61.61 15.81,78.66z"/>
  </g>
  <g id="_1362880376576">
   <path class="fil21" d="M1089.31 868.7c-1.85,5.68 -1.72,22.51 -0.2,28.26 2.58,11.52 0.87,158.34 0.87,183.15 0,61.18 0,122.37 0,183.56l420.76 0.62 0.41 -332.64c-0.07,-23.98 4.47,-61.86 -8.43,-74.58 -4.48,-4.42 -13.08,-6.44 -17.96,-11.3l-364.54 -1.06c-20.82,-0.27 -26.04,5.8 -30.91,23.99z"/>
   <path class="fil22" d="M1089.54 1387.08l0.47 -27.96c1.06,5.96 9.58,15.46 14.25,18.72 7.98,5.56 19.62,4.29 31.09,4.38 56.99,0.45 320.66,5.58 347.93,-4.24 7.59,-2.73 14.84,-8.14 19.36,-14.21 4.98,-6.7 9.35,-17.19 8.13,-27.99l-0.03 -71.49 -420.76 -0.62c0,-61.19 0,-122.38 0,-183.56 0,-24.81 1.71,-171.63 -0.87,-183.15l-36.1 0.91 -1.34 0.08 36.3 -0.02 0.09 429.6c0.06,8.53 -2.27,55.88 1.48,59.55z"/>
   <path class="fil11" d="M1484.76 845.77c4.88,4.86 13.48,6.88 17.96,11.3 12.9,12.72 8.36,50.6 8.43,74.58l-0.41 332.64 0.03 71.49c1.22,10.8 -3.15,21.29 -8.13,27.99 -4.52,6.07 -11.77,11.48 -19.36,14.21 -27.27,9.82 -290.94,4.69 -347.93,4.24 -11.47,-0.09 -23.11,1.18 -31.09,-4.38 -4.67,-3.26 -13.19,-12.76 -14.25,-18.72l-0.47 27.96c1.3,8.53 6.1,6.3 8.83,13.3 0.02,10.91 0.44,17.24 9.16,20.91 7.06,2.97 205.1,1.1 217.51,1.1l186.95 0c24.34,0 39.36,1.72 39.13,-24.75 -1.07,-124.06 -0.03,-250.72 -0.03,-375.27 0,-40.11 -1.86,-84.85 0.16,-124.39l-10.22 -0.48 -0.44 -28.58c-5.66,-25.46 -29.09,-22.01 -55.83,-23.15z"/>
   <path class="fil23" d="M1577.62 868.84c-4.92,10.25 0.81,20.65 3.86,29.06 5.04,3.58 16.46,18.43 36.92,11.01 12.39,-4.49 22.44,-16.77 20.96,-33.35 -2.83,-31.56 -46.99,-40.7 -61.74,-6.72z"/>
   <path class="fil23" d="M1051.67 897.95l1.34 -0.08c3,-8.66 7.51,-18.07 3.9,-28.86 -5.65,-12.49 -13.86,-23.14 -32.94,-21.67 -14.54,1.11 -26.13,12.4 -28.51,25.53 -6.03,33.32 35.54,51.58 56.21,25.08z"/>
   <path class="fil24" d="M1551.25 897.98l30.23 -0.08c-3.05,-8.41 -8.78,-18.81 -3.86,-29.06l-37.03 0.08 0.44 28.58 10.22 0.48z"/>
   <path class="fil24" d="M1053.01 897.87l36.1 -0.91c-1.52,-5.75 -1.65,-22.58 0.2,-28.26l-32.4 0.31c3.61,10.79 -0.9,20.2 -3.9,28.86z"/>
  </g>
  <g id="_1362880378880">
   <path class="fil10" d="M388.17 1709.33c-7.99,0.68 -2.19,0.33 -6.81,-3.48 -15.44,-12.74 -40.88,-11.68 -57.51,-1.46 -24.23,14.88 -23.04,33.72 -23.11,56.8 -44.7,-6.01 -62.24,-3.32 -98.33,-27.63 -26.11,-17.58 -25.5,-65.47 -3.5,-88.1 -10.85,4.05 -26.48,21.19 -32.94,31.45 -10.76,17.07 -9.74,45.41 -2,65.55l4.56 11.27c13.24,29.28 44.79,34.76 54.08,40.44 5.27,3.22 3.07,1.48 7.14,11.51 1.6,3.93 3.07,6.17 5,10.91l54.3 122.38c2.25,4.94 13.56,28.26 13.28,32.9l48.62 59.11c20.75,25.41 38.95,51.6 64.25,71.18 52.93,40.95 81.28,42.07 146.76,42.07l756.59 0c75.75,-0.02 106.01,-5.71 131.91,-84.05 18.35,-55.49 33.42,-111.94 47.8,-168.72 3.62,-14.31 7.09,-29.18 10.78,-43.39 2.85,-10.94 6.95,-34.58 11.14,-42.98 24.14,-4.58 101.25,-15.81 107.05,-34.46 -2.02,-8.4 -11.56,-10.87 -21.31,-13.45 24.71,-5.5 45.87,-8.55 65.02,-21.17 22.47,-14.82 32.08,-33.83 25.36,-62.53 -4.72,-2.99 -10.71,-28.39 -46.2,-42.59l-22.92 -7.2c-0.41,-0.13 -0.83,-0.26 -1.23,-0.39l-8.37 -2.46c-3.98,-0.75 -11.77,-0.61 -14.53,-3 31.98,11.53 50.76,16.31 62.3,43.52 6.12,14.42 6.77,31.95 1.92,46.91 -18.53,57.14 -158.75,58.77 -206.95,53.65 2.56,-2.18 3.2,-3.73 5.7,-6.24 2.42,-2.45 3.16,-2.55 5.5,-5.55 3.4,-4.37 5.42,-9.78 6.44,-15.59 10.04,-56.85 -30.46,-69.88 -57.38,-59.61 -10.53,4.02 -4.86,2.54 -4.87,3.33 -7.81,-11.53 -7.18,-14.63 -21.65,-16.29 -7.59,-0.88 -11.06,-1.04 -16.39,0.51 -9.23,2.69 -8.37,6.51 -9.75,9.39 -4.67,-4.39 -3.19,-3.51 -6.88,-7.78 -9.61,-11.06 -0.61,-8.36 -12.76,-15.75 -11.28,-6.87 -6.97,-21.56 -20.89,-8.52 -19.29,-2.94 -37.21,1.35 -50.25,14.58 -6.15,-11.82 -29.25,-21.06 -47.83,-21.35 -32.55,-0.51 -43.61,18.84 -47.73,21.32 -4.34,-6.93 -8.64,-12.66 -16.49,-17.11 -23.84,-13.49 -62.62,-1.87 -64.75,34.62 -6.28,0.04 -9.73,-0.39 -15.93,1.1 -6.74,1.62 -12.37,7.41 -15.81,11.89 -5.97,7.76 -5.11,16.12 -2.47,23.95 37.73,1.04 38.25,4.88 58.1,30.45l7.12 -4.48c15.15,-10.21 33.22,-4.38 41.88,13.61 11.83,-4 19.58,-9.23 35.36,-4.59 14.88,4.37 18.51,13.03 23.27,17.27 -5.11,0 -14.97,0.57 -19.52,-0.13 -1.12,-0.17 -30.4,-15.41 -46.7,-1.46 -2.42,-8.92 -9.98,-14.41 -19.37,-16.56 -17.76,-4.07 -28.5,8.62 -27.75,8.83l0.92 -1.83c-2.83,-2.3 -3.59,-5.23 -6.69,-8.99 -23.02,-27.89 -62.34,-21.14 -77.11,-2.94 -13.47,-22.93 -66.1,-32.34 -89.81,-0.74 -6.69,-12.88 -22.85,-24.67 -46.15,-20.07 -18.94,3.73 -28.59,17.13 -31.89,37.59 -9.14,-3.1 -20.26,1.16 -23.89,6.3 51.5,0 103,0 154.49,0 25.25,0 51.32,-0.63 76.46,0.16 25.54,0.79 51.6,2.95 77.06,3.01 -7.26,-3.79 -43.86,-0.67 -51.57,-0.33 -17.43,0.75 -35.16,1.91 -52.57,1.93 -35.04,0.06 -70.08,0 -105.12,0 -55.88,0 -129.68,1.36 -184.77,-0.15 -11.45,-0.31 -19.62,1.19 -25.48,-4.62 16.95,0 82.56,-2.1 93.05,0.87 11.71,-16.51 8.96,-18.62 35.93,-19.92 0.85,-18.96 13.48,-32.53 27.63,-37.55 12.25,-4.35 27.64,-2.52 37.94,5.44 2.1,1.62 2.49,2.36 4.16,3.74 3.74,3.1 1.07,1.49 5.49,3.7 -2.46,-12.22 -12.5,-21.7 -20.93,-26.5 -13.84,-7.88 -23.86,-6.59 -39.92,-4.66 -6.04,-12.88 -5.95,-18.51 -18.3,-24.73 -12.57,-6.33 -24.01,-1.62 -34.26,2.45 -2.49,-4.36 -2.85,-8.91 -5.1,-13.95 -2.07,-4.63 -4.88,-8.37 -7.29,-11.87 -10.72,-15.55 -32.45,-24.69 -52.56,-23.12 -14.29,1.12 -18.28,5.68 -29.03,9.48 -3.54,-4.4 -4.89,-7.74 -7.9,-11.55 -8.53,-10.83 -20.73,-19.68 -34.85,-24.07 -29.46,-9.17 -43.25,0.41 -63.97,9.89 -7.66,-13.52 -4.96,-15.11 -16.58,-24.97 -7.33,-6.22 -17.34,-11.09 -29.61,-11.37 -23.43,-0.52 -43.49,16.24 -47.42,35.17 -13.69,-3.91 -22.63,-6.16 -34.28,2.14 -14.88,10.61 -9.38,13.61 -15.46,27.93 -15.46,-3.74 -22.65,-7.64 -40.57,-2.69 -23.87,6.59 -41.48,26.58 -43.88,51.71 -2.67,27.87 11.8,29.27 0.03,39.54 -5.48,-4.18 -4.4,-1.89 -6.55,-6.86z"/>
   <path class="fil16" d="M457.82 2197.49c1.61,-3.46 -1.39,-4.1 10.34,-2.94 14.28,1.42 87.54,0.14 89.11,0.46 6.77,1.39 3.62,-0.91 7.07,4.07 7.82,-3.71 550.37,-1.59 649.09,-1.59 21.4,0 76.57,2.65 93.95,-0.82 11.39,-2.67 42.63,-1.32 57.06,-2.28 11.35,-0.76 44.32,-6.87 52.76,-4.53 14.86,-0.44 46.27,-10.36 58.15,-15.04 58.43,-23.02 65.46,-64.44 89.4,-133.23 22.29,-64.06 55.13,-166.44 74.82,-239.18 3.15,-11.64 8.72,-11.11 28.44,-26.16 38.6,-29.46 62.79,-79.38 28.3,-123.58 -6.06,-7.76 -11.63,-14.62 -19.02,-19.64 -60.94,-41.43 -194.49,-32.82 -264.27,-32.82 -9.43,-11.22 -4.72,-11.59 -17.72,-19.53 -19.49,-11.91 -38.88,-12.82 -58.59,-0.67 -12.27,7.57 -9.84,7.4 -18.53,20.2l-593.74 2.23c0.96,5.75 1.26,7.88 9.99,13.61 12.15,-11.62 57.65,-18.6 83.02,13.74 7.39,9.41 7.11,15.44 12.56,27.16 24.07,-14.98 49.01,-3.12 53.66,22.91 16.42,-2.68 29.93,-3.7 43.27,4.63 8.77,5.49 20.06,17.82 22.21,31.99l-8.03 7.94 -4.52 -7.06c-4.42,-2.21 -1.75,-0.6 -5.49,-3.7 -1.67,-1.38 -2.06,-2.12 -4.16,-3.74 -10.3,-7.96 -25.69,-9.79 -37.94,-5.44 -14.15,5.02 -26.78,18.59 -27.63,37.55 -26.97,1.3 -24.22,3.41 -35.93,19.92 -10.49,-2.97 -76.1,-0.87 -93.05,-0.87 5.86,5.81 14.03,4.31 25.48,4.62 55.09,1.51 128.89,0.15 184.77,0.15 35.04,0 70.08,0.06 105.12,0 17.41,-0.02 35.14,-1.18 52.57,-1.93 7.71,-0.34 44.31,-3.46 51.57,0.33 -25.46,-0.06 -51.52,-2.22 -77.06,-3.01 -25.14,-0.79 -51.21,-0.16 -76.46,-0.16 -51.49,0 -102.99,0 -154.49,0 3.63,-5.14 14.75,-9.4 23.89,-6.3 3.3,-20.46 12.95,-33.86 31.89,-37.59 23.3,-4.6 39.46,7.19 46.15,20.07 23.71,-31.6 76.34,-22.19 89.81,0.74 14.77,-18.2 54.09,-24.95 77.11,2.94 3.1,3.76 3.86,6.69 6.69,8.99l-0.92 1.83c-0.75,-0.21 9.99,-12.9 27.75,-8.83 9.39,2.15 16.95,7.64 19.37,16.56 16.3,-13.95 45.58,1.29 46.7,1.46 4.55,0.7 14.41,0.13 19.52,0.13 -4.76,-4.24 -8.39,-12.9 -23.27,-17.27 -15.78,-4.64 -23.53,0.59 -35.36,4.59 -8.66,-17.99 -26.73,-23.82 -41.88,-13.61l-7.12 4.48c-19.85,-25.57 -20.37,-29.41 -58.1,-30.45 -2.64,-7.83 -3.5,-16.19 2.47,-23.95 3.44,-4.48 9.07,-10.27 15.81,-11.89 6.2,-1.49 9.65,-1.06 15.93,-1.1 2.13,-36.49 40.91,-48.11 64.75,-34.62 7.85,4.45 12.15,10.18 16.49,17.11 4.12,-2.48 15.18,-21.83 47.73,-21.32 18.58,0.29 41.68,9.53 47.83,21.35 13.04,-13.23 30.96,-17.52 50.25,-14.58 13.92,-13.04 9.61,1.65 20.89,8.52 12.15,7.39 3.15,4.69 12.76,15.75 3.69,4.27 2.21,3.39 6.88,7.78 1.38,-2.88 0.52,-6.7 9.75,-9.39 5.33,-1.55 8.8,-1.39 16.39,-0.51 14.47,1.66 13.84,4.76 21.65,16.29 0.01,-0.79 -5.66,0.69 4.87,-3.33 26.92,-10.27 67.42,2.76 57.38,59.61 -1.02,5.81 -3.04,11.22 -6.44,15.59 -2.34,3 -3.08,3.1 -5.5,5.55 -2.5,2.51 -3.14,4.06 -5.7,6.24 48.2,5.12 188.42,3.49 206.95,-53.65 4.85,-14.96 4.2,-32.49 -1.92,-46.91 -11.54,-27.21 -30.32,-31.99 -62.3,-43.52 2.76,2.39 10.55,2.25 14.53,3l8.37 2.46c0.4,0.13 0.82,0.26 1.23,0.39l22.92 7.2c35.49,14.2 41.48,39.6 46.2,42.59 14.36,8.43 9.27,41.08 2.94,55.15 -8.58,19.05 -31.93,40.64 -49.02,52.22 -21.95,14.86 -10.32,2.84 -25.86,47.97 -1.02,2.96 -0.9,2.08 -1.92,5.83l-35.51 115.87c-0.6,1.93 -0.84,3.78 -1.58,6.38l-40.63 118.87c-1.42,3.63 -2.98,8.19 -4.3,11.61 -7.21,18.69 -16.27,43.8 -28.71,56.4 -31.54,31.95 -108.84,45.68 -156.61,45.69 -15.56,0 -41.64,4.27 -64.78,0.73 -16.53,-2.54 -649.41,-0.68 -667.83,-0.68 -20.8,0 -153.02,1.67 -166.36,-1.55 -3.82,-0.93 -9.72,-2.07 -13,-2.99 -4.98,-1.4 -8.87,-3.02 -12.87,-4.99 -7.51,-3.69 -14.86,-6.64 -21.93,-11.82 -39.47,-28.89 -45.4,-54.39 -61.42,-89.12 -0.47,-1.03 -1.7,-3.28 -2.62,-5.3l-41.04 -92.74c-2.29,-6.39 -2.19,-0.81 -0.92,-9.14 0.28,-4.64 -11.03,-27.96 -13.28,-32.9l-54.3 -122.38c-1.93,-4.74 -3.4,-6.98 -5,-10.91 -4.07,-10.03 -1.87,-8.29 -7.14,-11.51 -9.29,-5.68 -40.84,-11.16 -54.08,-40.44l-4.56 -11.27c-7.74,-20.14 -8.76,-48.48 2,-65.55 6.46,-10.26 22.09,-27.4 32.94,-31.45 -22,22.63 -22.61,70.52 3.5,88.1 36.09,24.31 53.63,21.62 98.33,27.63 0.07,-23.08 -1.12,-41.92 23.11,-56.8 16.63,-10.22 42.07,-11.28 57.51,1.46 4.62,3.81 -1.18,4.16 6.81,3.48 9.63,-13.81 -5.02,-11.52 -1.42,-40.68 3.12,-25.36 21.64,-46.63 45.77,-52.82 19.1,-4.9 26.29,-0.49 42.36,3.34 1.12,-8.17 2.52,-9.98 3.83,-16.58l-112.97 -0.45c15.89,-11 19.94,-56.49 4.45,-80.79 -12.92,-20.26 -35.44,-39.18 -72.05,-35.38 -16.88,1.75 -26.53,8.45 -37.3,15.37 -8.78,5.64 -17.31,17.93 -22.54,31.81 -10.47,27.75 -1.81,66.29 20.07,79.23 -4.53,2.39 -13,4.24 -17.22,5.36 -5.16,1.37 -12.31,2.95 -17.9,4.81 -12.1,4.03 -22.45,8.65 -31.99,14.33 -82.2,48.88 -35.43,160.49 25.07,165.6 24,50.18 49.24,114.88 72.75,164.03 4.1,8.58 7.87,18.34 12.2,27.59 4.83,10.31 7.97,18.63 12.22,27.61l36.25 83.22c32.34,79.09 92.73,84.03 108.07,92.56z"/>
   <path class="fil4" d="M302.33 1971.87c-1.27,8.33 -1.37,2.75 0.92,9.14l41.04 92.74c0.92,2.02 2.15,4.27 2.62,5.3 16.02,34.73 21.95,60.23 61.42,89.12 7.07,5.18 14.42,8.13 21.93,11.82 4,1.97 7.89,3.59 12.87,4.99 3.28,0.92 9.18,2.06 13,2.99 13.34,3.22 145.56,1.55 166.36,1.55 18.42,0 651.3,-1.86 667.83,0.68 23.14,3.54 49.22,-0.73 64.78,-0.73 47.77,-0.01 125.07,-13.74 156.61,-45.69 12.44,-12.6 21.5,-37.71 28.71,-56.4 1.32,-3.42 2.88,-7.98 4.3,-11.61l40.63 -118.87c0.74,-2.6 0.98,-4.45 1.58,-6.38l35.51 -115.87c1.02,-3.75 0.9,-2.87 1.92,-5.83 15.54,-45.13 3.91,-33.11 25.86,-47.97 17.09,-11.58 40.44,-33.17 49.02,-52.22 6.33,-14.07 11.42,-46.72 -2.94,-55.15 6.72,28.7 -2.89,47.71 -25.36,62.53 -19.15,12.62 -40.31,15.67 -65.02,21.17 9.75,2.58 19.29,5.05 21.31,13.45 -5.8,18.65 -82.91,29.88 -107.05,34.46 -4.19,8.4 -8.29,32.04 -11.14,42.98 -3.69,14.21 -7.16,29.08 -10.78,43.39 -14.38,56.78 -29.45,113.23 -47.8,168.72 -25.9,78.34 -56.16,84.03 -131.91,84.05l-756.59 0c-65.48,0 -93.83,-1.12 -146.76,-42.07 -25.3,-19.58 -43.5,-45.77 -64.25,-71.18l-48.62 -59.11z"/>
   <path class="fil10" d="M259.32 1574.72c-0.4,0.32 -1.12,0.05 -1.37,0.7 -0.24,0.64 -1.01,0.51 -1.33,0.7l-4.32 2.91c-6.42,7.58 0.16,26.4 15.78,17.26l8.76 -4.04c5.86,7.5 23.57,11.5 38,9.73 34.09,-4.18 64.31,-50.89 31.42,-88.72 -16.24,-18.67 -46.06,-24.59 -69.37,-8.31 -25.95,18.12 -27.64,43.27 -17.57,69.77z"/>
   <path class="fil19" d="M1307.38 2196.67c7.21,18.7 14.62,33.57 20.59,53.62 7.11,23.87 8.58,39.27 10.86,65.5l47.31 0.47c12.69,-70 -0.79,-51.35 31.06,-126.4 -8.44,-2.34 -41.41,3.77 -52.76,4.53 -14.43,0.96 -45.67,-0.39 -57.06,2.28z"/>
   <path class="fil19" d="M564.34 2199.08c-3.45,-4.98 -0.3,-2.68 -7.07,-4.07 -1.57,-0.32 -74.83,0.96 -89.11,-0.46 -11.73,-1.16 -8.73,-0.52 -10.34,2.94 4.64,5.12 18.34,43.28 21.16,52.82 7.15,24.12 8.4,39.17 10.89,65.47l47.3 0.49c3.86,-23.24 10.39,-97.75 27.17,-117.19z"/>
   <path class="fil12" d="M562.36 1626.93c-58.89,13.76 -37.61,97.18 17.2,86.46 21.52,-4.22 40.42,-24.59 34.85,-52.47 -4.13,-20.69 -26.18,-40.03 -52.05,-33.99z"/>
   <path class="fil16" d="M483.05 1355.11c-45.15,11.54 -33.44,87 20.18,75 48.81,-10.92 31.74,-88.28 -20.18,-75z"/>
   <path class="fil16" d="M166.75 1436.76c-34.18,11.29 -17.32,63.89 19.16,51.97 31.6,-10.33 17.53,-64.09 -19.16,-51.97z"/>
   <path class="fil16" d="M1511.96 1504.73c-35.42,7.25 -24.52,62.16 11.84,54.23 13.91,-3.04 24.35,-16.02 20.89,-33.29 -0.68,-3.38 -1.75,-6.48 -3.69,-9.24 -0.89,-1.27 -5.66,-5.98 -7.32,-7.19 -5.45,-3.93 -14.04,-6.08 -21.72,-4.51z"/>
  </g>
 </g>
</svg>
