<?xml version="1.0" encoding="UTF-8"?>
<!DOCTYPE svg PUBLIC "-//W3C//DTD SVG 1.1//EN" "http://www.w3.org/Graphics/SVG/1.1/DTD/svg11.dtd">
<!-- Creator: CorelDRAW 2019 (64-Bit) -->
<svg xmlns="http://www.w3.org/2000/svg" xml:space="preserve" width="2445px" height="2440px" version="1.1" style="shape-rendering:geometricPrecision; text-rendering:geometricPrecision; image-rendering:optimizeQuality; fill-rule:evenodd; clip-rule:evenodd"
viewBox="0 0 2503.65 2498.25"
 xmlns:xlink="http://www.w3.org/1999/xlink"
 xmlns:xodm="http://www.corel.com/coreldraw/odm/2003">
 <defs>
  <style type="text/css">
   <![CDATA[
    .str0 {stroke:#CCCCCC;stroke-width:2.13;stroke-miterlimit:2.61313}
    .fil1 {fill:#FEFEFE}
    .fil0 {fill:#BDBFC1}
    .fil13 {fill:#FEFEFE;fill-rule:nonzero}
    .fil6 {fill:#F9B4A6;fill-rule:nonzero}
    .fil4 {fill:#F8B3AB;fill-rule:nonzero}
    .fil7 {fill:#F4887C;fill-rule:nonzero}
    .fil5 {fill:#F4887B;fill-rule:nonzero}
    .fil8 {fill:#F26E61;fill-rule:nonzero}
    .fil9 {fill:#F16A61;fill-rule:nonzero}
    .fil24 {fill:#F9C953;fill-rule:nonzero}
    .fil32 {fill:#E66355;fill-rule:nonzero}
    .fil25 {fill:#ECB449;fill-rule:nonzero}
    .fil31 {fill:#BF4543;fill-rule:nonzero}
    .fil28 {fill:#CDAB74;fill-rule:nonzero}
    .fil26 {fill:#BD8F40;fill-rule:nonzero}
    .fil14 {fill:#BFC0C1;fill-rule:nonzero}
    .fil21 {fill:#ACA094;fill-rule:nonzero}
    .fil3 {fill:#9B6A66;fill-rule:nonzero}
    .fil12 {fill:#7A5552;fill-rule:nonzero}
    .fil10 {fill:#684947;fill-rule:nonzero}
    .fil2 {fill:#624643;fill-rule:nonzero}
    .fil11 {fill:#543C3B;fill-rule:nonzero}
    .fil20 {fill:#8D8177;fill-rule:nonzero}
    .fil27 {fill:#624C30;fill-rule:nonzero}
    .fil22 {fill:#7C746D;fill-rule:nonzero}
    .fil15 {fill:#606263;fill-rule:nonzero}
    .fil23 {fill:#4D4C4E;fill-rule:nonzero}
    .fil29 {fill:#36ACE2;fill-rule:nonzero}
    .fil18 {fill:#4CA7BE;fill-rule:nonzero}
    .fil34 {fill:#568590;fill-rule:nonzero}
    .fil30 {fill:#307ABD;fill-rule:nonzero}
    .fil17 {fill:#2C637E;fill-rule:nonzero}
    .fil16 {fill:#2E5A6C;fill-rule:nonzero}
    .fil19 {fill:#2A4D5A;fill-rule:nonzero}
    .fil33 {fill:#2A5570;fill-rule:nonzero}
   ]]>
  </style>
 </defs>
 <g id="Layer_x0020_1">
  <metadata id="CorelCorpID_0Corel-Layer"/>
  <rect class="fil0" x="84.76" y="79.36" width="2418.89" height="2418.89" rx="168.67" ry="181.42"/>
  <rect class="fil1 str0" x="1.07" y="1.07" width="2418.89" height="2418.89" rx="168.67" ry="181.42"/>
  <g id="_1362809421120">
   <polygon class="fil2" points="367.75,1786.24 493.85,1786.24 493.85,1735.79 367.75,1735.79 "/>
   <polygon class="fil2" points="1261.75,1786.24 1387.8,1786.24 1387.8,1735.79 1261.75,1735.79 "/>
   <polygon class="fil2" points="457.54,1118.21 1298.06,1118.21 1298.06,1057.22 457.54,1057.22 "/>
   <polygon class="fil2" points="457.54,1217.05 1298.06,1217.05 1298.06,1156.11 457.54,1156.11 "/>
   <polygon class="fil3" points="420.09,1301.76 476.61,1301.76 476.61,1057.21 420.09,1057.21 "/>
   <polygon class="fil3" points="1278.99,1301.76 1335.52,1301.76 1335.52,1057.21 1278.99,1057.21 "/>
   <polygon class="fil4" points="1335.36,1256.73 420.22,1256.73 329.17,1460.72 1426.43,1460.72 "/>
   <polygon class="fil3" points="289.48,1757.17 1466.13,1757.17 1466.13,1563.87 289.48,1563.87 "/>
   <polygon class="fil2" points="289.48,1603.56 1466.13,1603.56 1466.13,1563.87 289.48,1563.87 "/>
   <path class="fil5" d="M1430.25 1565.48l0 -82.56c0,-32.65 -26.51,-59.16 -59.12,-59.16l-986.64 0c-32.72,0 -59.14,26.51 -59.14,59.16l0 82.56 1104.9 0z"/>
   <path class="fil5" d="M837.86 1301.28c2.54,12.38 -5.73,23.24 -19.58,24.19 -95.59,5.91 -191.17,5.91 -286.69,0 -13.86,-0.95 -22.19,-11.81 -19.64,-24.19 8.68,-43.59 8.68,-87.18 0,-130.7 -2.55,-12.45 5.78,-23.31 19.64,-24.19 95.52,-5.99 191.1,-5.99 286.69,0 13.85,0.88 22.12,11.74 19.58,24.19 -8.7,43.52 -8.7,87.11 0,130.7z"/>
   <path class="fil6" d="M517.8 1256.73l-0.06 0c0.27,-4.47 0.46,-8.94 0.55,-13.41 0.03,0.08 0.05,0.08 0.08,0.08 -0.1,4.47 -0.29,8.86 -0.57,13.33zm300.48 -110.34c-0.31,0 -0.62,0 -0.93,0 0.31,0 0.62,0 0.93,0zm-9.63 -0.56c-1.05,-0.08 -2.1,-0.16 -3.16,-0.16 0,-0.08 0,-0.08 0,-0.08 1.06,0.08 2.11,0.16 3.16,0.24z"/>
   <path class="fil7" d="M515.51 1279.89c1.03,-7.67 1.76,-15.41 2.23,-23.16l0.06 0c-0.49,7.75 -1.26,15.49 -2.29,23.16z"/>
   <path class="fil8" d="M674.91 1329.87c-47.79,0 -95.56,-1.44 -143.32,-4.4 -12.18,-0.79 -20.09,-9.34 -20.09,-19.8 0,-1.43 0.14,-2.95 0.45,-4.39 1.44,-7.1 2.62,-14.21 3.56,-21.39 1.03,-7.67 1.8,-15.41 2.29,-23.16 0.28,-4.47 0.47,-8.86 0.57,-13.33 30.46,33.61 74.23,54.93 122.29,54.93 85.84,0 158.16,-68.19 164.83,-152.66 1.06,0 2.11,0.08 3.16,0.16 2.92,0.16 5.8,0.32 8.7,0.56 0.31,0 0.62,0 0.93,0l0 0c12.18,0.8 20.04,9.26 20.04,19.8 0,1.44 -0.15,2.96 -0.46,4.39 -3.09,15.49 -5.08,30.98 -5.98,46.47 -0.36,6.31 -0.55,12.54 -0.55,18.84 0,21.8 2.18,43.6 6.53,65.39 0.31,1.44 0.46,2.96 0.46,4.39 0,10.46 -7.86,19.01 -20.04,19.8 -47.79,2.96 -95.59,4.4 -143.37,4.4z"/>
   <path class="fil5" d="M1243.61 1301.28c2.52,12.38 -5.75,23.24 -19.59,24.19 -95.58,5.91 -191.17,5.91 -286.69,0 -13.84,-0.95 -22.18,-11.81 -19.65,-24.19 8.7,-43.59 8.7,-87.18 0,-130.7 -2.53,-12.45 5.81,-23.31 19.65,-24.19 95.52,-5.99 191.11,-5.99 286.69,0 13.84,0.88 22.11,11.74 19.59,24.19 -8.7,43.52 -8.7,87.11 0,130.7z"/>
   <path class="fil6" d="M923.55 1256.73l-0.09 0c0.28,-4.47 0.47,-8.94 0.58,-13.41 0.04,0.08 0.06,0.08 0.08,0.08 -0.09,4.47 -0.29,8.86 -0.57,13.33z"/>
   <path class="fil7" d="M919.45 1291.78c1.97,-11.73 3.28,-23.39 4.01,-35.05l0.09 0c-0.74,11.66 -2.12,23.32 -4.1,35.05z"/>
   <path class="fil6" d="M1224.02 1146.39c-0.36,0 -0.73,0 -1.09,-0.08 0.36,0.08 0.73,0.08 1.09,0.08zm-9.65 -0.56c-1.05,-0.08 -2.1,-0.16 -3.15,-0.16 0.01,-0.08 0.01,-0.08 0.01,-0.08 1.06,0.08 2.09,0.16 3.14,0.24z"/>
   <path class="fil8" d="M1080.66 1329.87c-47.79,0 -95.57,-1.44 -143.33,-4.4 -12.17,-0.79 -20.08,-9.34 -20.1,-19.8 0,-1.43 0.15,-2.95 0.45,-4.39 0.65,-3.19 1.23,-6.39 1.77,-9.5 1.98,-11.73 3.36,-23.39 4.1,-35.05 0.28,-4.47 0.48,-8.86 0.57,-13.33 30.45,33.61 74.23,54.93 122.29,54.93 85.83,0 158.17,-68.19 164.81,-152.66 1.05,0 2.1,0.08 3.15,0.16 2.87,0.16 5.72,0.32 8.56,0.48 0.36,0.08 0.73,0.08 1.09,0.08l0 0c12.17,0.8 20.03,9.26 20.04,19.8 0,1.44 -0.15,2.96 -0.45,4.39 -3.09,15.49 -5.09,30.98 -5.98,46.47 -0.36,6.31 -0.55,12.54 -0.55,18.84 0,21.8 2.17,43.6 6.53,65.39 0.3,1.44 0.45,2.96 0.45,4.39 -0.01,10.46 -7.87,19.01 -20.04,19.8 -47.78,2.96 -95.58,4.4 -143.36,4.4z"/>
  </g>
  <g id="_1362809407008">
   <path class="fil5" d="M868.35 1876.47c0,0 2.19,-23.08 -28.52,-29.26 -30.73,-6.24 -32.55,-11 -32.55,-11 0,0 -13.9,72.05 49.36,60.71l11.71 -20.45z"/>
   <path class="fil5" d="M1291.02 1876.47c0,0 -2.19,-23.08 28.54,-29.26 30.73,-6.24 32.53,-11 32.53,-11 0,0 13.89,72.05 -49.35,60.71l-11.72 -20.45z"/>
   <path class="fil9" d="M868.35 2235.36c0,0 2.19,23.01 -28.52,29.24 -30.73,6.21 -32.55,10.95 -32.55,10.95 0,0 -13.9,-72.02 49.36,-60.71l11.71 20.52z"/>
   <path class="fil9" d="M1291.02 2235.36c0,0 -2.19,23.01 28.54,29.24 30.73,6.21 32.53,10.95 32.53,10.95 0,0 13.89,-72.02 -49.35,-60.71l-11.72 20.52z"/>
   <path class="fil5" d="M1311.74 2213.05c6.12,22.18 -12.16,43.56 -40.52,45.82 -133.32,9.57 -250.32,9.57 -383.63,0 -28.39,-2.26 -46.67,-23.64 -40.54,-45.82 29.33,-105.97 29.33,-200.6 0,-306.58 -6.13,-22.17 12.15,-43.57 40.54,-45.83 133.29,-9.57 250.31,-9.57 383.63,0 28.36,2.26 46.64,23.66 40.52,45.83 -29.32,105.98 -29.32,200.61 0,306.58z"/>
   <path class="fil6" d="M847.05 2213.05c3.48,-12.64 6.51,-25.08 9.18,-37.41 0.01,0 0.03,0.03 0.04,0.03 -2.66,12.33 -5.73,24.76 -9.22,37.38z"/>
   <path class="fil6" d="M1271.22 1860.64c-5.26,-0.36 -10.48,-0.72 -15.67,-1.08 5.19,0.36 10.41,0.72 15.67,1.08z"/>
   <path class="fil8" d="M1079.4 2266.05c-62.56,0 -125.15,-2.4 -191.81,-7.18 -9.29,-0.75 -17.49,-3.53 -24.11,-7.73 -10.98,-6.93 -17.61,-17.74 -17.62,-29.48 0,-2.82 0.39,-5.72 1.19,-8.61l0 0c3.49,-12.62 6.56,-25.05 9.22,-37.38 38.99,23.46 84.32,37.07 132.34,37.07 141.95,0 260.37,-118.42 260.37,-260.34 0,-33.17 -6.55,-65.01 -18.24,-94.38 8.21,0.47 16.48,0.99 24.81,1.54 5.19,0.36 10.41,0.72 15.67,1.08l0 0c24.65,1.96 41.68,18.38 41.7,37.21 0,0.09 0,0.15 0,0.22 -0.02,2.78 -0.41,5.58 -1.18,8.4 -14.67,52.99 -21.99,103.14 -21.99,153.28 0,50.15 7.32,100.32 21.99,153.3 0.8,2.89 1.18,5.79 1.18,8.61 0,11.6 -6.48,22.28 -17.21,29.24 -6.68,4.33 -15.03,7.22 -24.49,7.97 -66.67,4.78 -129.23,7.18 -191.82,7.18z"/>
  </g>
  <g id="_1362796305456">
   <path class="fil10" d="M1716.42 2086.52c-8.17,35.87 -25.01,110.42 -34.33,158.12 -1.44,7.37 0.05,11.29 5.13,12.97 5.14,1.56 8.66,-0.76 11.7,-7.64 23.57,-52.39 60.06,-141.35 69.16,-163.45l-51.66 0z"/>
   <path class="fil11" d="M1771.67 2086.52c-8.72,38.83 -20.64,92.56 -27.93,129.99 -1.49,7.37 0.06,11.29 5.14,12.91 5.13,1.67 8.6,-0.7 11.64,-7.58 17.61,-39.05 42.45,-98.43 57.63,-135.32l-46.48 0z"/>
   <path class="fil10" d="M2246.3 2086.52l-51.6 0c9,22.1 45.53,111.06 69.1,163.45 3.03,6.88 6.52,9.2 11.65,7.64 5.13,-1.68 6.62,-5.6 5.19,-12.97 -9.33,-47.7 -26.16,-122.25 -34.34,-158.12z"/>
   <path class="fil11" d="M2191.05 2086.52l-46.42 0c15.19,36.89 39.96,96.27 57.52,135.32 3.09,6.88 6.57,9.25 11.69,7.58 5.14,-1.62 6.63,-5.54 5.19,-12.91 -7.33,-37.43 -19.14,-91.16 -27.98,-129.99z"/>
   <polygon class="fil12" points="1672.84,2143.04 2289.85,2143.04 2289.85,922.74 1672.84,922.74 "/>
   <polygon class="fil3" points="1694.06,2117.22 1968.45,2117.22 1968.45,948.61 1694.06,948.61 "/>
   <polygon class="fil3" points="1994.27,2117.22 2268.65,2117.22 2268.65,948.61 1994.27,948.61 "/>
   <polygon class="fil13" points="2017.68,1590.47 2035.51,1590.47 2035.51,1510.27 2017.68,1510.27 "/>
   <polygon class="fil13" points="1927.22,1590.47 1945.1,1590.47 1945.1,1510.27 1927.22,1510.27 "/>
  </g>
  <g id="_1362880332480">
   <polygon class="fil14" points="189.54,239.38 2155.06,239.38 2155.06,206.29 189.54,206.29 "/>
   <path class="fil15" d="M445.23 263.73c-0.94,0 -1.7,-0.76 -1.7,-1.69l0 -18.22c0,-0.81 0.58,-1.51 1.38,-1.67 0.69,-0.13 16.98,-3.53 16.98,-20.95 0,-13.37 -14.98,-16.54 -20.1,-17.22l0 1.35c0,0.94 -0.77,1.7 -1.7,1.7 -0.94,0 -1.7,-0.76 -1.7,-1.7l0 -3.23c0,-0.94 0.76,-1.7 1.7,-1.7 0.25,0 25.2,1.55 25.2,20.8 0,17.08 -13.88,22.59 -18.36,23.93l0 16.91c0,0.93 -0.76,1.69 -1.7,1.69z"/>
   <polygon class="fil16" points="400.79,270.14 489.67,270.14 445.23,322.69 "/>
   <path class="fil17" d="M674.52 463.67l-62.91 -112.98c-4.7,-9.4 -12.46,-16.91 -22.01,-21.3l-86.39 -39.71 0 0 -50.08 58.04 -7.9 -25.03 -7.9 25.04 -50.08 -58.05 0 0 -86.39 39.71c-9.55,4.39 -17.31,11.9 -22.01,21.3l-62.92 112.98 77.1 42.5 23.71 -43.49 -21.74 253.01c0,0 64.24,21.75 150.23,21.75 85.98,0 150.23,-21.75 150.23,-21.75l-21.75 -253.01 23.72 43.49 77.09 -42.5z"/>
   <path class="fil18" d="M278.85 350.69l-62.92 112.98 77.1 42.5 23.71 -43.49c9.77,-58.67 -15.88,-133.29 -15.88,-133.29 -9.55,4.39 -17.31,11.9 -22.01,21.3z"/>
   <path class="fil18" d="M611.61 350.69l62.91 112.98 -77.09 42.5 -23.72 -43.49c-9.76,-58.67 15.89,-133.29 15.89,-133.29 9.55,4.39 17.31,11.9 22.01,21.3z"/>
   <path class="fil18" d="M435.49 737.34c3.21,0.06 6.45,0.1 9.74,0.1 3.28,0 6.52,-0.04 9.74,-0.1l0 -391.76 -9.74 -22.89 -9.74 22.89 0 391.76z"/>
   <polygon class="fil19" points="454.97,347.72 503.21,289.68 489.67,270.14 445.23,322.69 454.97,347.72 "/>
   <polygon class="fil19" points="435.49,347.72 445.23,322.69 400.79,270.14 387.25,289.68 435.49,347.72 "/>
   <path class="fil15" d="M480.11 281.44l4.55 -5.38 -37.38 -17.28c-0.9,-0.42 -1.94,-0.43 -2.83,-0.01l-38.49 17.49 4.56 5.38 35.32 -16.05 34.27 15.85z"/>
   <path class="fil15" d="M706.14 263.73c-0.94,0 -1.7,-0.76 -1.7,-1.7l0 -18.21c0,-0.81 0.58,-1.51 1.37,-1.67 0.7,-0.13 16.99,-3.53 16.99,-20.95 0,-13.37 -14.98,-16.54 -20.11,-17.22l0 1.35c0,0.94 -0.76,1.7 -1.7,1.7 -0.93,0 -1.69,-0.76 -1.69,-1.7l0 -3.23c0,-0.94 0.76,-1.7 1.69,-1.7 0.26,0 25.21,1.55 25.21,20.8 0,17.08 -13.88,22.59 -18.37,23.93l0 16.9c0,0.94 -0.76,1.7 -1.69,1.7z"/>
   <polygon class="fil20" points="571.61,291.16 840.67,291.16 823.57,333.24 588.7,347.97 "/>
   <path class="fil21" d="M840.67 291.16l-28.57 6.07c-69.86,14.87 -142.06,14.87 -211.92,0l-28.57 -6.07 -58.68 330.59 143.12 18.61 50.09 -154.57 50.09 154.57 143.11 -18.61 -58.67 -330.59z"/>
   <path class="fil22" d="M593.34 325.58l2.74 -29.22 -24.47 -5.2 -16.31 91.86c0,0 31.21,-29.09 38.04,-57.44z"/>
   <path class="fil22" d="M818.93 325.58l-2.73 -29.22 24.47 -5.2 16.3 91.86c0,0 -31.2,-29.09 -38.04,-57.44z"/>
   <path class="fil23" d="M593.34 325.58c74.37,15.82 151.23,15.82 225.59,0l26.83 -5.71 -5.09 -28.71 -28.57 6.07c-69.86,14.87 -142.06,14.87 -211.92,0l-28.57 -6.07 -5.1 28.71 26.83 5.71z"/>
   <polygon class="fil23" points="663.8,616.42 517.46,596.25 517.46,596.25 512.93,621.75 656.05,640.36 664.48,614.35 "/>
   <polygon class="fil23" points="748.47,616.42 894.82,596.25 894.82,596.25 899.34,621.75 756.23,640.36 747.8,614.35 "/>
   <path class="fil23" d="M725.31 441.51c-1.57,0 -2.95,-1.14 -3.2,-2.74 -0.36,-2.33 -8.96,-57.09 -10.57,-75.64 -0.99,-11.36 -4.07,-22.53 -6.23,-29.25 -4.01,7.31 -10.37,21.46 -12.45,40.67 -3.23,29.81 -5.62,41.95 -5.72,42.46 -0.36,1.76 -2.09,2.89 -3.82,2.54 -1.76,-0.35 -2.89,-2.06 -2.54,-3.82 0.02,-0.12 2.44,-12.43 5.63,-41.88 3.3,-30.52 16.56,-48.67 17.12,-49.43 0.71,-0.94 1.84,-1.44 3.04,-1.27 1.16,0.15 2.15,0.93 2.59,2.02 0.29,0.75 7.2,18.5 8.84,37.4 1.6,18.33 10.43,74.62 10.52,75.19 0.28,1.77 -0.93,3.43 -2.71,3.71 -0.16,0.02 -0.33,0.04 -0.5,0.04z"/>
   <path class="fil23" d="M690.99 416.37c0,3.88 -3.15,7.03 -7.03,7.03 -3.89,0 -7.04,-3.15 -7.04,-7.03 0,-3.89 3.15,-7.03 7.04,-7.03 3.88,0 7.03,3.14 7.03,7.03z"/>
   <path class="fil23" d="M732.45 438.37c0,3.88 -3.15,7.03 -7.04,7.03 -3.88,0 -7.03,-3.15 -7.03,-7.03 0,-3.89 3.15,-7.04 7.03,-7.04 3.89,0 7.04,3.15 7.04,7.04z"/>
   <path class="fil15" d="M626.68 302.14l79.89 -36.37 78.97 36.38c3.09,-0.49 6.16,-1.04 9.24,-1.58 -0.19,-1.06 -0.82,-2.02 -1.86,-2.5l-84.92 -39.12c-0.9,-0.41 -1.93,-0.42 -2.83,-0.01l-85.92 39.13c-1.05,0.47 -1.68,1.43 -1.87,2.48 3.1,0.55 6.19,1.1 9.3,1.59z"/>
   <path class="fil15" d="M901.05 299.8c-1.29,0 -2.53,-0.72 -3.14,-1.96 -0.85,-1.74 -0.13,-3.83 1.6,-4.68l63.71 -31.18c0.97,-0.48 2.12,-0.48 3.09,0.01l62.8 31.18c1.73,0.86 2.43,2.96 1.57,4.68 -0.86,1.73 -2.96,2.45 -4.68,1.58l-61.26 -30.42 -62.16 30.43c-0.49,0.24 -1.01,0.36 -1.53,0.36z"/>
   <path class="fil15" d="M964.3 266.87c-0.97,0 -1.75,-0.79 -1.75,-1.75l0 -18.75c0,-0.84 0.6,-1.56 1.41,-1.72 0.72,-0.14 17.5,-3.63 17.5,-21.57 0,-13.75 -15.42,-17.02 -20.7,-17.72l0 1.39c0,0.97 -0.78,1.75 -1.75,1.75 -0.97,0 -1.75,-0.78 -1.75,-1.75l0 -3.32c0,-0.97 0.78,-1.75 1.75,-1.75 0.26,0 25.94,1.59 25.94,21.4 0,17.58 -14.29,23.26 -18.9,24.63l0 17.41c0,0.96 -0.79,1.75 -1.75,1.75z"/>
   <path class="fil24" d="M1135.96 530.95c-6.89,-71.82 -21.49,-135.93 -30.78,-171.74 -4.91,-18.88 -17.45,-34.85 -34.68,-44l-44.98 -23.86c-11.55,22.04 -34.61,37.09 -61.22,37.09 -26.61,0 -49.67,-15.05 -61.22,-37.09l-44.98 23.86c-17.23,9.15 -29.77,25.12 -34.68,44 -9.29,35.81 -23.89,99.92 -30.78,171.74 -10.54,109.92 -21.08,213.81 -21.08,213.81l52.71 0 25.59 -197.25 0 197.25 228.88 0 0 -197.25 25.6 197.25 52.7 0c0,0 -10.54,-103.89 -21.08,-213.81z"/>
   <path class="fil25" d="M832.98 338.04c-4.29,6.42 -7.57,13.54 -9.56,21.17 -9.29,35.81 -23.89,99.92 -30.78,171.74 -10.54,109.92 -21.08,213.81 -21.08,213.81l52.71 0 25.59 -197.25c13.58,-104.6 -16.55,-208.31 -16.88,-209.47z"/>
   <path class="fil25" d="M1095.63 338.04c4.28,6.42 7.56,13.54 9.55,21.17 9.29,35.81 23.89,99.92 30.78,171.74 10.54,109.92 21.08,213.81 21.08,213.81l-52.7 0 -25.6 -197.25c-13.58,-104.6 16.55,-208.31 16.89,-209.47z"/>
   <path class="fil25" d="M1024.91 291.35l-6.03 -25.86c0,0 -16.34,44.96 -54.58,44.96 -38.24,0 -54.58,-44.96 -54.58,-44.96l-6.02 25.86c0,0 -0.07,0.33 -0.16,0.82 11.7,21.58 34.49,36.27 60.76,36.27 26.27,0 49.06,-14.69 60.76,-36.27 -0.09,-0.49 -0.15,-0.82 -0.15,-0.82z"/>
   <polygon class="fil25" points="849.86,744.76 1078.74,744.76 1078.74,713.14 849.86,713.14 "/>
   <path class="fil26" d="M1366.7 288.56l-248.48 0c0,0 -84.62,467.35 -84.62,570.75l124.07 22.74 10.29 -78.91c12.82,-98.29 35.34,-195.06 67.2,-288.88 2.35,-6.91 12.24,-6.91 14.59,0 31.86,93.82 54.38,190.59 67.2,288.88l10.29 78.91 124.07 -22.74c0,-103.4 -84.61,-570.75 -84.61,-570.75z"/>
   <polygon class="fil27" points="1129.11,333.47 1124.53,332.65 1125.61,326.55 1130.19,327.38 "/>
   <path class="fil27" d="M1124.83 357.67l-4.58 -0.8 2.14 -12.13 4.58 0.8 -2.14 12.13zm-4.24 24.27l-4.59 -0.8 2.12 -12.14 4.58 0.8 -2.11 12.14zm-4.22 24.25l-4.58 -0.79 2.1 -12.13 4.59 0.79 -2.11 12.13zm-4.18 24.27l-4.58 -0.79 2.08 -12.14 4.59 0.79 -2.09 12.14zm-4.14 24.26l-4.59 -0.78 2.07 -12.14 4.59 0.78 -2.07 12.14zm-4.1 24.26l-4.59 -0.77 2.05 -12.14 4.59 0.78 -2.05 12.13zm-4.06 24.27l-4.59 -0.76 2.03 -12.14 4.58 0.77 -2.02 12.13zm-4.03 24.28l-4.59 -0.76 2.01 -12.14 4.59 0.76 -2.01 12.14zm-3.98 24.28l-4.59 -0.75 1.98 -12.14 4.6 0.75 -1.99 12.14zm-3.92 24.27l-4.59 -0.74 1.95 -12.13 4.59 0.74 -1.95 12.13zm-3.88 24.31l-4.6 -0.73 1.94 -12.17 4.59 0.73 -1.93 12.17zm-3.82 24.34l-4.6 -0.72 1.9 -12.16 4.6 0.72 -1.9 12.16zm-3.75 24.32l-4.6 -0.7 1.87 -12.17 4.59 0.71 -1.86 12.16zm-3.68 24.32l-4.6 -0.68 1.83 -12.18 4.6 0.7 -1.83 12.16zm-3.58 24.34l-4.61 -0.66 1.78 -12.19 4.61 0.68 -1.78 12.17zm-3.48 24.36l-4.61 -0.65 1.73 -12.19 4.6 0.66 -1.72 12.18zm-3.35 24.37l-4.61 -0.62 1.66 -12.21 4.61 0.64 -1.66 12.19zm-3.2 24.39l-4.61 -0.58 1.57 -12.22 4.61 0.6 -1.57 12.2zm-2.97 24.42l-4.63 -0.54c0.47,-3.99 0.96,-8.07 1.47,-12.24l4.61 0.57c-0.5,4.15 -0.99,8.23 -1.45,12.21zm-2.69 24.44l-4.63 -0.47c0.4,-3.97 0.84,-8.06 1.3,-12.26l4.62 0.5c-0.46,4.2 -0.89,8.28 -1.29,12.23zm-2.22 24.47l-4.64 -0.35c0.31,-3.91 0.65,-8.02 1.04,-12.31l4.64 0.43c-0.39,4.26 -0.74,8.34 -1.04,12.23z"/>
   <path class="fil27" d="M1050.24 861.99l-4.64 -0.2c0.08,-1.98 0.18,-4.06 0.3,-6.21l4.65 0.26c-0.12,2.14 -0.22,4.18 -0.31,6.15z"/>
   <polygon class="fil27" points="1355.8,333.47 1360.39,332.65 1359.3,326.55 1354.72,327.38 "/>
   <path class="fil27" d="M1357.94 345.54l4.58 -0.8 2.14 12.13 -4.58 0.8 -2.14 -12.13zm4.27 24.26l4.58 -0.8 2.12 12.14 -4.59 0.8 -2.11 -12.14zm4.22 24.26l4.59 -0.79 2.1 12.13 -4.58 0.79 -2.11 -12.13zm4.2 24.26l4.59 -0.79 2.08 12.14 -4.58 0.79 -2.09 -12.14zm4.16 24.26l4.59 -0.78 2.07 12.14 -4.59 0.78 -2.07 -12.14zm4.12 24.27l4.59 -0.78 2.05 12.14 -4.59 0.77 -2.05 -12.13zm4.09 24.27l4.58 -0.77 2.03 12.14 -4.59 0.76 -2.02 -12.13zm4.04 24.27l4.59 -0.76 2.01 12.14 -4.59 0.76 -2.01 -12.14zm4 24.28l4.6 -0.75 1.98 12.14 -4.59 0.75 -1.99 -12.14zm3.96 24.28l4.59 -0.74 1.95 12.13 -4.59 0.74 -1.95 -12.13zm3.9 24.27l4.59 -0.73 1.94 12.17 -4.6 0.73 -1.93 -12.17zm3.85 24.35l4.6 -0.72 1.9 12.16 -4.6 0.72 -1.9 -12.16zm3.79 24.32l4.6 -0.71 1.86 12.17 -4.6 0.7 -1.86 -12.16zm3.72 24.32l4.59 -0.7 1.83 12.18 -4.6 0.68 -1.82 -12.16zm3.62 24.33l4.61 -0.68 1.78 12.19 -4.61 0.66 -1.78 -12.17zm3.54 24.35l4.6 -0.66 1.73 12.19 -4.61 0.65 -1.72 -12.18zm3.42 24.36l4.61 -0.64 1.66 12.21 -4.62 0.62 -1.65 -12.19zm3.28 24.38l4.61 -0.6 1.58 12.22 -4.62 0.58 -1.57 -12.2zm3.09 24.41l4.62 -0.57c0.5,4.17 0.99,8.25 1.46,12.24l-4.62 0.54c-0.47,-3.98 -0.96,-8.06 -1.46,-12.21zm2.85 24.42l4.62 -0.5c0.47,4.2 0.9,8.29 1.3,12.26l-4.63 0.47c-0.4,-3.95 -0.83,-8.03 -1.29,-12.23zm2.47 24.47l4.64 -0.43c0.39,4.29 0.73,8.4 1.04,12.31l-4.64 0.35c-0.3,-3.89 -0.64,-7.97 -1.04,-12.23z"/>
   <path class="fil27" d="M1434.67 861.99l4.65 -0.2c-0.09,-1.98 -0.19,-4.06 -0.31,-6.21l-4.65 0.26c0.12,2.14 0.22,4.18 0.31,6.15z"/>
   <path class="fil28" d="M1118.22 288.56c0,0 35.32,33.6 124.24,33.6 88.92,0 124.24,-33.6 124.24,-33.6l-248.48 0z"/>
   <path class="fil27" d="M1366.7 288.56c0,0 -35.32,33.6 -124.24,33.6 -88.92,0 -124.24,-33.6 -124.24,-33.6 0,0 -2.04,11.26 -5.49,30.65 28.56,16.1 70.91,31.09 129.73,31.09 58.81,0 101.16,-14.99 129.72,-31.09 -3.44,-19.39 -5.48,-30.65 -5.48,-30.65z"/>
   <polygon class="fil27" points="1240.13,356.51 1244.79,356.51 1244.79,350.3 1240.13,350.3 "/>
   <path class="fil27" d="M1244.79 384.36l-4.66 0 0 -13.93 4.66 0 0 13.93zm0 27.86l-4.66 0 0 -13.93 4.66 0 0 13.93zm0 27.84l-4.66 0 0 -13.92 4.66 0 0 13.92z"/>
   <polygon class="fil27" points="1248.66,462.52 1240.13,462.52 1240.13,453.99 1244.79,453.99 1244.79,457.87 1248.66,457.87 "/>
   <path class="fil27" d="M1278.9 383.47l-4.65 0 0 -13.45 4.65 0 0 13.45zm0 26.91l-4.65 0 0 -13.45 4.65 0 0 13.45zm-3.07 27.15l-4.55 -0.96c0.83,-3.96 1.54,-8.36 2.11,-13.07l4.61 0.56c-0.57,4.84 -1.31,9.37 -2.17,13.47zm-12.14 24.99l-1.58 0 -0.02 -4.4 0 0c0,0 0.01,-0.01 0.02,-0.02l0 -0.23 0.29 0c0.78,-0.68 2.95,-2.96 5.27,-8.79l4.32 1.72c-3.56,8.99 -7.14,11.14 -7.81,11.48l-0.49 0.24z"/>
   <polygon class="fil27" points="1274.25,356.51 1278.9,356.51 1278.9,350.3 1274.25,350.3 "/>
   <path class="fil15" d="M1242.46 264.08c-0.94,0 -1.7,-0.76 -1.7,-1.7l0 -18.22c0,-0.81 0.58,-1.51 1.38,-1.66 0.69,-0.14 16.98,-3.53 16.98,-20.96 0,-13.37 -14.98,-16.53 -20.11,-17.22l0 1.36c0,0.94 -0.75,1.69 -1.69,1.69 -0.94,0 -1.7,-0.75 -1.7,-1.69l0 -3.23c0,-0.94 0.76,-1.7 1.7,-1.7 0.25,0 25.2,1.55 25.2,20.79 0,17.08 -13.88,22.6 -18.36,23.93l0 16.91c0,0.94 -0.76,1.7 -1.7,1.7z"/>
   <path class="fil15" d="M1151.36 307.12l91.53 -41.02 90.68 41.02c2.65,-1.03 5.12,-2.07 7.44,-3.1 -0.33,-0.75 -0.89,-1.39 -1.69,-1.75l-95.02 -42.98c-0.89,-0.41 -1.91,-0.4 -2.79,-0.01l-95.91 42.98c-0.8,0.36 -1.37,1.01 -1.7,1.76 2.32,1.03 4.8,2.07 7.46,3.1z"/>
   <path class="fil15" d="M1459.52 295.72c-1.25,0 -2.46,-0.69 -3.05,-1.9 -0.83,-1.68 -0.13,-3.71 1.56,-4.54l61.89 -30.29c0.95,-0.47 2.06,-0.46 3,0.01l61.01 30.29c1.68,0.83 2.37,2.87 1.53,4.55 -0.83,1.68 -2.86,2.37 -4.55,1.53l-59.51 -29.55 -60.39 29.56c-0.48,0.23 -0.99,0.34 -1.49,0.34z"/>
   <path class="fil15" d="M1520.97 263.73c-0.94,0 -1.7,-0.76 -1.7,-1.69l0 -18.22c0,-0.81 0.58,-1.51 1.38,-1.67 0.69,-0.13 16.98,-3.53 16.98,-20.95 0,-13.37 -14.97,-16.54 -20.1,-17.22l0 1.35c0,0.94 -0.76,1.7 -1.7,1.7 -0.94,0 -1.7,-0.76 -1.7,-1.7l0 -3.23c0,-0.94 0.76,-1.7 1.7,-1.7 0.25,0 25.2,1.55 25.2,20.8 0,17.08 -13.88,22.59 -18.36,23.93l0 16.91c0,0.93 -0.76,1.69 -1.7,1.69z"/>
   <path class="fil29" d="M1687.37 342.49c-4.7,-9.39 -12.46,-16.91 -22.01,-21.3l-84.96 -39.05c-3.5,29.73 -28.74,52.81 -59.41,52.81 -30.67,0 -55.92,-23.08 -59.41,-52.81l-84.97 39.05c-9.54,4.39 -17.31,11.91 -22.01,21.3l-62.91 112.98 77.09 42.5 23.72 -43.49 0 253.1 256.97 0 0 -253.1 23.72 43.49 77.09 -42.5 -62.91 -112.98z"/>
   <path class="fil30" d="M1408.89 306.36l61.08 0c-2.16,-3.53 -3.97,-7.3 -5.37,-11.26l-31.22 0 -24.49 11.26z"/>
   <path class="fil30" d="M1378.75 335.23l142.24 0 0 -0.28c-12.87,0 -24.78,-4.06 -34.54,-10.98l-109.4 0c0.37,2.42 0.96,6.3 1.7,11.26z"/>
   <path class="fil30" d="M1382.94 364.1l138.05 0 0 -11.26 -139.65 0c0.51,3.58 1.05,7.35 1.6,11.26z"/>
   <path class="fil30" d="M1386.8 392.97l134.19 0 0 -11.25 -135.65 0c0.5,3.72 0.99,7.49 1.46,11.25z"/>
   <path class="fil30" d="M1390.19 421.84l130.8 0 0 -11.25 -132.04 0c0.44,3.84 0.86,7.61 1.24,11.25z"/>
   <path class="fil30" d="M1392.44 450.72l128.55 0 0 -11.26 -129.18 0c0.31,4.18 0.53,7.97 0.63,11.26z"/>
   <polygon class="fil30" points="1392.5,479.59 1520.99,479.59 1520.99,468.33 1392.5,468.33 "/>
   <polygon class="fil30" points="1392.5,508.46 1520.99,508.46 1520.99,497.2 1392.5,497.2 "/>
   <polygon class="fil30" points="1392.5,537.33 1520.99,537.33 1520.99,526.07 1392.5,526.07 "/>
   <polygon class="fil30" points="1392.5,566.2 1520.99,566.2 1520.99,554.94 1392.5,554.94 "/>
   <polygon class="fil30" points="1392.5,595.07 1520.99,595.07 1520.99,583.82 1392.5,583.82 "/>
   <polygon class="fil30" points="1392.5,623.94 1520.99,623.94 1520.99,612.69 1392.5,612.69 "/>
   <polygon class="fil30" points="1392.5,652.81 1520.99,652.81 1520.99,641.56 1392.5,641.56 "/>
   <polygon class="fil30" points="1392.5,681.68 1520.99,681.68 1520.99,670.43 1392.5,670.43 "/>
   <polygon class="fil30" points="1520.99,707.58 1520.99,699.3 1392.5,699.3 1392.5,707.58 "/>
   <path class="fil30" d="M1571.99 306.36l61.08 0 -24.49 -11.26 -31.22 0c-1.4,3.96 -3.21,7.73 -5.37,11.26z"/>
   <path class="fil30" d="M1520.97 335.23l142.23 0c0.75,-4.96 1.34,-8.84 1.71,-11.26l-109.41 0c-9.75,6.92 -21.66,10.98 -34.53,10.98l0 0.28z"/>
   <path class="fil30" d="M1520.97 364.1l138.05 0c0.55,-3.91 1.08,-7.68 1.6,-11.26l-139.65 0 0 11.26z"/>
   <path class="fil30" d="M1520.97 392.97l134.18 0c0.48,-3.76 0.97,-7.53 1.47,-11.25l-135.65 0 0 11.25z"/>
   <path class="fil30" d="M1520.97 421.84l130.8 0c0.38,-3.64 0.79,-7.41 1.24,-11.25l-132.04 0 0 11.25z"/>
   <path class="fil30" d="M1520.97 450.72l128.55 0c0.1,-3.29 0.32,-7.08 0.63,-11.26l-129.18 0 0 11.26z"/>
   <polygon class="fil30" points="1520.97,479.59 1649.45,479.59 1649.45,468.33 1520.97,468.33 "/>
   <polygon class="fil30" points="1520.97,508.46 1649.45,508.46 1649.45,497.2 1520.97,497.2 "/>
   <polygon class="fil30" points="1520.97,537.33 1649.45,537.33 1649.45,526.07 1520.97,526.07 "/>
   <polygon class="fil30" points="1520.97,566.2 1649.45,566.2 1649.45,554.94 1520.97,554.94 "/>
   <polygon class="fil30" points="1520.97,595.07 1649.45,595.07 1649.45,583.82 1520.97,583.82 "/>
   <polygon class="fil30" points="1520.97,623.94 1649.45,623.94 1649.45,612.69 1520.97,612.69 "/>
   <polygon class="fil30" points="1520.97,652.81 1649.45,652.81 1649.45,641.56 1520.97,641.56 "/>
   <polygon class="fil30" points="1520.97,681.68 1649.45,681.68 1649.45,670.43 1520.97,670.43 "/>
   <polygon class="fil30" points="1649.45,699.3 1520.97,699.3 1520.97,707.58 1649.45,707.58 "/>
   <path class="fil30" d="M1357.72 337.18l23.21 12.81c0.63,4.35 1.3,9.05 1.98,13.95l-30.79 -16.99 2.48 -4.46c0.93,-1.84 1.97,-3.62 3.12,-5.31z"/>
   <path class="fil30" d="M1378.28 332.11l-10.34 -5.71c2.68,-2.04 5.58,-3.79 8.67,-5.21 0,0 0.65,4.11 1.67,10.92z"/>
   <path class="fil30" d="M1345.1 359.57l40.25 22.21c0.61,4.58 1.21,9.22 1.79,13.85l-47.52 -26.23 5.48 -9.83z"/>
   <path class="fil30" d="M1332.77 381.71l56.44 31.14c0.53,4.72 1.03,9.3 1.46,13.67l-63.38 -34.98 5.48 -9.83z"/>
   <path class="fil30" d="M1320.31 404.08l71.79 39.61c0.26,4.12 0.4,7.77 0.4,10.79l-0.96 1.76 -76.71 -42.33 5.48 -9.83z"/>
   <polygon class="fil30" points="1308.13,425.94 1384.95,468.33 1379.56,478.22 1302.66,435.78 "/>
   <polygon class="fil30" points="1296,447.74 1373,490.23 1368.78,497.97 1291.69,455.47 "/>
   <path class="fil30" d="M1684.25 337.18l-23.2 12.81c-0.63,4.35 -1.3,9.05 -1.99,13.95l30.79 -16.99 -2.48 -4.46c-0.92,-1.84 -1.97,-3.62 -3.12,-5.31z"/>
   <path class="fil30" d="M1663.69 332.11l10.34 -5.71c-2.67,-2.03 -5.58,-3.79 -8.67,-5.21 0,0 -0.64,4.11 -1.67,10.92z"/>
   <path class="fil30" d="M1696.88 359.57l-40.25 22.21c-0.61,4.58 -1.22,9.22 -1.8,13.85l47.52 -26.23 -5.47 -9.83z"/>
   <path class="fil30" d="M1709.21 381.71l-56.45 31.14c-0.53,4.72 -1.02,9.3 -1.45,13.67l63.37 -34.98 -5.47 -9.83z"/>
   <path class="fil30" d="M1721.66 404.08l-71.79 39.61c-0.26,4.12 -0.4,7.77 -0.4,10.79l0.96 1.76 76.71 -42.33 -5.48 -9.83z"/>
   <polygon class="fil30" points="1733.84,425.94 1657.03,468.33 1662.42,478.22 1739.32,435.78 "/>
   <polygon class="fil30" points="1745.98,447.74 1668.97,490.23 1673.19,497.97 1750.28,455.47 "/>
   <path class="fil31" d="M1984.58 515.67c-23.09,-100.75 -49.29,-153.65 -63.83,-177.32 -6.16,-10.04 -15.81,-17.16 -26.84,-20.05l-26.42 -5.9 -0.59 5.23 -104.74 7.63 -104.74 -7.63 -0.59 -5.23 -26.41 5.9c-11.04,2.89 -20.69,10.01 -26.85,20.05 -14.54,23.67 -40.74,76.57 -63.83,177.32 -34.11,148.89 -39.57,199.82 -39.57,199.82l64.13 0c0,0 20.47,-166.89 70.96,-259.95l0 269.15 253.8 0 0 -269.15c50.49,93.06 70.96,259.95 70.96,259.95l64.14 0c0,0 -5.46,-50.93 -39.58,-199.82z"/>
   <path class="fil31" d="M1854.53 272.67c-14.09,-7.66 -41,-14.95 -92.37,-14.95 -51.37,0 -78.27,7.29 -92.36,14.95 -10.01,5.44 -15.53,17.06 -14.2,28.81l1.82 16.15 104.74 7.63 104.74 -7.63 1.82 -16.15c1.33,-11.75 -4.18,-23.37 -14.19,-28.81z"/>
   <path class="fil32" d="M1613.6 326.92c-3.89,3.18 -7.32,7 -10.03,11.43 -14.54,23.67 -40.74,76.57 -63.83,177.32 -34.11,148.89 -39.57,199.82 -39.57,199.82l64.13 0c0,0 20.47,-166.89 70.96,-259.95 0,-81.6 -21.66,-128.61 -21.66,-128.62z"/>
   <path class="fil32" d="M1910.72 326.92c3.89,3.18 7.31,7 10.03,11.43 14.54,23.67 40.74,76.57 63.83,177.32 34.12,148.89 39.58,199.82 39.58,199.82l-64.14 0c0,0 -20.47,-166.89 -70.96,-259.95 0,-81.6 21.66,-128.61 21.66,-128.62z"/>
   <path class="fil13" d="M1692.12 609.48l140.07 0 0 -198.24 -140.07 0 0 198.24zm151.04 10.96l-162 0 0 -220.17 162 0 0 220.17z"/>
   <path class="fil32" d="M1655.6 301.48l1.82 16.15 104.74 7.63c-40.73,-29.31 -81.82,-43.85 -97.57,-48.74 -6.62,6.13 -10.07,15.47 -8.99,24.96z"/>
   <path class="fil32" d="M1868.72 301.48l-1.82 16.15 -104.74 7.63c40.73,-29.31 81.83,-43.85 97.58,-48.74 6.6,6.13 10.06,15.47 8.98,24.96z"/>
   <path class="fil23" d="M1770.15 325.26c0,4.41 -3.58,7.99 -7.99,7.99 -4.41,0 -7.99,-3.58 -7.99,-7.99 0,-4.41 3.58,-7.99 7.99,-7.99 4.41,0 7.99,3.58 7.99,7.99z"/>
   <path class="fil23" d="M1772.57 433.05c-0.05,0 -0.1,-0.01 -0.15,-0.01 -1.51,-0.08 -2.67,-1.37 -2.59,-2.88 0.02,-0.39 2.04,-38.66 0.01,-62.3 -1.25,-14.58 -4.89,-24.49 -7.39,-29.79 -2.21,5.65 -5.51,15.83 -6.78,28.79 -2.03,20.61 -2.05,33.36 -2.05,33.49 0,1.51 -1.23,2.74 -2.75,2.74l0 0c-1.51,0 -2.74,-1.23 -2.74,-2.74 0,-0.13 0.03,-13.12 2.08,-34.02 2.1,-21.29 9.22,-35.15 9.52,-35.73 0.44,-0.84 1.29,-1.4 2.24,-1.46 0.94,-0.06 1.87,0.36 2.42,1.13 0.36,0.5 8.8,12.55 10.91,37.13 2.06,24.01 0.02,62.67 0.01,63.05 -0.08,1.46 -1.29,2.6 -2.74,2.6z"/>
   <path class="fil15" d="M1762.16 265.01c-0.94,0 -1.7,-0.76 -1.7,-1.7l0 -18.21c0,-0.82 0.58,-1.51 1.37,-1.67 0.7,-0.14 16.99,-3.53 16.99,-20.96 0,-13.36 -14.98,-16.53 -20.11,-17.22l0 1.36c0,0.94 -0.76,1.69 -1.69,1.69 -0.94,0 -1.7,-0.75 -1.7,-1.69l0 -3.23c0,-0.94 0.76,-1.7 1.7,-1.7 0.25,0 25.2,1.55 25.2,20.79 0,17.08 -13.88,22.6 -18.36,23.93l0 16.91c0,0.94 -0.76,1.7 -1.7,1.7z"/>
   <path class="fil15" d="M1816.14 293.68c2.73,-1.28 5.38,-2.49 7.95,-3.63l-59.98 -29.78c-0.94,-0.47 -2.05,-0.48 -3,-0.01l-60.88 29.79c2.59,1.15 5.25,2.37 7.99,3.66l54.37 -26.61 53.55 26.58z"/>
   <path class="fil15" d="M1911.85 291.98c-1.29,0 -2.52,-0.74 -3.09,-1.99 -0.77,-1.71 -0.02,-3.72 1.68,-4.5l69.11 -31.3c0.9,-0.41 1.93,-0.4 2.84,0.01l67.37 31.3c1.7,0.8 2.44,2.81 1.65,4.51 -0.79,1.71 -2.8,2.45 -4.51,1.66l-65.97 -30.65 -67.67 30.66c-0.46,0.2 -0.93,0.3 -1.41,0.3z"/>
   <path class="fil15" d="M1980.5 258.98c-0.93,0 -1.69,-0.76 -1.69,-1.7l0 -18.21c0,-0.81 0.58,-1.51 1.38,-1.67 0.69,-0.13 16.98,-3.53 16.98,-20.95 0,-13.37 -14.98,-16.54 -20.11,-17.23l0 1.36c0,0.94 -0.75,1.7 -1.69,1.7 -0.93,0 -1.7,-0.76 -1.7,-1.7l0 -3.23c0,-0.94 0.77,-1.7 1.7,-1.7 0.25,0 25.21,1.55 25.21,20.8 0,17.08 -13.88,22.59 -18.37,23.93l0 16.9c0,0.94 -0.76,1.7 -1.71,1.7z"/>
   <path class="fil33" d="M2101.28 297.17l-57.64 -21.96c0,0 -10.98,49.41 -63.12,90.58 -52.16,-41.17 -63.14,-90.58 -63.14,-90.58l-57.64 21.96c30.2,93.32 -27.43,120.76 -27.43,120.76l0 252.51 296.4 0 0 -252.51c0,0 -57.63,-27.44 -27.43,-120.76z"/>
   <polygon class="fil34" points="2075.21,470.44 2048.33,486.55 2021.47,470.44 2021.47,425.25 2075.21,425.25 "/>
  </g>
 </g>
</svg>
