<?xml version="1.0" encoding="UTF-8"?>
<!DOCTYPE svg PUBLIC "-//W3C//DTD SVG 1.1//EN" "http://www.w3.org/Graphics/SVG/1.1/DTD/svg11.dtd">
<!-- Creator: CorelDRAW 2019 (64-Bit) -->
<svg xmlns="http://www.w3.org/2000/svg" xml:space="preserve" width="2445px" height="2440px" version="1.1" style="shape-rendering:geometricPrecision; text-rendering:geometricPrecision; image-rendering:optimizeQuality; fill-rule:evenodd; clip-rule:evenodd"
viewBox="0 0 2503.65 2498.25"
 xmlns:xlink="http://www.w3.org/1999/xlink"
 xmlns:xodm="http://www.corel.com/coreldraw/odm/2003">
 <defs>
  <style type="text/css">
   <![CDATA[
    .str0 {stroke:#CCCCCC;stroke-width:2.13;stroke-miterlimit:2.61313}
    .fil1 {fill:#FEFEFE}
    .fil0 {fill:#BDBFC1}
    .fil4 {fill:#FEFEFE;fill-rule:nonzero}
    .fil41 {fill:#A9ABAE;fill-rule:nonzero}
    .fil49 {fill:#606062;fill-rule:nonzero}
    .fil16 {fill:#FED49B;fill-rule:nonzero}
    .fil54 {fill:#FEC97B;fill-rule:nonzero}
    .fil45 {fill:#FCC185;fill-rule:nonzero}
    .fil30 {fill:#FBC092;fill-rule:nonzero}
    .fil32 {fill:#FAB88F;fill-rule:nonzero}
    .fil19 {fill:#FBB24A;fill-rule:nonzero}
    .fil13 {fill:#FBB04A;fill-rule:nonzero}
    .fil25 {fill:#FAAC52;fill-rule:nonzero}
    .fil31 {fill:#F79F88;fill-rule:nonzero}
    .fil46 {fill:#F69CA0;fill-rule:nonzero}
    .fil60 {fill:#F38391;fill-rule:nonzero}
    .fil47 {fill:#F16C7A;fill-rule:nonzero}
    .fil42 {fill:#F1613A;fill-rule:nonzero}
    .fil21 {fill:#EF4B43;fill-rule:nonzero}
    .fil63 {fill:#FBFADF;fill-rule:nonzero}
    .fil11 {fill:#FAF5A9;fill-rule:nonzero}
    .fil14 {fill:#FAEE31;fill-rule:nonzero}
    .fil34 {fill:#F1F1F3;fill-rule:nonzero}
    .fil44 {fill:#E8E7E8;fill-rule:nonzero}
    .fil55 {fill:#E3A145;fill-rule:nonzero}
    .fil22 {fill:#D6463E;fill-rule:nonzero}
    .fil15 {fill:#E1DA94;fill-rule:nonzero}
    .fil35 {fill:#DE9E43;fill-rule:nonzero}
    .fil53 {fill:#D79942;fill-rule:nonzero}
    .fil20 {fill:#C6443B;fill-rule:nonzero}
    .fil62 {fill:#D3EBDF;fill-rule:nonzero}
    .fil56 {fill:#D19643;fill-rule:nonzero}
    .fil12 {fill:#CCDD67;fill-rule:nonzero}
    .fil2 {fill:#BAE5FA;fill-rule:nonzero}
    .fil28 {fill:#C3E0AF;fill-rule:nonzero}
    .fil39 {fill:#C1B69E;fill-rule:nonzero}
    .fil23 {fill:#BD5A86;fill-rule:nonzero}
    .fil8 {fill:#AA7C61;fill-rule:nonzero}
    .fil40 {fill:#A98158;fill-rule:nonzero}
    .fil17 {fill:#AFCAA0;fill-rule:nonzero}
    .fil37 {fill:#AEA38E;fill-rule:nonzero}
    .fil61 {fill:#ABD8AF;fill-rule:nonzero}
    .fil9 {fill:#AAD487;fill-rule:nonzero}
    .fil10 {fill:#ADD265;fill-rule:nonzero}
    .fil24 {fill:#A8AAAD;fill-rule:nonzero}
    .fil43 {fill:#9D887E;fill-rule:nonzero}
    .fil59 {fill:#948576;fill-rule:nonzero}
    .fil6 {fill:#9BBF7D;fill-rule:nonzero}
    .fil36 {fill:#9AB85A;fill-rule:nonzero}
    .fil3 {fill:#7BD2F6;fill-rule:nonzero}
    .fil5 {fill:#97CA4A;fill-rule:nonzero}
    .fil27 {fill:#88BDB3;fill-rule:nonzero}
    .fil26 {fill:#766C60;fill-rule:nonzero}
    .fil7 {fill:#88B94B;fill-rule:nonzero}
    .fil33 {fill:#737576;fill-rule:nonzero}
    .fil58 {fill:#5A534B;fill-rule:nonzero}
    .fil18 {fill:#606263;fill-rule:nonzero}
    .fil48 {fill:#58595B;fill-rule:nonzero}
    .fil57 {fill:#4C4C4D;fill-rule:nonzero}
    .fil51 {fill:#30BDB9;fill-rule:nonzero}
    .fil50 {fill:#38B3AD;fill-rule:nonzero}
    .fil38 {fill:#47B453;fill-rule:nonzero}
    .fil29 {fill:#22A99F;fill-rule:nonzero}
    .fil52 {fill:#279990;fill-rule:nonzero}
   ]]>
  </style>
 </defs>
 <g id="Layer_x0020_1">
  <metadata id="CorelCorpID_0Corel-Layer"/>
  <rect class="fil0" x="84.76" y="79.36" width="2418.89" height="2418.89" rx="168.67" ry="181.42"/>
  <rect class="fil1 str0" x="1.07" y="1.07" width="2418.89" height="2418.89" rx="168.67" ry="181.42"/>
  <g id="_1362800247744">
   <polygon class="fil2" points="264.52,1646.7 2169.54,1646.7 2169.54,227.46 264.52,227.46 "/>
   <path class="fil3" d="M1075.46 1234.78c0,0 -1.7,-520.77 23.22,-516.83 24.91,3.93 168.98,-15.98 178.17,17.27 9.2,33.24 -33.8,489.95 -33.8,489.95l-167.59 9.61z"/>
   <path class="fil4" d="M1219.03 845.36l-11.61 -1.31c-6.5,-0.74 -11.23,-6.67 -10.49,-13.17l4.84 -42.86c0.74,-6.51 6.67,-11.23 13.17,-10.49l11.61 1.31c6.51,0.74 11.23,6.66 10.49,13.17l-4.84 42.85c-0.74,6.51 -6.66,11.23 -13.17,10.5z"/>
   <path class="fil4" d="M1152.91 838.79l-11.61 -1.31c-6.5,-0.73 -11.23,-6.66 -10.49,-13.17l4.84 -42.85c0.74,-6.51 6.66,-11.23 13.17,-10.49l11.61 1.31c6.51,0.73 11.23,6.66 10.49,13.17l-4.84 42.85c-0.74,6.51 -6.66,11.23 -13.17,10.49z"/>
   <path class="fil4" d="M1145.15 935.51l-11.61 -1.31c-6.51,-0.74 -11.23,-6.66 -10.5,-13.17l4.85 -42.85c0.73,-6.51 6.66,-11.23 13.17,-10.5l11.61 1.32c6.5,0.73 11.23,6.66 10.49,13.16l-4.85 42.86c-0.73,6.5 -6.66,11.23 -13.16,10.49z"/>
   <path class="fil4" d="M1215.03 1017.75l-11.64 -1.08c-6.52,-0.61 -11.36,-6.44 -10.75,-12.95l3.97 -42.95c0.61,-6.52 6.44,-11.36 12.96,-10.76l11.63 1.08c6.52,0.61 11.36,6.44 10.76,12.96l-3.98 42.94c-0.6,6.52 -6.43,11.36 -12.95,10.76z"/>
   <path class="fil4" d="M1145.83 1097.94l-11.63 -1.07c-6.52,-0.6 -11.36,-6.43 -10.76,-12.96l3.98 -42.94c0.6,-6.52 6.43,-11.36 12.95,-10.75l11.63 1.07c6.52,0.61 11.37,6.43 10.76,12.96l-3.97 42.94c-0.61,6.52 -6.44,11.36 -12.96,10.75z"/>
   <path class="fil4" d="M1199.5 1102.97l-11.63 -1.08c-6.52,-0.6 -11.37,-6.43 -10.76,-12.95l3.97 -42.94c0.61,-6.52 6.44,-11.36 12.96,-10.76l11.63 1.08c6.52,0.6 11.36,6.43 10.76,12.95l-3.98 42.94c-0.6,6.52 -6.43,11.36 -12.95,10.76z"/>
   <path class="fil4" d="M1195.25 1194.27l-11.64 -1.07c-6.52,-0.61 -11.36,-6.44 -10.76,-12.96l3.98 -42.94c0.61,-6.52 6.43,-11.36 12.95,-10.76l11.64 1.08c6.52,0.61 11.36,6.43 10.75,12.95l-3.97 42.95c-0.61,6.52 -6.43,11.36 -12.95,10.75z"/>
   <path class="fil3" d="M582.07 716.24c-4.5,-0.5 -18.1,0.85 -36.69,3.42 -17.68,-37.16 -72.27,-62.16 -124.98,-55.89 -54.16,6.45 -76.22,-57.47 -82.12,-54.09 -5.89,3.38 15.25,149.18 15.25,149.18l0.01 0c-9.14,3.2 -14.7,6.11 -15.16,8.49 -3.01,15.52 63.7,522.88 63.7,522.88l235.59 -73.53c0,0 -34.54,-498.15 -55.6,-500.46z"/>
   <path class="fil4" d="M401.42 878.18l-11.62 1.18c-6.52,0.65 -12.39,-4.14 -13.05,-10.65l-4.34 -42.91c-0.65,-6.52 4.14,-12.38 10.65,-13.04l11.63 -1.18c6.51,-0.66 12.38,4.13 13.04,10.65l4.34 42.91c0.66,6.51 -4.14,12.38 -10.65,13.04z"/>
   <path class="fil4" d="M453.18 868.75l-11.62 1.17c-6.52,0.66 -12.39,-4.13 -13.05,-10.64l-4.33 -42.91c-0.66,-6.52 4.13,-12.39 10.65,-13.04l11.62 -1.18c6.51,-0.66 12.38,4.13 13.04,10.65l4.34 42.9c0.66,6.52 -4.13,12.39 -10.65,13.05z"/>
   <path class="fil4" d="M527.13 935.96l-11.63 1.18c-6.51,0.66 -12.38,-4.13 -13.04,-10.65l-4.34 -42.91c-0.66,-6.51 4.14,-12.38 10.65,-13.04l11.62 -1.17c6.52,-0.66 12.39,4.13 13.04,10.64l4.34 42.91c0.66,6.52 -4.13,12.39 -10.64,13.04z"/>
   <path class="fil4" d="M560.4 853.81l-11.62 1.18c-6.52,0.65 -12.39,-4.14 -13.05,-10.65l-4.33 -42.91c-0.66,-6.52 4.13,-12.39 10.64,-13.04l11.63 -1.18c6.51,-0.66 12.38,4.13 13.04,10.65l4.34 42.91c0.66,6.51 -4.13,12.38 -10.65,13.04z"/>
   <path class="fil4" d="M477.58 1009.47l-11.62 1.18c-6.52,0.66 -12.39,-4.13 -13.04,-10.65l-4.34 -42.91c-0.66,-6.51 4.13,-12.38 10.65,-13.04l11.62 -1.17c6.51,-0.66 12.38,4.13 13.04,10.64l4.34 42.91c0.66,6.52 -4.13,12.39 -10.65,13.04z"/>
   <path class="fil4" d="M433.22 1105.15l-11.62 1.17c-6.52,0.66 -12.39,-4.13 -13.05,-10.65l-4.34 -42.91c-0.66,-6.51 4.14,-12.38 10.65,-13.04l11.62 -1.17c6.52,-0.66 12.39,4.13 13.05,10.65l4.33 42.9c0.66,6.52 -4.13,12.39 -10.64,13.05z"/>
   <path class="fil4" d="M485.54 1096.79l-11.62 1.18c-6.51,0.66 -12.38,-4.14 -13.04,-10.65l-4.34 -42.91c-0.66,-6.51 4.13,-12.38 10.65,-13.04l11.62 -1.18c6.52,-0.65 12.39,4.14 13.05,10.65l4.33 42.91c0.66,6.52 -4.13,12.38 -10.65,13.04z"/>
   <path class="fil4" d="M580.37 998.48l-11.63 1.18c-6.51,0.66 -12.38,-4.14 -13.04,-10.65l-4.34 -42.91c-0.66,-6.51 4.13,-12.38 10.65,-13.04l11.62 -1.18c6.52,-0.66 12.39,4.14 13.04,10.65l4.34 42.91c0.66,6.51 -4.13,12.38 -10.64,13.04z"/>
   <path class="fil3" d="M663.01 1164.1c0,0 -26.89,-502.14 -25.34,-512.11 1.56,-9.97 178.67,-10.94 193.91,-10.45 15.24,0.48 34.1,537.59 34.1,537.59l-202.67 -15.03z"/>
   <path class="fil4" d="M696.14 804.57l-11.68 0.29c-6.54,0.16 -12.03,-5.07 -12.19,-11.61l-1.05 -43.12c-0.16,-6.54 5.06,-12.03 11.61,-12.19l11.68 -0.29c6.54,-0.16 12.03,5.07 12.19,11.62l1.05 43.11c0.16,6.54 -5.06,12.03 -11.61,12.19z"/>
   <path class="fil4" d="M752.24 804.57l-11.68 0.29c-6.55,0.16 -12.04,-5.07 -12.2,-11.61l-1.05 -43.12c-0.16,-6.54 5.07,-12.03 11.61,-12.19l11.68 -0.29c6.55,-0.16 12.03,5.07 12.19,11.62l1.06 43.11c0.16,6.54 -5.07,12.03 -11.61,12.19z"/>
   <path class="fil4" d="M812.65 885.79l-11.68 0.28c-6.54,0.16 -12.03,-5.06 -12.19,-11.61l-1.06 -43.11c-0.16,-6.55 5.07,-12.03 11.61,-12.2l11.68 -0.28c6.55,-0.16 12.04,5.06 12.2,11.61l1.05 43.11c0.16,6.55 -5.06,12.04 -11.61,12.2z"/>
   <path class="fil4" d="M758.3 943.6l-11.68 0.29c-6.54,0.16 -12.03,-5.07 -12.19,-11.61l-1.06 -43.12c-0.16,-6.54 5.07,-12.03 11.62,-12.19l11.67 -0.29c6.55,-0.16 12.04,5.07 12.2,11.61l1.05 43.12c0.16,6.54 -5.06,12.03 -11.61,12.19z"/>
   <path class="fil4" d="M705.4 1025.23l-11.68 0.29c-6.54,0.16 -12.03,-5.06 -12.19,-11.61l-1.05 -43.11c-0.17,-6.55 5.06,-12.04 11.61,-12.2l11.67 -0.28c6.55,-0.16 12.04,5.06 12.2,11.61l1.05 43.11c0.16,6.55 -5.06,12.04 -11.61,12.19z"/>
   <path class="fil4" d="M758.3 1025.23l-11.68 0.29c-6.54,0.16 -12.03,-5.06 -12.19,-11.61l-1.06 -43.11c-0.16,-6.55 5.07,-12.04 11.62,-12.2l11.67 -0.28c6.55,-0.16 12.04,5.06 12.2,11.61l1.05 43.11c0.16,6.55 -5.06,12.04 -11.61,12.19z"/>
   <path class="fil4" d="M818.54 1092.49l-11.68 0.28c-6.54,0.16 -12.03,-5.06 -12.19,-11.61l-1.06 -43.11c-0.16,-6.55 5.07,-12.04 11.61,-12.2l11.68 -0.28c6.55,-0.16 12.04,5.06 12.19,11.61l1.06 43.11c0.16,6.55 -5.06,12.04 -11.61,12.2z"/>
   <path class="fil3" d="M899.77 1196.51c0,0 -22.87,-313.58 -13.84,-332.77 9.02,-19.19 145.82,-7.98 161.66,-8.3 15.83,-0.31 0,352.2 0,352.2l-147.82 -11.13z"/>
   <path class="fil4" d="M947.77 970.59l-11.68 0.29c-6.55,0.16 -12.03,-5.07 -12.19,-11.61l-1.06 -43.11c-0.16,-6.55 5.07,-12.04 11.61,-12.2l11.68 -0.29c6.55,-0.15 12.04,5.07 12.19,11.62l1.06 43.11c0.16,6.55 -5.06,12.03 -11.61,12.19z"/>
   <path class="fil4" d="M1007.67 968.54l-11.68 0.28c-6.55,0.17 -12.04,-5.06 -12.2,-11.61l-1.05 -43.11c-0.16,-6.55 5.06,-12.03 11.61,-12.19l11.68 -0.29c6.54,-0.16 12.03,5.07 12.19,11.61l1.06 43.12c0.16,6.54 -5.07,12.03 -11.61,12.19z"/>
   <path class="fil4" d="M1007.67 1063.37l-11.68 0.29c-6.55,0.16 -12.04,-5.07 -12.2,-11.61l-1.05 -43.12c-0.16,-6.54 5.06,-12.03 11.61,-12.19l11.68 -0.29c6.54,-0.16 12.03,5.07 12.19,11.62l1.06 43.11c0.16,6.54 -5.07,12.03 -11.61,12.19z"/>
   <path class="fil4" d="M955.52 1126.11l-11.68 0.29c-6.55,0.16 -12.04,-5.07 -12.2,-11.62l-1.05 -43.11c-0.16,-6.54 5.06,-12.03 11.61,-12.19l11.68 -0.29c6.54,-0.16 12.03,5.07 12.19,11.62l1.06 43.11c0.16,6.54 -5.07,12.03 -11.61,12.19z"/>
   <path class="fil5" d="M207.26 1078.63c0,0 27.81,-81.18 87.71,-80.29 59.9,0.88 64.17,59.12 64.17,59.12 0,0 12.84,-36.9 70.6,-24.04 57.75,12.86 33.64,68.48 33.64,68.48 0,0 41.23,-38.5 75.45,14.97 0,0 2.14,-42.25 49.2,-38.24 47.06,4.02 44.6,38.24 44.6,38.24 0,0 48.43,-40.64 77.86,8.56 0,0 -5.21,-42.25 38.84,-46.8 44.06,-4.54 48.34,33.96 48.34,33.96 0,0 47.06,-25.67 68.45,23.54 0,0 42.79,-57.76 85.57,14.97 0,0 2.14,-49.2 44.92,-49.2 42.79,0 48.13,23.53 48.13,23.53 0,0 52.41,-25.67 65.25,36.37 0,0 62.03,-19.26 70.59,44.92l-973.32 344.4 0 -472.49z"/>
   <path class="fil6" d="M1541.87 609.84c0,0 -21.63,-38.4 -55.65,-32.33 -34.02,6.06 -27.64,54.56 -27.64,54.56 0,0 -38.28,-48.5 -82.94,-20.21 -44.66,28.3 0,67.8 0,67.8 0,0 -61.67,-9.19 -72.3,39.32 -10.63,48.5 38.28,56.59 38.28,56.59 0,0 -65.92,-6.07 -65.92,58.61 0,64.67 99.94,48.5 99.94,48.5 0,0 -44.66,6.13 -36.15,51.57 8.51,45.44 84,23.21 84,23.21 0,0 -45.36,28.62 -14.71,51.7 30.66,23.08 73.19,-13.65 73.19,-13.65 0,0 7.09,45.51 59.9,36.07 52.8,-9.45 34.46,-59.41 34.46,-59.41 0,0 50.24,32.89 80.01,0 29.77,-32.9 0,-69.28 0,-69.28 0,0 59.55,22.23 74.43,-42.44 14.89,-64.67 -63.8,-71.37 -63.8,-71.37 0,0 72.15,-5.36 63.8,-48.55 -8.35,-43.19 -68.05,-23.57 -68.05,-23.57 0,0 91.44,-32.34 68.05,-70.74 -23.39,-38.4 -96.05,0 -96.05,0 0,0 30.13,-49.8 -6.02,-69.36 -36.15,-19.56 -86.83,32.98 -86.83,32.98z"/>
   <path class="fil7" d="M207.26 1279.33c0,0 13.47,-101.69 99.19,-48.63 0,0 25.79,-91.86 89.68,-19.39 0,0 65.69,-54.91 89.19,29.52 0,0 10.43,-83.26 74.72,-45.17 0,0 72.62,-45.78 89.89,24.73 0,0 41.76,-68.78 86.66,9.8 0,0 37.57,-36.39 58.61,4.65l-587.94 316.28 0 -271.79z"/>
   <path class="fil8" d="M1456.43 1251.4c0,0 22.85,-235.41 24.62,-267.3 1.77,-31.9 -68.41,-116.96 -68.41,-116.96l34.22 -17.01c0,0 38.08,72.3 50.85,59.54 12.76,-12.76 -16.66,-148.85 -16.66,-148.85l31.54 0c0,0 8.38,110.57 19.08,106.32 10.69,-4.25 23.45,-64.46 23.45,-64.46l31.9 13.42c0,0 -55.29,104.6 -59.54,117.16 -4.26,12.56 59.54,-27.84 59.54,-27.84l10.63 27.84c0,0 -69.44,37.13 -74.06,62.06 -4.62,24.93 8.08,256.08 8.08,256.08l-75.24 0z"/>
   <path class="fil9" d="M1915.4 569.48c0,0 -33.27,-57.75 -81.33,-45.86 -48.07,11.88 -41.63,79.86 -41.63,79.86 0,0 -42.03,-80.33 -98.44,-54.17 -56.42,26.16 -10.28,93.69 -10.28,93.69 0,0 -58.22,-7.85 -68.91,49.69 -10.68,57.55 44.73,68.26 44.73,68.26 0,0 -69.4,6.46 -73.01,63.21 -3.61,56.75 51.79,66.05 51.79,66.05 0,0 -39.48,18.88 -24.85,58.41 14.62,39.53 82.31,7.57 82.31,7.57 0,0 -19.41,38.5 27.6,57.81 47,19.32 73.21,-44.78 73.21,-44.78 0,0 -23.15,75.34 32.93,86.08 56.07,10.74 71.21,-57.95 71.21,-57.95 0,0 18.71,52.71 66.63,28.06 47.93,-24.65 14.94,-58.3 14.94,-58.3 0,0 56.02,64.58 107.88,11.54 51.85,-53.05 -28.03,-96.09 -28.03,-96.09 0,0 55.45,13.54 67.67,-33.38 12.23,-46.93 -48.72,-46.23 -48.72,-46.23 0,0 65.07,-12.08 63.06,-64.52 -2.01,-52.43 -78.46,-43.06 -78.46,-43.06 0,0 36.56,-25.93 19.18,-58.35 -17.38,-32.41 -59.71,-14.91 -59.71,-14.91 0,0 32.25,-31.56 10.55,-69.59 -21.7,-38.04 -94.08,-44.3 -120.32,16.96z"/>
   <path class="fil8" d="M1753.74 1262.06c0,0 74.78,-249.53 76.27,-305.94 1.49,-56.41 -106.23,-178.53 -106.23,-178.53l38.01 -23.83c0,0 54.63,129.11 82.1,113.91 27.48,-15.2 -29.72,-182.56 -29.72,-182.56l35.26 -11.03c0,0 24.09,180.49 38.9,173.94 14.81,-6.54 67.37,-60.31 67.37,-60.31l32.85 27.28c0,0 -82.32,111.45 -98.87,152.08 -16.55,40.63 -18.67,322.57 -18.67,322.57l-117.27 -27.58z"/>
   <path class="fil10" d="M213.58 1484.97c0,0 382.18,-296.87 1000.09,-296.87 617.91,0 1000.09,258.78 1000.09,258.78l0 746.68 -2000.18 0 0 -708.59z"/>
   <path class="fil11" d="M213.58 1523.72l0 176.08c124.03,-87.56 451.97,-273.17 1003.45,-273.17 553.12,0 876.04,182.53 996.73,267.8l0 -217.73c-143.64,-75.77 -519.76,-246 -1000.09,-246 -486.42,0 -862.21,205.56 -1000.09,293.02z"/>
   <path class="fil12" d="M891.1 1508.56c0,11.52 -17.59,20.85 -39.29,20.85 -21.7,0 -39.29,-9.33 -39.29,-20.85 0,-11.52 17.59,-20.86 39.29,-20.86 21.7,0 39.29,9.34 39.29,20.86z"/>
   <path class="fil12" d="M1005.09 1564.55c0,9.86 -13.86,17.86 -30.95,17.86 -17.1,0 -30.96,-8 -30.96,-17.86 0,-9.87 13.86,-17.86 30.96,-17.86 17.09,0 30.95,7.99 30.95,17.86z"/>
   <path class="fil12" d="M1147.97 1491.61c0,9.36 -17.59,16.95 -39.29,16.95 -21.7,0 -39.29,-7.59 -39.29,-16.95 0,-9.36 17.59,-16.95 39.29,-16.95 21.7,0 39.29,7.59 39.29,16.95z"/>
   <path class="fil12" d="M724 1646.7c0,9.21 -13.47,16.67 -30.08,16.67 -16.61,0 -30.08,-7.46 -30.08,-16.67 0,-9.21 13.47,-16.67 30.08,-16.67 16.61,0 30.08,7.46 30.08,16.67z"/>
   <path class="fil12" d="M1005.09 1709.25c0,10.17 -18.12,18.41 -40.48,18.41 -22.36,0 -40.48,-8.24 -40.48,-18.41 0,-10.17 18.12,-18.42 40.48,-18.42 22.36,0 40.48,8.25 40.48,18.42z"/>
   <path class="fil12" d="M891.1 1640.75c0,12.49 -16.82,22.62 -37.57,22.62 -20.76,0 -37.58,-10.13 -37.58,-22.62 0,-12.5 16.82,-22.63 37.58,-22.63 20.75,0 37.57,10.13 37.57,22.63z"/>
   <path class="fil12" d="M1108.68 1623.48c0,9.54 -12,17.27 -26.79,17.27 -14.8,0 -26.79,-7.73 -26.79,-17.27 0,-9.53 11.99,-17.26 26.79,-17.26 14.79,0 26.79,7.73 26.79,17.26z"/>
   <path class="fil12" d="M1338.47 1564.55c0,9.86 -15.99,17.86 -35.72,17.86 -19.72,0 -35.72,-8 -35.72,-17.86 0,-9.87 16,-17.86 35.72,-17.86 19.73,0 35.72,7.99 35.72,17.86z"/>
   <path class="fil12" d="M1164.64 1573.48c0,4.93 -7.46,8.93 -16.67,8.93 -9.21,0 -16.67,-4 -16.67,-8.93 0,-4.94 7.46,-8.93 16.67,-8.93 9.21,0 16.67,3.99 16.67,8.93z"/>
   <path class="fil12" d="M1302.75 1651.46c0,11.84 -19.19,21.43 -42.86,21.43 -23.67,0 -42.86,-9.59 -42.86,-21.43 0,-11.83 19.19,-21.43 42.86,-21.43 23.67,0 42.86,9.6 42.86,21.43z"/>
   <path class="fil12" d="M1293.23 1480.29c0,6.25 -7.47,11.32 -16.67,11.32 -9.21,0 -16.67,-5.07 -16.67,-11.32 0,-6.25 7.46,-11.32 16.67,-11.32 9.2,0 16.67,5.07 16.67,11.32z"/>
   <path class="fil12" d="M1600.41 1602.94c0,11.35 -20.79,20.54 -46.43,20.54 -25.65,0 -46.44,-9.19 -46.44,-20.54 0,-11.34 20.79,-20.53 46.44,-20.53 25.64,0 46.43,9.19 46.43,20.53z"/>
   <path class="fil12" d="M1474.2 1517.19c0,6.75 -9.59,12.22 -21.43,12.22 -11.83,0 -21.43,-5.47 -21.43,-12.22 0,-6.74 9.6,-12.21 21.43,-12.21 11.84,0 21.43,5.47 21.43,12.21z"/>
   <path class="fil12" d="M1807.58 1616.49c0,7.48 -9.59,13.54 -21.43,13.54 -11.84,0 -21.43,-6.06 -21.43,-13.54 0,-7.48 9.59,-13.55 21.43,-13.55 11.84,0 21.43,6.07 21.43,13.55z"/>
   <path class="fil12" d="M1526.59 1713.73c0,7.7 -11.73,13.93 -26.19,13.93 -14.47,0 -26.2,-6.23 -26.2,-13.93 0,-7.69 11.73,-13.93 26.2,-13.93 14.46,0 26.19,6.24 26.19,13.93z"/>
   <path class="fil12" d="M1709.95 1745.52c0,9.87 -11.19,17.86 -25,17.86 -13.81,0 -25,-7.99 -25,-17.86 0,-9.86 11.19,-17.86 25,-17.86 13.81,0 25,8 25,17.86z"/>
   <path class="fil12" d="M1876.64 1709.25c0,10.17 -12.79,18.41 -28.57,18.41 -15.79,0 -28.58,-8.24 -28.58,-18.41 0,-10.17 12.79,-18.42 28.58,-18.42 15.78,0 28.57,8.25 28.57,18.42z"/>
   <path class="fil12" d="M1709.95 1538.05c0,4.77 -11.19,8.64 -25,8.64 -13.81,0 -25,-3.87 -25,-8.64 0,-4.77 11.19,-8.64 25,-8.64 13.81,0 25,3.87 25,8.64z"/>
   <path class="fil12" d="M520.38 1713.73c0,7.7 -15.7,13.93 -35.06,13.93 -19.37,0 -35.06,-6.23 -35.06,-13.93 0,-7.69 15.69,-13.93 35.06,-13.93 19.36,0 35.06,6.24 35.06,13.93z"/>
   <path class="fil4" d="M640.23 1991.05c0,0 -14.84,-21.24 11.47,-21.74 26.32,-0.51 8.77,21.74 8.77,21.74 0,0 20.24,-12.13 30.36,-4.04 10.12,8.09 -5.39,16.18 -20.91,13.65 0,0 26.98,4.81 13.74,14.25 -14.44,10.3 -24.53,-4.64 -24.53,-4.64 0,0 12.24,19.65 -8,19.65 -20.24,0 -10.9,-20.15 -10.9,-20.15 0,0 -9.59,15.54 -21.58,5.05 -12.15,-10.62 14.16,-12.13 14.16,-12.13 0,0 -25.55,-1.52 -19.19,-13.66 6.37,-12.14 26.61,2.02 26.61,2.02z"/>
   <path class="fil13" d="M657.01 1999.61c0,2.14 -3.17,3.87 -7.08,3.87 -3.92,0 -7.09,-1.73 -7.09,-3.87 0,-2.14 3.17,-3.88 7.09,-3.88 3.91,0 7.08,1.74 7.08,3.88z"/>
   <path class="fil4" d="M392.81 1810.49c0,0 -18.95,-27.11 14.63,-27.76 33.59,-0.64 11.2,27.76 11.2,27.76 0,0 25.84,-15.49 38.75,-5.16 12.92,10.33 -6.89,20.66 -26.69,17.43 0,0 34.44,6.13 17.53,18.19 -18.42,13.14 -31.31,-5.92 -31.31,-5.92 0,0 15.63,25.07 -10.21,25.07 -25.83,0 -13.9,-25.72 -13.9,-25.72 0,0 -12.25,19.84 -27.56,6.46 -15.5,-13.56 18.08,-15.5 18.08,-15.5 0,0 -32.62,-1.93 -24.49,-17.43 8.13,-15.49 33.97,2.58 33.97,2.58z"/>
   <path class="fil13" d="M414.22 1821.41c0,2.74 -4.05,4.95 -9.04,4.95 -5,0 -9.05,-2.21 -9.05,-4.95 0,-2.73 4.05,-4.95 9.05,-4.95 4.99,0 9.04,2.22 9.04,4.95z"/>
   <path class="fil4" d="M1981.82 2041.83c0,0 -18.95,-27.12 14.64,-27.77 33.58,-0.64 11.19,27.77 11.19,27.77 0,0 25.84,-15.5 38.76,-5.17 12.91,10.33 -6.89,20.66 -26.7,17.43 0,0 34.45,6.14 17.54,18.2 -18.43,13.14 -31.32,-5.93 -31.32,-5.93 0,0 15.63,25.07 -10.21,25.07 -25.83,0 -13.9,-25.71 -13.9,-25.71 0,0 -12.25,19.84 -27.56,6.45 -15.5,-13.56 18.09,-15.49 18.09,-15.49 0,0 -32.63,-1.94 -24.5,-17.44 8.14,-15.49 33.97,2.59 33.97,2.59z"/>
   <path class="fil13" d="M2003.23 2052.74c0,2.74 -4.05,4.95 -9.04,4.95 -4.99,0 -9.04,-2.21 -9.04,-4.95 0,-2.73 4.05,-4.95 9.04,-4.95 4.99,0 9.04,2.22 9.04,4.95z"/>
   <path class="fil4" d="M1276.51 1571.49c0,0 -18.95,-27.12 14.64,-27.76 33.58,-0.65 11.19,27.76 11.19,27.76 0,0 25.84,-15.49 38.75,-5.16 12.92,10.32 -6.89,20.65 -26.69,17.43 0,0 34.44,6.13 17.54,18.19 -18.43,13.14 -31.32,-5.93 -31.32,-5.93 0,0 15.63,25.07 -10.21,25.07 -25.83,0 -13.9,-25.71 -13.9,-25.71 0,0 -12.25,19.84 -27.56,6.45 -15.5,-13.56 18.08,-15.49 18.08,-15.49 0,0 -32.62,-1.94 -24.49,-17.43 8.13,-15.5 33.97,2.58 33.97,2.58z"/>
   <path class="fil13" d="M1297.92 1582.41c0,2.73 -4.05,4.95 -9.04,4.95 -5,0 -9.04,-2.22 -9.04,-4.95 0,-2.74 4.04,-4.96 9.04,-4.96 4.99,0 9.04,2.22 9.04,4.96z"/>
   <path class="fil4" d="M734.39 1738.3c0,0 -12.53,-17.93 9.68,-18.36 22.21,-0.43 7.4,18.36 7.4,18.36 0,0 17.09,-10.25 25.64,-3.41 8.54,6.83 -4.56,13.66 -17.66,11.53 0,0 22.78,4.05 11.6,12.03 -12.19,8.69 -20.71,-3.92 -20.71,-3.92 0,0 10.33,16.58 -6.75,16.58 -17.09,0 -9.2,-17.01 -9.2,-17.01 0,0 -8.1,13.13 -18.23,4.27 -10.25,-8.96 11.96,-10.25 11.96,-10.25 0,0 -21.58,-1.28 -16.2,-11.53 5.38,-10.25 22.47,1.71 22.47,1.71z"/>
   <path class="fil13" d="M748.55 1745.52c0,1.81 -2.68,3.28 -5.98,3.28 -3.3,0 -5.98,-1.47 -5.98,-3.28 0,-1.81 2.68,-3.27 5.98,-3.27 3.3,0 5.98,1.46 5.98,3.27z"/>
   <path class="fil14" d="M874.32 372.97c0,43.7 -35.42,79.12 -79.12,79.12 -43.69,0 -79.12,-35.42 -79.12,-79.12 0,-43.7 35.43,-79.12 79.12,-79.12 43.7,0 79.12,35.42 79.12,79.12z"/>
   <path class="fil4" d="M1038.55 396.96c-56.87,0 -183.68,0 -238.41,0 -54.73,0 -53.39,-44.05 18.69,-34.71 0,0 2.71,-49.38 48.74,-22.69 0,0 4.22,-40.04 44.48,-38.71 40.26,1.34 45.7,30.7 45.7,30.7 0,0 45.29,-30.73 58.64,17.34 0,0 37.55,-37.36 61.49,8.02 0,0 103.23,-13.34 104.3,13.35 1.06,26.7 -143.63,26.7 -143.63,26.7z"/>
   <path class="fil4" d="M1279.85 532.6c-94.78,0 -91.54,-1.52 -91.54,-23.88 0,-22.36 64.39,-12.63 64.39,-12.63 0,0 6.78,-41.82 33.67,-35.51 26.9,6.31 26.92,14.42 26.92,14.42 0,0 16.65,-30.89 43.2,-20.31 26.56,10.57 21.68,37.85 21.68,37.85 0,0 56.8,-18.16 64.92,0 8.11,18.16 -1.63,38.01 -55.18,38.01 -53.55,0 -108.06,2.05 -108.06,2.05z"/>
   <path class="fil4" d="M507.12 516.31c-94.79,0 -91.54,-1.51 -91.54,-23.88 0,-22.36 64.38,-12.62 64.38,-12.62 0,0 6.79,-41.83 33.68,-35.52 26.89,6.31 26.91,14.42 26.91,14.42 0,0 16.65,-30.89 43.21,-20.31 26.55,10.58 21.68,37.85 21.68,37.85 0,0 56.79,-18.16 64.91,0 8.11,18.16 -1.62,38.01 -55.17,38.01 -53.56,0 -108.06,2.05 -108.06,2.05z"/>
   <path class="fil4" d="M1579.98 2013.88c0,0 -14.84,-21.24 11.47,-21.75 26.31,-0.5 8.77,21.75 8.77,21.75 0,0 20.24,-12.14 30.36,-4.04 10.12,8.09 -5.4,16.18 -20.91,13.65 0,0 26.98,4.81 13.73,14.25 -14.43,10.3 -24.53,-4.64 -24.53,-4.64 0,0 12.24,19.64 -7.99,19.64 -20.25,0 -10.9,-20.14 -10.9,-20.14 0,0 -9.6,15.54 -21.59,5.05 -12.14,-10.62 14.17,-12.13 14.17,-12.13 0,0 -25.56,-1.52 -19.19,-13.66 6.37,-12.14 26.61,2.02 26.61,2.02z"/>
   <path class="fil13" d="M1596.76 2022.43c0,2.15 -3.17,3.88 -7.09,3.88 -3.91,0 -7.08,-1.73 -7.08,-3.88 0,-2.14 3.17,-3.88 7.08,-3.88 3.92,0 7.09,1.74 7.09,3.88z"/>
   <path class="fil4" d="M1769.54 1983.57c0,0 -14.84,-21.24 11.47,-21.75 26.31,-0.5 8.77,21.75 8.77,21.75 0,0 20.24,-12.14 30.36,-4.05 10.12,8.1 -5.4,16.19 -20.91,13.66 0,0 26.98,4.81 13.74,14.25 -14.44,10.3 -24.54,-4.64 -24.54,-4.64 0,0 12.24,19.64 -8,19.64 -20.23,0 -10.89,-20.14 -10.89,-20.14 0,0 -9.6,15.54 -21.59,5.05 -12.14,-10.62 14.17,-12.13 14.17,-12.13 0,0 -25.56,-1.52 -19.19,-13.66 6.37,-12.14 26.61,2.02 26.61,2.02z"/>
   <path class="fil13" d="M1786.32 1992.12c0,2.15 -3.17,3.88 -7.09,3.88 -3.91,0 -7.08,-1.73 -7.08,-3.88 0,-2.14 3.17,-3.88 7.08,-3.88 3.92,0 7.09,1.74 7.09,3.88z"/>
   <path class="fil4" d="M1750.6 1555.63c0,0 -12.53,-17.94 9.68,-18.36 22.22,-0.43 7.41,18.36 7.41,18.36 0,0 17.09,-10.25 25.63,-3.42 8.54,6.83 -4.56,13.66 -17.66,11.53 0,0 22.78,4.06 11.6,12.03 -12.19,8.7 -20.71,-3.91 -20.71,-3.91 0,0 10.33,16.58 -6.75,16.58 -17.09,0 -9.2,-17.01 -9.2,-17.01 0,0 -8.1,13.12 -18.23,4.27 -10.25,-8.97 11.97,-10.25 11.97,-10.25 0,0 -21.58,-1.28 -16.21,-11.53 5.38,-10.25 22.47,1.71 22.47,1.71z"/>
   <path class="fil13" d="M1764.76 1562.85c0,1.81 -2.68,3.27 -5.98,3.27 -3.3,0 -5.98,-1.46 -5.98,-3.27 0,-1.81 2.68,-3.28 5.98,-3.28 3.3,0 5.98,1.47 5.98,3.28z"/>
   <path class="fil15" d="M1239.55 1417.74c-125.77,0 -227.72,-28.4 -227.72,-63.43 0,-35.03 101.95,-63.43 227.72,-63.43 125.76,0 227.71,28.4 227.71,63.43 0,35.03 -101.95,63.43 -227.71,63.43z"/>
   <path class="fil16" d="M1257.1 1184.71c0,0 25.71,-1.59 32.9,11.03 7.19,12.63 10.97,34.19 10.97,34.19l-24.23 7.71c0,0 1.7,-22.47 -21.48,-28.68l1.84 -24.25z"/>
   <polygon class="fil17" points="1196.29,1217.23 1259.96,1213.89 1260.38,1180.85 1209.63,1174.88 "/>
   <path class="fil18" d="M1171.13 1290.16c-18.82,-1.43 -32.92,-17.84 -31.5,-36.66 1.43,-18.83 17.85,-32.93 36.67,-31.5 18.82,1.43 32.92,17.84 31.5,36.66 -1.43,18.83 -17.85,32.93 -36.67,31.5zm6.39 -84.32c-27.74,-2.1 -51.94,18.68 -54.04,46.43 -2.11,27.75 18.68,51.94 46.43,54.05 27.74,2.1 51.94,-18.69 54.05,-46.43 2.1,-27.75 -18.69,-51.95 -46.44,-54.05z"/>
   <path class="fil19" d="M1174.71 1243.79c-6.78,-0.52 -12.7,4.57 -13.21,11.35 -0.52,6.78 4.56,12.7 11.35,13.21 6.78,0.52 12.7,-4.56 13.21,-11.35 0.52,-6.78 -4.57,-12.7 -11.35,-13.21z"/>
   <path class="fil4" d="M1174.26 1249.73c-3.5,-0.26 -6.55,2.36 -6.82,5.86 -0.26,3.5 2.36,6.55 5.86,6.82 3.5,0.26 6.55,-2.36 6.82,-5.86 0.26,-3.5 -2.36,-6.55 -5.86,-6.82z"/>
   <path class="fil18" d="M1173.91 1254.36c-0.95,-0.07 -1.77,0.63 -1.84,1.58 -0.07,0.95 0.63,1.77 1.58,1.84 0.95,0.07 1.77,-0.63 1.84,-1.58 0.07,-0.95 -0.64,-1.77 -1.58,-1.84z"/>
   <path class="fil18" d="M1175.1 1238.61c0,0 -0.23,-1.11 -0.32,-2.74 -0.06,-0.81 -0.09,-1.76 -0.08,-2.78 0,-1.01 0.05,-2.09 0.13,-3.17 0.08,-1.08 0.2,-2.15 0.35,-3.16 0.14,-1 0.31,-1.94 0.49,-2.73 0.35,-1.6 0.74,-2.66 0.74,-2.66 0,0 0.23,1.1 0.33,2.74 0.06,0.81 0.09,1.76 0.08,2.78 -0.01,1.01 -0.05,2.09 -0.13,3.17 -0.08,1.08 -0.21,2.15 -0.35,3.16 -0.15,1 -0.32,1.93 -0.5,2.73 -0.34,1.6 -0.74,2.66 -0.74,2.66z"/>
   <path class="fil18" d="M1187.05 1244.71c0,0 0.62,-0.95 1.7,-2.17 0.54,-0.62 1.19,-1.31 1.92,-2.02 0.72,-0.71 1.51,-1.45 2.33,-2.15 0.82,-0.71 1.66,-1.38 2.48,-1.99 0.81,-0.61 1.59,-1.15 2.28,-1.58 1.38,-0.89 2.4,-1.36 2.4,-1.36 0,0 -0.61,0.95 -1.7,2.17 -0.53,0.62 -1.18,1.31 -1.91,2.02 -0.72,0.71 -1.51,1.45 -2.33,2.15 -0.82,0.71 -1.67,1.38 -2.48,1.98 -0.81,0.61 -1.6,1.15 -2.29,1.59 -1.37,0.89 -2.4,1.36 -2.4,1.36z"/>
   <path class="fil18" d="M1191.19 1257.47c0,0 1.1,-0.23 2.73,-0.33 0.82,-0.06 1.77,-0.09 2.78,-0.08 1.02,0.01 2.1,0.05 3.18,0.13 1.07,0.08 2.15,0.2 3.15,0.35 1.01,0.14 1.94,0.31 2.74,0.5 1.6,0.34 2.65,0.73 2.65,0.73 0,0 -1.1,0.24 -2.73,0.34 -0.82,0.05 -1.77,0.08 -2.78,0.07 -1.02,0 -2.1,-0.04 -3.18,-0.13 -1.07,-0.08 -2.15,-0.2 -3.15,-0.35 -1,-0.14 -1.94,-0.31 -2.74,-0.5 -1.6,-0.34 -2.65,-0.73 -2.65,-0.73z"/>
   <path class="fil18" d="M1185.09 1269.42c0,0 0.94,0.61 2.16,1.7 0.62,0.53 1.31,1.19 2.03,1.91 0.71,0.72 1.45,1.51 2.15,2.33 0.7,0.82 1.38,1.67 1.98,2.48 0.61,0.81 1.15,1.6 1.59,2.29 0.89,1.37 1.35,2.4 1.35,2.4 0,0 -0.94,-0.62 -2.17,-1.7 -0.62,-0.54 -1.31,-1.19 -2.02,-1.92 -0.71,-0.72 -1.44,-1.51 -2.15,-2.33 -0.7,-0.82 -1.37,-1.67 -1.98,-2.48 -0.61,-0.81 -1.15,-1.59 -1.59,-2.29 -0.88,-1.37 -1.35,-2.39 -1.35,-2.39z"/>
   <path class="fil18" d="M1172.33 1273.55c0,0 0.23,1.1 0.32,2.74 0.06,0.81 0.09,1.76 0.08,2.78 0,1.01 -0.04,2.09 -0.13,3.17 -0.08,1.08 -0.2,2.15 -0.35,3.16 -0.14,1 -0.31,1.93 -0.49,2.73 -0.34,1.6 -0.74,2.66 -0.74,2.66 0,0 -0.23,-1.11 -0.33,-2.74 -0.06,-0.81 -0.09,-1.76 -0.08,-2.78 0.01,-1.01 0.05,-2.09 0.13,-3.17 0.08,-1.08 0.21,-2.15 0.35,-3.16 0.15,-1 0.32,-1.94 0.5,-2.73 0.34,-1.6 0.74,-2.66 0.74,-2.66z"/>
   <path class="fil18" d="M1160.38 1267.45c0,0 -0.62,0.94 -1.7,2.17 -0.54,0.62 -1.19,1.31 -1.92,2.02 -0.72,0.71 -1.51,1.45 -2.33,2.15 -0.82,0.71 -1.66,1.38 -2.48,1.99 -0.81,0.61 -1.59,1.15 -2.29,1.58 -1.37,0.89 -2.39,1.35 -2.39,1.35 0,0 0.61,-0.94 1.7,-2.16 0.53,-0.62 1.18,-1.31 1.91,-2.02 0.72,-0.72 1.51,-1.45 2.34,-2.15 0.81,-0.71 1.66,-1.38 2.48,-1.99 0.81,-0.61 1.59,-1.15 2.28,-1.58 1.37,-0.89 2.4,-1.36 2.4,-1.36z"/>
   <path class="fil18" d="M1156.24 1254.69c0,0 -1.1,0.23 -2.73,0.33 -0.82,0.06 -1.77,0.09 -2.78,0.07 -1.02,0 -2.1,-0.04 -3.17,-0.12 -1.08,-0.08 -2.16,-0.2 -3.16,-0.35 -1,-0.14 -1.94,-0.32 -2.74,-0.5 -1.6,-0.34 -2.65,-0.74 -2.65,-0.74 0,0 1.1,-0.23 2.73,-0.33 0.82,-0.06 1.77,-0.08 2.78,-0.07 1.02,0 2.1,0.05 3.18,0.13 1.07,0.08 2.15,0.2 3.15,0.35 1.01,0.14 1.94,0.31 2.74,0.49 1.6,0.35 2.65,0.74 2.65,0.74z"/>
   <path class="fil18" d="M1162.34 1242.74c0,0 -0.94,-0.61 -2.16,-1.7 -0.62,-0.54 -1.31,-1.19 -2.02,-1.91 -0.72,-0.72 -1.45,-1.51 -2.16,-2.34 -0.7,-0.81 -1.37,-1.66 -1.98,-2.47 -0.61,-0.81 -1.15,-1.6 -1.59,-2.29 -0.88,-1.37 -1.35,-2.4 -1.35,-2.4 0,0 0.94,0.62 2.17,1.7 0.62,0.54 1.31,1.19 2.02,1.91 0.71,0.73 1.45,1.52 2.15,2.34 0.7,0.82 1.37,1.66 1.98,2.48 0.61,0.81 1.15,1.59 1.59,2.29 0.88,1.37 1.35,2.39 1.35,2.39z"/>
   <path class="fil18" d="M1181.41 1240.33c0,0 0.19,-1.11 0.7,-2.66 0.24,-0.78 0.56,-1.68 0.95,-2.62 0.37,-0.94 0.8,-1.93 1.27,-2.9 0.48,-0.98 0.98,-1.93 1.49,-2.81 0.5,-0.88 1,-1.69 1.46,-2.37 0.91,-1.36 1.66,-2.2 1.66,-2.2 0,0 -0.19,1.11 -0.69,2.67 -0.25,0.78 -0.57,1.67 -0.95,2.62 -0.38,0.94 -0.81,1.93 -1.28,2.9 -0.47,0.97 -0.98,1.92 -1.49,2.81 -0.5,0.88 -1,1.69 -1.46,2.36 -0.91,1.36 -1.66,2.2 -1.66,2.2z"/>
   <path class="fil18" d="M1190.29 1250.38c0,0 0.92,-0.65 2.38,-1.39 0.72,-0.38 1.58,-0.78 2.52,-1.18 0.93,-0.4 1.94,-0.79 2.96,-1.15 1.02,-0.35 2.05,-0.67 3.03,-0.93 0.98,-0.27 1.91,-0.49 2.71,-0.64 1.6,-0.32 2.73,-0.38 2.73,-0.38 0,0 -0.92,0.65 -2.38,1.39 -0.72,0.38 -1.58,0.79 -2.52,1.18 -0.93,0.4 -1.94,0.79 -2.96,1.15 -1.02,0.35 -2.05,0.67 -3.03,0.93 -0.98,0.27 -1.91,0.49 -2.71,0.64 -1.6,0.32 -2.73,0.38 -2.73,0.38z"/>
   <path class="fil18" d="M1189.47 1263.77c0,0 1.1,0.19 2.66,0.7 0.78,0.24 1.67,0.57 2.62,0.95 0.94,0.38 1.93,0.81 2.9,1.28 0.97,0.47 1.93,0.97 2.81,1.48 0.88,0.5 1.69,1 2.36,1.46 1.37,0.91 2.2,1.66 2.2,1.66 0,0 -1.11,-0.18 -2.66,-0.69 -0.79,-0.24 -1.68,-0.57 -2.62,-0.95 -0.94,-0.37 -1.93,-0.81 -2.9,-1.28 -0.98,-0.47 -1.93,-0.98 -2.81,-1.48 -0.88,-0.51 -1.69,-1.01 -2.37,-1.47 -1.36,-0.9 -2.19,-1.66 -2.19,-1.66z"/>
   <path class="fil18" d="M1179.41 1272.66c0,0 0.65,0.91 1.39,2.37 0.38,0.73 0.79,1.59 1.18,2.52 0.4,0.94 0.8,1.94 1.15,2.96 0.36,1.02 0.67,2.05 0.94,3.04 0.27,0.98 0.48,1.9 0.64,2.7 0.32,1.61 0.38,2.73 0.38,2.73 0,0 -0.66,-0.92 -1.4,-2.37 -0.38,-0.73 -0.78,-1.59 -1.18,-2.52 -0.4,-0.94 -0.79,-1.94 -1.14,-2.96 -0.36,-1.03 -0.67,-2.06 -0.94,-3.04 -0.27,-0.98 -0.48,-1.9 -0.64,-2.71 -0.32,-1.6 -0.38,-2.72 -0.38,-2.72z"/>
   <path class="fil18" d="M1166.02 1271.83c0,0 -0.19,1.11 -0.7,2.66 -0.24,0.78 -0.56,1.68 -0.94,2.62 -0.38,0.94 -0.81,1.93 -1.28,2.9 -0.47,0.98 -0.98,1.93 -1.49,2.81 -0.5,0.88 -1,1.69 -1.46,2.37 -0.9,1.36 -1.66,2.19 -1.66,2.19 0,0 0.19,-1.1 0.69,-2.66 0.25,-0.78 0.57,-1.68 0.95,-2.61 0.38,-0.95 0.81,-1.94 1.28,-2.91 0.48,-0.97 0.99,-1.93 1.49,-2.81 0.5,-0.88 1,-1.69 1.46,-2.36 0.91,-1.36 1.66,-2.2 1.66,-2.2z"/>
   <path class="fil18" d="M1157.14 1261.78c0,0 -0.92,0.64 -2.38,1.39 -0.72,0.37 -1.58,0.78 -2.52,1.18 -0.93,0.39 -1.94,0.79 -2.96,1.14 -1.02,0.36 -2.05,0.68 -3.03,0.94 -0.98,0.27 -1.9,0.49 -2.71,0.64 -1.6,0.32 -2.73,0.38 -2.73,0.38 0,0 0.92,-0.65 2.38,-1.39 0.73,-0.38 1.58,-0.79 2.52,-1.18 0.93,-0.4 1.94,-0.8 2.96,-1.15 1.02,-0.36 2.05,-0.67 3.03,-0.93 0.98,-0.27 1.91,-0.49 2.71,-0.64 1.6,-0.33 2.73,-0.38 2.73,-0.38z"/>
   <path class="fil18" d="M1157.97 1248.38c0,0 -1.11,-0.18 -2.67,-0.69 -0.78,-0.25 -1.67,-0.57 -2.61,-0.95 -0.95,-0.38 -1.94,-0.81 -2.91,-1.28 -0.97,-0.47 -1.93,-0.98 -2.8,-1.48 -0.89,-0.5 -1.7,-1 -2.37,-1.47 -1.36,-0.9 -2.2,-1.66 -2.2,-1.66 0,0 1.11,0.19 2.66,0.7 0.79,0.24 1.68,0.56 2.62,0.95 0.94,0.37 1.93,0.81 2.9,1.28 0.98,0.47 1.93,0.98 2.81,1.48 0.88,0.5 1.69,1.01 2.37,1.47 1.36,0.9 2.2,1.65 2.2,1.65z"/>
   <path class="fil18" d="M1168.02 1239.5c0,0 -0.65,-0.91 -1.39,-2.37 -0.38,-0.73 -0.79,-1.59 -1.18,-2.52 -0.4,-0.94 -0.79,-1.94 -1.15,-2.96 -0.35,-1.02 -0.67,-2.06 -0.94,-3.04 -0.27,-0.97 -0.48,-1.9 -0.64,-2.71 -0.32,-1.6 -0.37,-2.72 -0.37,-2.72 0,0 0.65,0.92 1.39,2.37 0.38,0.73 0.79,1.59 1.18,2.52 0.4,0.94 0.79,1.94 1.14,2.96 0.36,1.02 0.67,2.06 0.94,3.04 0.27,0.98 0.48,1.9 0.64,2.71 0.32,1.6 0.38,2.72 0.38,2.72z"/>
   <polygon class="fil20" points="1142.76,1344.52 1203.08,1270.51 1204.16,1256.24 1143.9,1332.3 "/>
   <polygon class="fil21" points="1128.6,1256.89 1069.59,1326.66 1143.9,1332.3 1204.16,1256.24 1133.72,1250.91 "/>
   <polygon class="fil22" points="1069.59,1326.66 1068.66,1338.9 1142.76,1344.52 1143.9,1332.3 "/>
   <path class="fil23" d="M1339.63 1176.1c0,0 -69.08,10.08 -208.24,106.83 0,0 14.92,25.89 47.54,0.99 56.17,-42.87 95.87,-73.86 161.24,-82.34 0,0 9.41,-26.06 -0.54,-25.48z"/>
   <path class="fil18" d="M1330.95 1377.06c-34.35,-2.6 -60.09,-32.57 -57.49,-66.93 2.6,-34.36 32.57,-60.1 66.93,-57.49 34.36,2.6 60.1,32.57 57.49,66.93 -2.6,34.35 -32.57,60.09 -66.93,57.49zm11.05 -145.71c-46.11,-3.49 -86.33,31.05 -89.83,77.17 -3.49,46.11 31.06,86.33 77.17,89.83 46.12,3.49 86.33,-31.06 89.83,-77.17 3.49,-46.12 -31.05,-86.33 -77.17,-89.83z"/>
   <path class="fil24" d="M1337.33 1294.42c-11.28,-0.85 -21.11,7.59 -21.96,18.87 -0.86,11.27 7.59,21.1 18.86,21.96 11.27,0.85 21.11,-7.6 21.96,-18.87 0.86,-11.27 -7.59,-21.1 -18.86,-21.96z"/>
   <path class="fil4" d="M1336.58 1304.3c-5.82,-0.44 -10.89,3.92 -11.33,9.74 -0.44,5.81 3.91,10.89 9.73,11.33 5.82,0.44 10.89,-3.92 11.33,-9.74 0.44,-5.81 -3.92,-10.89 -9.73,-11.33z"/>
   <path class="fil18" d="M1335.99 1311.99c-1.57,-0.12 -2.94,1.06 -3.06,2.63 -0.12,1.57 1.06,2.94 2.63,3.06 1.57,0.12 2.95,-1.06 3.06,-2.63 0.12,-1.57 -1.05,-2.94 -2.63,-3.06z"/>
   <path class="fil18" d="M1337.98 1285.81c0,0 -0.38,-1.83 -0.55,-4.55 -0.09,-1.35 -0.14,-2.93 -0.12,-4.62 0.01,-1.69 0.07,-3.48 0.21,-5.27 0.13,-1.79 0.33,-3.58 0.58,-5.25 0.24,-1.66 0.52,-3.22 0.82,-4.55 0.57,-2.65 1.23,-4.4 1.23,-4.4 0,0 0.39,1.83 0.55,4.54 0.1,1.36 0.15,2.94 0.13,4.62 -0.01,1.69 -0.08,3.48 -0.22,5.27 -0.13,1.79 -0.34,3.58 -0.58,5.25 -0.24,1.67 -0.52,3.22 -0.83,4.55 -0.57,2.66 -1.22,4.41 -1.22,4.41z"/>
   <path class="fil18" d="M1357.84 1295.94c0,0 1.02,-1.56 2.83,-3.59 0.89,-1.03 1.97,-2.18 3.17,-3.36 1.21,-1.19 2.52,-2.41 3.88,-3.58 1.36,-1.17 2.77,-2.29 4.12,-3.3 1.35,-1.01 2.65,-1.91 3.8,-2.63 2.28,-1.48 3.98,-2.25 3.98,-2.25 0,0 -1.02,1.56 -2.82,3.6 -0.89,1.03 -1.97,2.18 -3.18,3.36 -1.2,1.18 -2.52,2.4 -3.88,3.58 -1.36,1.16 -2.77,2.28 -4.12,3.29 -1.35,1.01 -2.65,1.91 -3.8,2.64 -2.28,1.47 -3.98,2.24 -3.98,2.24z"/>
   <path class="fil18" d="M1364.71 1317.16c0,0 1.83,-0.39 4.55,-0.55 1.35,-0.1 2.93,-0.14 4.62,-0.13 1.68,0.01 3.48,0.08 5.27,0.22 1.79,0.13 3.58,0.33 5.24,0.58 1.67,0.23 3.23,0.52 4.56,0.82 2.65,0.57 4.4,1.23 4.4,1.23 0,0 -1.83,0.38 -4.54,0.55 -1.36,0.1 -2.94,0.14 -4.62,0.12 -1.69,0 -3.48,-0.07 -5.27,-0.21 -1.79,-0.13 -3.58,-0.34 -5.25,-0.59 -1.67,-0.23 -3.22,-0.52 -4.55,-0.82 -2.66,-0.57 -4.41,-1.22 -4.41,-1.22z"/>
   <path class="fil18" d="M1354.57 1337.02c0,0 1.57,1.02 3.6,2.82 1.03,0.89 2.18,1.98 3.36,3.18 1.19,1.2 2.41,2.52 3.58,3.88 1.17,1.36 2.29,2.76 3.29,4.12 1.02,1.35 1.92,2.65 2.64,3.8 1.48,2.28 2.25,3.98 2.25,3.98 0,0 -1.57,-1.02 -3.6,-2.82 -1.03,-0.89 -2.18,-1.97 -3.36,-3.18 -1.19,-1.2 -2.4,-2.52 -3.57,-3.88 -1.18,-1.36 -2.29,-2.77 -3.3,-4.12 -1.01,-1.35 -1.91,-2.65 -2.63,-3.8 -1.48,-2.28 -2.26,-3.98 -2.26,-3.98z"/>
   <path class="fil18" d="M1333.36 1343.89c0,0 0.38,1.83 0.55,4.54 0.1,1.36 0.14,2.94 0.13,4.63 -0.01,1.68 -0.08,3.48 -0.21,5.27 -0.14,1.79 -0.34,3.57 -0.59,5.24 -0.23,1.67 -0.52,3.23 -0.82,4.55 -0.57,2.66 -1.23,4.41 -1.23,4.41 0,0 -0.38,-1.83 -0.55,-4.54 -0.1,-1.36 -0.14,-2.94 -0.12,-4.62 0,-1.69 0.07,-3.49 0.21,-5.28 0.13,-1.79 0.34,-3.57 0.59,-5.24 0.23,-1.67 0.52,-3.22 0.82,-4.55 0.57,-2.66 1.22,-4.41 1.22,-4.41z"/>
   <path class="fil18" d="M1313.5 1333.75c0,0 -1.02,1.56 -2.82,3.6 -0.89,1.03 -1.98,2.18 -3.18,3.36 -1.2,1.18 -2.52,2.41 -3.88,3.58 -1.36,1.17 -2.76,2.29 -4.12,3.29 -1.35,1.02 -2.65,1.92 -3.8,2.64 -2.28,1.48 -3.98,2.25 -3.98,2.25 0,0 1.02,-1.57 2.82,-3.6 0.89,-1.03 1.97,-2.18 3.18,-3.36 1.2,-1.19 2.52,-2.41 3.88,-3.58 1.36,-1.17 2.77,-2.28 4.12,-3.29 1.35,-1.01 2.65,-1.91 3.8,-2.64 2.28,-1.47 3.98,-2.25 3.98,-2.25z"/>
   <path class="fil18" d="M1306.63 1312.54c0,0 -1.83,0.38 -4.54,0.55 -1.36,0.09 -2.94,0.14 -4.63,0.12 -1.68,-0.01 -3.48,-0.07 -5.27,-0.21 -1.79,-0.13 -3.57,-0.33 -5.24,-0.58 -1.67,-0.24 -3.23,-0.52 -4.55,-0.82 -2.66,-0.57 -4.41,-1.23 -4.41,-1.23 0,0 1.83,-0.38 4.54,-0.55 1.36,-0.1 2.94,-0.15 4.63,-0.13 1.68,0.01 3.48,0.08 5.27,0.22 1.79,0.13 3.57,0.34 5.24,0.59 1.67,0.23 3.22,0.51 4.55,0.82 2.66,0.57 4.41,1.22 4.41,1.22z"/>
   <path class="fil18" d="M1316.77 1292.68c0,0 -1.56,-1.02 -3.6,-2.82 -1.03,-0.9 -2.18,-1.98 -3.36,-3.18 -1.18,-1.2 -2.41,-2.52 -3.58,-3.88 -1.17,-1.36 -2.29,-2.77 -3.29,-4.12 -1.02,-1.35 -1.92,-2.65 -2.64,-3.8 -1.48,-2.28 -2.25,-3.99 -2.25,-3.99 0,0 1.57,1.03 3.6,2.83 1.03,0.89 2.18,1.97 3.36,3.18 1.19,1.2 2.41,2.51 3.58,3.88 1.17,1.36 2.28,2.77 3.29,4.12 1.01,1.35 1.91,2.65 2.64,3.8 1.47,2.28 2.25,3.98 2.25,3.98z"/>
   <path class="fil18" d="M1348.46 1288.67c0,0 0.32,-1.84 1.16,-4.42 0.4,-1.3 0.94,-2.79 1.57,-4.35 0.63,-1.57 1.35,-3.21 2.13,-4.83 0.78,-1.62 1.62,-3.2 2.46,-4.67 0.84,-1.46 1.67,-2.8 2.44,-3.93 1.5,-2.26 2.76,-3.65 2.76,-3.65 0,0 -0.32,1.84 -1.16,4.43 -0.4,1.3 -0.94,2.78 -1.57,4.35 -0.63,1.56 -1.35,3.21 -2.14,4.82 -0.78,1.62 -1.62,3.2 -2.46,4.67 -0.83,1.46 -1.67,2.81 -2.44,3.93 -1.5,2.26 -2.75,3.65 -2.75,3.65z"/>
   <path class="fil18" d="M1363.22 1305.38c0,0 1.53,-1.08 3.95,-2.31 1.21,-0.63 2.64,-1.3 4.19,-1.96 1.55,-0.66 3.22,-1.32 4.92,-1.91 1.7,-0.59 3.41,-1.12 5.04,-1.56 1.62,-0.45 3.16,-0.8 4.5,-1.06 2.67,-0.53 4.53,-0.63 4.53,-0.63 0,0 -1.52,1.08 -3.94,2.32 -1.21,0.63 -2.64,1.3 -4.19,1.96 -1.55,0.66 -3.23,1.31 -4.92,1.9 -1.7,0.59 -3.42,1.11 -5.05,1.56 -1.62,0.44 -3.16,0.8 -4.5,1.06 -2.66,0.53 -4.53,0.63 -4.53,0.63z"/>
   <path class="fil18" d="M1361.85 1327.64c0,0 1.84,0.31 4.42,1.16 1.3,0.4 2.79,0.94 4.35,1.57 1.57,0.63 3.21,1.34 4.83,2.13 1.62,0.78 3.2,1.62 4.67,2.46 1.46,0.83 2.8,1.67 3.93,2.43 2.26,1.51 3.65,2.76 3.65,2.76 0,0 -1.84,-0.31 -4.43,-1.15 -1.3,-0.41 -2.79,-0.94 -4.34,-1.58 -1.57,-0.62 -3.22,-1.35 -4.83,-2.13 -1.62,-0.78 -3.2,-1.63 -4.67,-2.47 -1.46,-0.83 -2.8,-1.66 -3.93,-2.43 -2.26,-1.5 -3.65,-2.75 -3.65,-2.75z"/>
   <path class="fil18" d="M1345.14 1342.4c0,0 1.08,1.53 2.31,3.95 0.63,1.21 1.3,2.63 1.96,4.19 0.66,1.55 1.32,3.22 1.91,4.92 0.59,1.69 1.12,3.41 1.56,5.04 0.45,1.62 0.8,3.16 1.06,4.5 0.53,2.66 0.63,4.53 0.63,4.53 0,0 -1.08,-1.52 -2.32,-3.94 -0.63,-1.21 -1.3,-2.64 -1.96,-4.2 -0.66,-1.55 -1.31,-3.22 -1.9,-4.92 -0.59,-1.69 -1.11,-3.41 -1.56,-5.04 -0.44,-1.62 -0.8,-3.16 -1.06,-4.5 -0.53,-2.66 -0.63,-4.53 -0.63,-4.53z"/>
   <path class="fil18" d="M1322.88 1341.03c0,0 -0.31,1.84 -1.15,4.42 -0.41,1.3 -0.95,2.79 -1.58,4.35 -0.63,1.57 -1.34,3.21 -2.13,4.83 -0.78,1.61 -1.62,3.2 -2.46,4.66 -0.83,1.47 -1.67,2.81 -2.43,3.94 -1.51,2.26 -2.76,3.65 -2.76,3.65 0,0 0.31,-1.85 1.15,-4.43 0.41,-1.3 0.94,-2.79 1.58,-4.35 0.62,-1.57 1.35,-3.21 2.13,-4.83 0.78,-1.61 1.63,-3.2 2.47,-4.66 0.83,-1.47 1.66,-2.81 2.43,-3.93 1.5,-2.27 2.75,-3.65 2.75,-3.65z"/>
   <path class="fil18" d="M1308.12 1324.32c0,0 -1.53,1.07 -3.95,2.31 -1.21,0.63 -2.63,1.3 -4.19,1.96 -1.55,0.66 -3.22,1.32 -4.92,1.9 -1.69,0.6 -3.41,1.12 -5.04,1.56 -1.62,0.45 -3.16,0.81 -4.5,1.06 -2.66,0.54 -4.53,0.64 -4.53,0.64 0,0 1.52,-1.09 3.95,-2.32 1.2,-0.63 2.63,-1.3 4.18,-1.96 1.56,-0.67 3.23,-1.32 4.92,-1.91 1.7,-0.59 3.42,-1.11 5.05,-1.55 1.62,-0.45 3.16,-0.81 4.5,-1.06 2.66,-0.54 4.53,-0.63 4.53,-0.63z"/>
   <path class="fil18" d="M1309.49 1302.06c0,0 -1.84,-0.32 -4.42,-1.16 -1.3,-0.4 -2.79,-0.94 -4.35,-1.57 -1.57,-0.63 -3.21,-1.35 -4.83,-2.13 -1.61,-0.78 -3.2,-1.62 -4.66,-2.46 -1.47,-0.84 -2.81,-1.67 -3.94,-2.44 -2.26,-1.5 -3.65,-2.76 -3.65,-2.76 0,0 1.85,0.32 4.43,1.16 1.3,0.4 2.79,0.94 4.35,1.57 1.57,0.63 3.21,1.35 4.82,2.14 1.62,0.78 3.21,1.62 4.67,2.46 1.47,0.83 2.81,1.67 3.93,2.44 2.27,1.5 3.65,2.75 3.65,2.75z"/>
   <path class="fil18" d="M1326.21 1287.3c0,0 -1.09,-1.53 -2.32,-3.95 -0.63,-1.21 -1.3,-2.63 -1.96,-4.19 -0.66,-1.55 -1.32,-3.22 -1.91,-4.92 -0.59,-1.69 -1.12,-3.41 -1.55,-5.04 -0.45,-1.63 -0.81,-3.16 -1.06,-4.5 -0.54,-2.67 -0.64,-4.53 -0.64,-4.53 0,0 1.09,1.52 2.32,3.94 0.63,1.21 1.3,2.64 1.96,4.19 0.67,1.55 1.32,3.22 1.91,4.92 0.59,1.7 1.11,3.41 1.55,5.05 0.45,1.62 0.81,3.16 1.06,4.5 0.54,2.66 0.64,4.53 0.64,4.53z"/>
   <path class="fil18" d="M1103.88 1372.97c-20.56,-1.56 -35.97,-19.5 -34.41,-40.06 1.56,-20.56 19.49,-35.96 40.05,-34.41 20.57,1.56 35.97,19.5 34.41,40.06 -1.56,20.56 -19.49,35.96 -40.05,34.41zm6.98 -92.12c-30.31,-2.3 -56.75,20.41 -59.04,50.72 -2.3,30.31 20.41,56.75 50.72,59.05 30.31,2.3 56.75,-20.41 59.05,-50.72 2.29,-30.32 -20.42,-56.75 -50.73,-59.05z"/>
   <path class="fil19" d="M1107.79 1322.31c-7.41,-0.56 -13.87,4.99 -14.43,12.4 -0.57,7.41 4.98,13.87 12.39,14.43 7.42,0.56 13.88,-4.99 14.44,-12.4 0.56,-7.41 -4.99,-13.87 -12.4,-14.43z"/>
   <path class="fil4" d="M1107.3 1328.8c-3.83,-0.29 -7.16,2.58 -7.45,6.4 -0.29,3.83 2.58,7.16 6.4,7.45 3.82,0.29 7.16,-2.58 7.44,-6.4 0.29,-3.82 -2.57,-7.16 -6.39,-7.45z"/>
   <path class="fil18" d="M1106.91 1333.85c-1.03,-0.07 -1.93,0.7 -2.01,1.73 -0.08,1.04 0.7,1.94 1.73,2.02 1.03,0.08 1.93,-0.7 2.01,-1.73 0.08,-1.04 -0.69,-1.94 -1.73,-2.02z"/>
   <path class="fil18" d="M1108.22 1316.65c0,0 -0.25,-1.21 -0.36,-2.99 -0.06,-0.89 -0.09,-1.93 -0.08,-3.04 0,-1.11 0.05,-2.29 0.13,-3.46 0.09,-1.18 0.23,-2.35 0.39,-3.45 0.15,-1.1 0.34,-2.12 0.54,-2.99 0.38,-1.75 0.81,-2.9 0.81,-2.9 0,0 0.25,1.2 0.36,2.99 0.06,0.89 0.09,1.93 0.08,3.03 0,1.11 -0.05,2.3 -0.14,3.47 -0.09,1.18 -0.23,2.35 -0.39,3.45 -0.15,1.09 -0.34,2.12 -0.54,2.99 -0.37,1.75 -0.8,2.9 -0.8,2.9z"/>
   <path class="fil18" d="M1121.27 1323.31c0,0 0.67,-1.03 1.86,-2.37 0.59,-0.67 1.3,-1.43 2.09,-2.2 0.79,-0.78 1.65,-1.59 2.55,-2.36 0.89,-0.76 1.82,-1.5 2.71,-2.16 0.88,-0.67 1.74,-1.26 2.49,-1.73 1.51,-0.97 2.62,-1.48 2.62,-1.48 0,0 -0.67,1.03 -1.85,2.36 -0.59,0.68 -1.3,1.44 -2.09,2.21 -0.79,0.78 -1.66,1.58 -2.55,2.35 -0.9,0.77 -1.82,1.5 -2.71,2.17 -0.89,0.66 -1.74,1.25 -2.5,1.73 -1.5,0.97 -2.62,1.48 -2.62,1.48z"/>
   <path class="fil18" d="M1125.79 1337.25c0,0 1.2,-0.25 2.99,-0.36 0.89,-0.06 1.93,-0.09 3.03,-0.08 1.11,0.01 2.29,0.05 3.47,0.14 1.18,0.09 2.35,0.22 3.45,0.38 1.1,0.16 2.12,0.35 2.99,0.54 1.75,0.38 2.9,0.81 2.9,0.81 0,0 -1.21,0.25 -2.99,0.36 -0.89,0.07 -1.93,0.1 -3.04,0.08 -1.11,0 -2.29,-0.05 -3.46,-0.14 -1.18,-0.09 -2.35,-0.22 -3.45,-0.38 -1.1,-0.16 -2.12,-0.34 -2.99,-0.54 -1.75,-0.38 -2.9,-0.81 -2.9,-0.81z"/>
   <path class="fil18" d="M1119.13 1350.3c0,0 1.02,0.68 2.36,1.86 0.68,0.59 1.43,1.3 2.21,2.09 0.78,0.79 1.58,1.66 2.35,2.55 0.77,0.9 1.51,1.82 2.17,2.71 0.67,0.88 1.25,1.74 1.73,2.5 0.97,1.5 1.48,2.62 1.48,2.62 0,0 -1.03,-0.67 -2.37,-1.86 -0.67,-0.59 -1.43,-1.3 -2.21,-2.09 -0.78,-0.79 -1.58,-1.65 -2.35,-2.55 -0.76,-0.89 -1.5,-1.82 -2.16,-2.71 -0.67,-0.88 -1.26,-1.74 -1.73,-2.5 -0.97,-1.5 -1.48,-2.62 -1.48,-2.62z"/>
   <path class="fil18" d="M1105.19 1354.83c0,0 0.25,1.2 0.35,2.98 0.07,0.89 0.1,1.93 0.09,3.04 -0.01,1.11 -0.05,2.29 -0.14,3.46 -0.09,1.18 -0.22,2.35 -0.39,3.45 -0.15,1.1 -0.34,2.12 -0.54,2.99 -0.37,1.75 -0.8,2.9 -0.8,2.9 0,0 -0.26,-1.2 -0.36,-2.98 -0.07,-0.9 -0.1,-1.94 -0.09,-3.04 0.01,-1.11 0.05,-2.29 0.14,-3.47 0.09,-1.18 0.23,-2.35 0.39,-3.45 0.16,-1.09 0.34,-2.11 0.54,-2.99 0.37,-1.74 0.81,-2.89 0.81,-2.89z"/>
   <path class="fil18" d="M1092.13 1348.16c0,0 -0.67,1.03 -1.86,2.36 -0.58,0.68 -1.29,1.44 -2.09,2.21 -0.78,0.78 -1.65,1.59 -2.54,2.36 -0.9,0.77 -1.82,1.5 -2.71,2.16 -0.89,0.67 -1.74,1.26 -2.5,1.73 -1.5,0.97 -2.62,1.48 -2.62,1.48 0,0 0.67,-1.03 1.86,-2.36 0.58,-0.68 1.29,-1.44 2.09,-2.21 0.78,-0.78 1.65,-1.58 2.55,-2.35 0.89,-0.77 1.82,-1.5 2.71,-2.17 0.88,-0.66 1.74,-1.25 2.49,-1.73 1.5,-0.97 2.62,-1.48 2.62,-1.48z"/>
   <path class="fil18" d="M1087.61 1334.22c0,0 -1.2,0.25 -2.98,0.36 -0.9,0.06 -1.93,0.09 -3.04,0.08 -1.11,-0.01 -2.29,-0.05 -3.47,-0.14 -1.17,-0.09 -2.35,-0.22 -3.44,-0.38 -1.1,-0.16 -2.12,-0.34 -3,-0.54 -1.74,-0.38 -2.89,-0.81 -2.89,-0.81 0,0 1.2,-0.25 2.98,-0.36 0.89,-0.07 1.93,-0.1 3.04,-0.08 1.11,0 2.29,0.05 3.47,0.14 1.17,0.09 2.35,0.22 3.44,0.38 1.1,0.16 2.12,0.34 3,0.54 1.74,0.38 2.89,0.81 2.89,0.81z"/>
   <path class="fil18" d="M1094.28 1321.17c0,0 -1.03,-0.68 -2.37,-1.86 -0.67,-0.59 -1.43,-1.3 -2.21,-2.09 -0.78,-0.79 -1.58,-1.65 -2.35,-2.55 -0.77,-0.9 -1.51,-1.82 -2.17,-2.71 -0.66,-0.89 -1.25,-1.74 -1.73,-2.5 -0.97,-1.5 -1.48,-2.62 -1.48,-2.62 0,0 1.03,0.67 2.37,1.86 0.68,0.58 1.43,1.3 2.21,2.09 0.78,0.79 1.58,1.65 2.35,2.55 0.77,0.89 1.5,1.82 2.16,2.71 0.67,0.89 1.26,1.74 1.74,2.5 0.97,1.5 1.48,2.62 1.48,2.62z"/>
   <path class="fil18" d="M1115.11 1318.53c0,0 0.21,-1.21 0.76,-2.91 0.26,-0.85 0.62,-1.83 1.03,-2.86 0.42,-1.03 0.89,-2.11 1.4,-3.17 0.52,-1.06 1.07,-2.11 1.62,-3.07 0.55,-0.96 1.1,-1.85 1.6,-2.58 0.99,-1.49 1.81,-2.4 1.81,-2.4 0,0 -0.2,1.21 -0.75,2.91 -0.27,0.85 -0.62,1.83 -1.04,2.85 -0.41,1.04 -0.89,2.12 -1.4,3.18 -0.52,1.06 -1.07,2.1 -1.62,3.06 -0.55,0.97 -1.1,1.85 -1.6,2.59 -0.99,1.49 -1.81,2.4 -1.81,2.4z"/>
   <path class="fil18" d="M1124.81 1329.51c0,0 1,-0.71 2.6,-1.52 0.79,-0.41 1.73,-0.85 2.75,-1.29 1.02,-0.43 2.12,-0.86 3.23,-1.25 1.12,-0.39 2.25,-0.73 3.32,-1.03 1.07,-0.29 2.08,-0.53 2.96,-0.69 1.75,-0.35 2.98,-0.42 2.98,-0.42 0,0 -1.01,0.72 -2.6,1.52 -0.79,0.42 -1.73,0.86 -2.75,1.29 -1.02,0.44 -2.12,0.87 -3.24,1.26 -1.11,0.38 -2.24,0.73 -3.31,1.02 -1.07,0.29 -2.08,0.53 -2.96,0.69 -1.75,0.36 -2.98,0.42 -2.98,0.42z"/>
   <path class="fil18" d="M1123.91 1344.14c0,0 1.21,0.21 2.91,0.76 0.85,0.27 1.83,0.62 2.86,1.04 1.02,0.41 2.11,0.88 3.17,1.4 1.06,0.51 2.1,1.06 3.07,1.61 0.96,0.55 1.84,1.1 2.58,1.61 1.49,0.98 2.4,1.81 2.4,1.81 0,0 -1.21,-0.21 -2.91,-0.76 -0.85,-0.27 -1.83,-0.62 -2.86,-1.04 -1.03,-0.41 -2.11,-0.88 -3.17,-1.4 -1.06,-0.51 -2.1,-1.07 -3.07,-1.62 -0.96,-0.54 -1.84,-1.1 -2.58,-1.6 -1.49,-0.99 -2.4,-1.81 -2.4,-1.81z"/>
   <path class="fil18" d="M1112.92 1353.85c0,0 0.71,1 1.52,2.59 0.42,0.79 0.86,1.73 1.29,2.75 0.44,1.02 0.87,2.12 1.26,3.24 0.39,1.11 0.73,2.24 1.02,3.31 0.3,1.07 0.53,2.08 0.7,2.96 0.35,1.75 0.41,2.98 0.41,2.98 0,0 -0.71,-1 -1.52,-2.6 -0.41,-0.79 -0.86,-1.73 -1.29,-2.75 -0.43,-1.02 -0.86,-2.12 -1.25,-3.23 -0.39,-1.12 -0.73,-2.25 -1.02,-3.32 -0.3,-1.07 -0.53,-2.08 -0.7,-2.96 -0.35,-1.75 -0.42,-2.97 -0.42,-2.97z"/>
   <path class="fil18" d="M1098.3 1352.94c0,0 -0.21,1.21 -0.77,2.91 -0.26,0.85 -0.62,1.83 -1.03,2.86 -0.41,1.03 -0.89,2.11 -1.4,3.17 -0.51,1.07 -1.07,2.11 -1.62,3.07 -0.55,0.96 -1.09,1.85 -1.6,2.58 -0.99,1.49 -1.81,2.4 -1.81,2.4 0,0 0.2,-1.21 0.76,-2.91 0.26,-0.85 0.62,-1.83 1.03,-2.85 0.41,-1.03 0.89,-2.12 1.4,-3.18 0.52,-1.06 1.07,-2.1 1.63,-3.06 0.54,-0.97 1.09,-1.85 1.59,-2.59 0.99,-1.49 1.82,-2.4 1.82,-2.4z"/>
   <path class="fil18" d="M1088.59 1341.96c0,0 -1,0.71 -2.59,1.52 -0.8,0.41 -1.74,0.85 -2.76,1.29 -1.02,0.43 -2.12,0.86 -3.23,1.25 -1.11,0.39 -2.24,0.73 -3.31,1.02 -1.07,0.3 -2.08,0.54 -2.96,0.7 -1.75,0.35 -2.98,0.42 -2.98,0.42 0,0 1,-0.71 2.59,-1.52 0.79,-0.42 1.73,-0.86 2.76,-1.29 1.01,-0.44 2.11,-0.87 3.23,-1.26 1.11,-0.39 2.24,-0.73 3.31,-1.02 1.07,-0.29 2.08,-0.53 2.96,-0.69 1.75,-0.36 2.98,-0.42 2.98,-0.42z"/>
   <path class="fil18" d="M1089.5 1327.33c0,0 -1.21,-0.21 -2.91,-0.76 -0.86,-0.27 -1.83,-0.62 -2.86,-1.04 -1.03,-0.41 -2.11,-0.88 -3.17,-1.4 -1.07,-0.51 -2.11,-1.06 -3.07,-1.62 -0.97,-0.54 -1.85,-1.09 -2.59,-1.59 -1.49,-1 -2.4,-1.82 -2.4,-1.82 0,0 1.21,0.21 2.91,0.76 0.86,0.27 1.83,0.62 2.86,1.04 1.03,0.41 2.11,0.88 3.17,1.4 1.07,0.51 2.11,1.07 3.07,1.62 0.96,0.55 1.85,1.09 2.58,1.6 1.49,0.99 2.41,1.81 2.41,1.81z"/>
   <path class="fil18" d="M1100.48 1317.62c0,0 -0.71,-1 -1.52,-2.59 -0.41,-0.79 -0.86,-1.73 -1.29,-2.75 -0.44,-1.02 -0.87,-2.12 -1.25,-3.24 -0.39,-1.11 -0.74,-2.24 -1.03,-3.31 -0.29,-1.07 -0.53,-2.08 -0.69,-2.96 -0.36,-1.75 -0.42,-2.98 -0.42,-2.98 0,0 0.71,1 1.52,2.6 0.42,0.79 0.86,1.73 1.29,2.75 0.44,1.02 0.87,2.12 1.25,3.23 0.39,1.12 0.74,2.25 1.03,3.32 0.29,1.07 0.53,2.08 0.69,2.96 0.35,1.75 0.42,2.97 0.42,2.97z"/>
   <path class="fil21" d="M1313.55 1239.16c28.38,-4.82 76.29,-4.22 99.06,46.5 0,0 5.82,10.56 15.66,3.91 9.85,-6.65 1.92,-20.19 -0.18,-23.22 -2.11,-3.03 -21.37,-46.74 -79.82,-51.17 -49.54,-3.76 -83.46,15.99 -98.97,44.01 -6.12,11.05 11.71,20.49 18.59,10.05l0.31 -0.48c10.41,-15.67 26.81,-26.44 45.35,-29.6z"/>
   <path class="fil23" d="M1362.62 1086.44c0,0 -8.09,5.7 -7.2,18.33 0.89,12.64 -5.62,23.94 -14.95,31.68 -9.33,7.75 -15.31,8.35 -22.19,18.66l8.96 6.61c0,0 4.36,-7.02 14.53,-10.89 10.17,-3.87 24.65,-23.52 24.21,-33.51 -0.44,-9.99 2.81,-19.47 6.86,-25.99 4.05,-6.52 -10.22,-4.89 -10.22,-4.89z"/>
   <path class="fil25" d="M1320.84 1140.44c0,0 -21.19,31.76 -28.15,42.45 -6.97,10.69 9.09,25.43 18.12,13.45 9.04,-11.99 22.44,-33.54 26.94,-39.81 4.51,-6.27 -8.8,-18.93 -16.91,-16.09z"/>
   <path class="fil25" d="M1373.85 1099.71c0,0 17.57,-29.04 23.35,-38.82 5.77,-9.77 -9.01,-22.3 -16.57,-11.3 -7.55,11 -18.61,30.68 -22.37,36.43 -3.76,5.75 8.51,16.52 15.59,13.69z"/>
   <path class="fil23" d="M1361.2 1130.91l-6.87 90.58c-0.44,5.93 -5.23,10.4 -10.68,9.99 -5.62,-0.43 -9.72,-5.89 -9,-11.98l9.41 -79.12 17.14 -9.47z"/>
   <path class="fil13" d="M1157.25 1281.29l-13.21 -66.7 26.32 1.99 13.86 54.51c0,0 -14.08,19.52 -26.97,10.2z"/>
   <path class="fil26" d="M1116.4 1191.21c-13.27,7.42 -10.61,22.06 -5.99,29.15 4.63,7.08 13.9,11.65 37.8,8.35 23.89,-3.3 64.25,6.48 61.52,-4.81 -2.74,-11.28 -16.85,-19.62 -35.26,-18.42 -18.41,1.2 -41.04,-14.16 -45.6,-16.25 -4.55,-2.09 -8.41,-0.28 -12.47,1.98z"/>
   <path class="fil16" d="M1349.06 1080.85c0,0 5.04,3.47 10.4,3.27 5.36,-0.2 4.49,-6.83 14.61,-1.37 10.11,5.45 3.6,10.64 3.17,11.36 -0.44,0.71 2.6,6.01 8.01,0.6 5.41,-5.39 14.76,-17.49 14.4,-25.02 -0.37,-7.53 -16.33,-21.24 -23.09,-19.88 -6.76,1.37 -13.66,7.72 -22.6,5.17 -8.93,-2.56 -9.21,23.71 -4.9,25.87z"/>
   <path class="fil27" d="M1256.94 1021.65c-13.08,5.09 -20.99,31.14 -2.36,42.58 18.64,11.43 26.71,10.76 41.37,14.48 14.66,3.73 48.3,5.94 54.42,6.27 6.12,0.34 10.81,-26.03 5.62,-32.98 -5.18,-6.94 -62.05,-18.75 -71.56,-20.94 -9.51,-2.19 -15.66,-14.01 -27.49,-9.41z"/>
   <path class="fil28" d="M1114.49 1161.72c0,0 -4.49,41.47 33.8,55.62 38.3,14.15 74.99,3.42 100.21,-38.22l-134.01 -17.4z"/>
   <path class="fil29" d="M1207.55 1017.99c0,0 -73.03,38.08 -95.86,130.33 0,0 -10.04,24.88 57.57,39.78 67.61,14.9 88.88,-12.81 90.07,-28.51 1.18,-15.7 16.22,-121.96 6.33,-139.12 -9.47,-16.44 -50.22,-10.53 -58.11,-2.48z"/>
   <path class="fil27" d="M1268.92 1040.38c-0.28,-9.3 -1.26,-16.43 -3.26,-19.91 -9.47,-16.44 -50.22,-10.53 -58.11,-2.48 0,0 -2.22,1.16 -6.02,3.57 3.86,9.78 18.95,42.15 47.69,35.01 11.57,-2.87 17.24,-9.16 19.7,-16.19z"/>
   <path class="fil30" d="M1207.55 1017.99c0,0 10.94,35.48 36.49,32.81 30.75,-3.22 18.62,-34.08 18.62,-34.08l-55.11 1.27z"/>
   <path class="fil16" d="M1305.96 1138.69c0,0 3.35,4.03 13.24,4.21 9.89,0.18 18.33,14.57 16.27,22.22 -2.07,7.66 -12.69,19.97 -15.43,23.2 -2.75,3.23 -5.74,-0.12 -3.9,-4.98 1.83,-4.86 -0.82,-11.06 -4.42,-13.02 -3.6,-1.96 -7.46,-1.68 -11.72,1.46 -4.25,3.14 -3.72,-7.99 -9.29,-12.83 -5.57,-4.83 10.6,-21.07 15.25,-20.26z"/>
   <path class="fil18" d="M1361.98 857.78c0,0 -2.44,-62.48 -78.48,-89.09 -69.21,-24.23 -136.76,17.53 -135.58,42.23 0,0 -49.89,15.38 -54.03,76.72 -5.7,84.56 39.34,110.81 89.04,122.77 48.75,11.73 179.05,-152.63 179.05,-152.63z"/>
   <path class="fil16" d="M1202.12 802.53c-72.7,25.59 -71.24,122.08 -71.24,122.08 0,0 -23.78,-9.3 -24.39,18.98 -0.62,28.28 27.27,23.73 27.27,23.73 0,0 27.89,66.28 139.9,52.27 112.02,-14.01 98.56,-129.18 76.41,-170.02 -18.84,-34.72 -62.26,-77.21 -147.95,-47.04z"/>
   <path class="fil18" d="M1189.82 853.67c0,0 40.77,37.67 123.12,31.41 0,0 -0.84,-19.22 -14.54,-30.26 0,0 35.78,32.71 73.95,33.94 0,0 -15.15,-82.81 -89.47,-101.77 -74.32,-18.97 -135.72,33.87 -145.58,73.11 -9.86,39.25 -7.97,76.06 -7.97,76.06 0,0 52.39,-16.03 60.49,-82.49z"/>
   <path class="fil18" d="M1252.26 927.95c0.06,8.84 -5.58,16.04 -12.6,16.09 -7.02,0.05 -12.77,-7.07 -12.83,-15.91 -0.06,-8.83 5.58,-16.03 12.6,-16.08 7.02,-0.05 12.77,7.07 12.83,15.9z"/>
   <path class="fil18" d="M1339.84 918.57c0.06,8.83 -5.58,16.04 -12.61,16.08 -7.02,0.06 -12.76,-7.06 -12.83,-15.9 -0.06,-8.83 5.58,-16.03 12.61,-16.08 7.02,-0.05 12.76,7.07 12.83,15.9z"/>
   <path class="fil4" d="M1248.85 924.01c-0.19,2.6 -1.74,4.61 -3.46,4.48 -1.72,-0.13 -2.95,-2.35 -2.75,-4.95 0.2,-2.6 1.75,-4.61 3.46,-4.48 1.72,0.13 2.95,2.35 2.75,4.95z"/>
   <path class="fil4" d="M1335.81 914.58c-0.2,2.6 -1.75,4.61 -3.46,4.48 -1.72,-0.13 -2.95,-2.35 -2.75,-4.95 0.19,-2.6 1.74,-4.61 3.46,-4.48 1.71,0.13 2.95,2.35 2.75,4.95z"/>
   <path class="fil31" d="M1283.16 937.18c0,0 0.66,0.61 1.89,1.3 1.22,0.7 3.03,1.39 5.17,1.55 1.06,0.08 2.2,0.08 3.41,-0.1 1.2,-0.12 2.46,-0.42 3.77,-0.79l0.49 -0.14 0.12 -0.03 0.34 -0.07 0.28 -0.07 0.58 -0.13c0.2,-0.04 0.61,-0.06 0.92,-0.09 1.34,-0.12 2.46,0.06 3.73,0.44 1.21,0.44 2.38,1.11 3.33,2.01 0.91,0.91 1.65,1.95 2.18,3.06 1.99,4.46 0.84,9.46 -1.93,12.57 -1.37,1.56 -3.08,2.63 -4.73,3.25 -1.66,0.64 -3.27,0.8 -4.68,0.82 -1.41,-0.01 -2.66,-0.21 -3.72,-0.49 -1.07,-0.22 -1.94,-0.61 -2.65,-0.88 -0.71,-0.28 -1.23,-0.62 -1.59,-0.79 -0.35,-0.2 -0.54,-0.31 -0.54,-0.31 0,0 0.89,-0.14 2.33,-0.31 0.72,-0.12 1.59,-0.24 2.53,-0.44 0.95,-0.19 1.97,-0.5 3,-0.87 2.06,-0.74 4.01,-2.08 5.03,-3.85 1.06,-1.72 1.21,-4.12 0.46,-5.71 -0.36,-0.81 -0.84,-1.26 -1.41,-1.56 -0.27,-0.11 -0.76,-0.26 -1,-0.28l-0.27 -0.05 -0.59 0.05 -0.3 0.02 -0.07 0.01 -0.02 0c0.08,-0.01 -0.21,0.04 0.18,-0.03l-0.04 0 -0.16 0.02 -0.66 0.06c-1.73,0.19 -3.45,0.19 -5.08,-0.06 -1.63,-0.22 -3.15,-0.7 -4.45,-1.32 -2.62,-1.27 -4.22,-3.13 -4.98,-4.5 -0.78,-1.39 -0.87,-2.29 -0.87,-2.29z"/>
   <path class="fil31" d="M1294.41 972.3c-16.87,3.15 -33.6,-1.93 -35.14,8.01 -1.54,9.92 13.64,23.77 34.3,20.64 20.67,-3.13 29.2,-17.53 31.36,-27.75 2.18,-10.23 -16.1,-3.59 -30.52,-0.9z"/>
   <path class="fil4" d="M1317.47 967.76c-6.21,0.44 -15.2,3.07 -23.06,4.54 -16.87,3.15 -33.6,-1.93 -35.14,8.01 -0.26,1.65 -0.04,3.42 0.58,5.19 1.13,0.42 2.4,0.77 3.85,1.03 15.4,2.84 46.22,-5.24 51.1,-6.33 3.64,-0.81 3.15,-8.57 2.67,-12.44z"/>
   <path class="fil32" d="M1250.87 959.9c0.39,5.35 -7.02,10.25 -16.54,10.94 -9.53,0.69 -17.56,-3.09 -17.95,-8.44 -0.39,-5.34 7.02,-10.23 16.54,-10.93 9.53,-0.69 17.56,3.09 17.95,8.43z"/>
   <path class="fil32" d="M1358.34 944.8c0.37,5.16 -6.78,9.88 -15.97,10.55 -9.19,0.67 -16.95,-2.98 -17.32,-8.14 -0.38,-5.15 6.77,-9.88 15.96,-10.55 9.2,-0.66 16.95,2.98 17.33,8.14z"/>
   <path class="fil33" d="M1247.2 898.06c-0.05,-0.04 -1.22,-1.18 -3.12,-2.33 -1.9,-1.15 -4.54,-2.34 -7.58,-2.34 -1.95,-0.01 -4.06,0.52 -6.1,1.84 -2.03,1.32 -3.98,3.43 -5.75,6.53 -0.32,0.57 -0.12,1.3 0.45,1.62 0.57,0.33 1.3,0.13 1.62,-0.44 1.63,-2.86 3.34,-4.64 4.98,-5.71 1.65,-1.07 3.25,-1.46 4.8,-1.46 2.39,0 4.67,0.98 6.35,1.99 0.84,0.51 1.52,1.02 1.98,1.4 0.24,0.19 0.42,0.35 0.54,0.45l0.13 0.12 0.03 0.03c0.47,0.46 1.23,0.46 1.68,-0.01 0.46,-0.48 0.45,-1.23 -0.01,-1.69z"/>
   <path class="fil33" d="M1315.13 894.14l0.03 -0.06c0.18,-0.34 1.14,-2.07 2.7,-3.65 1.57,-1.6 3.66,-2.98 6.14,-2.97 2.46,0 5.61,1.32 9.45,5.84 0.42,0.5 1.17,0.56 1.67,0.14 0.51,-0.43 0.57,-1.18 0.14,-1.68 -4.06,-4.82 -7.88,-6.69 -11.26,-6.68 -3.63,0.01 -6.38,2.1 -8.19,4.05 -1.82,1.97 -2.77,3.88 -2.81,3.94 -0.29,0.59 -0.05,1.31 0.54,1.6 0.59,0.29 1.3,0.06 1.59,-0.53z"/>
   <path class="fil27" d="M1206.45 1060.38c-15.4,1.07 -30.49,23.96 -13.25,40.52 17.24,16.57 35.63,35.54 50.52,43.47 14.89,7.92 41,18.52 47.52,20.65 6.52,2.14 17.8,-23.02 13.95,-31.28 -3.86,-8.25 -43.36,-35.19 -53.08,-40.11 -9.71,-4.93 -31.72,-34.22 -45.66,-33.25z"/>
   <path class="fil16" d="M1235.83 1222.76c0,0 19.04,17.03 22.89,22.62 3.86,5.59 12.59,19.57 12.59,19.57l-18.86 14.69c0,0 -14.77,-21.34 -31.05,-37.27l14.43 -19.61z"/>
   <polygon class="fil28" points="1169.58,1215.34 1222.07,1251.52 1242.56,1225.59 1213.91,1196.34 "/>
   <path class="fil29" d="M1282.57 1275.21c0,0 1.61,2.47 13.16,1.36 11.54,-1.11 16.94,-2.47 22.92,7.38 0,0 0.39,8.04 -19.71,17.71 -20.11,9.67 -15.88,12.92 -27.65,15.47 -11.77,2.55 -14.92,-26.31 -14.92,-26.31l26.2 -15.61z"/>
   <path class="fil34" d="M1250.32 1275.36c0,0 7.49,-0.94 12.76,-5.26 5.27,-4.32 4.87,-10.27 7.54,-9.46 2.66,0.82 12.74,11.89 11.92,14.56 -0.82,2.68 -3.43,8.23 -8.08,11.89 -4.65,3.66 -8.14,4.94 -14.07,5.57 -5.93,0.64 -12.86,-16.74 -10.07,-17.3z"/>
   <path class="fil35" d="M1330.64 1325.13c-0.89,-0.06 -1.88,-0.3 -2.95,-0.78 -4.56,-2.05 -25.72,-15.06 -28.12,-16.54 -1.75,-1.08 -2.3,-3.38 -1.22,-5.14 1.08,-1.76 3.38,-2.3 5.15,-1.22 6.4,3.94 23.77,14.51 27.25,16.08l0.27 0.1c0.44,-0.55 0.93,-2.14 1.04,-3.17 0.2,-2.05 2.06,-3.58 4.09,-3.35 2.06,0.21 3.56,2.04 3.35,4.1 -0.11,1.1 -0.87,6.71 -4.84,9.01 -0.95,0.55 -2.31,1.05 -4.02,0.91z"/>
   <polygon class="fil19" points="1285.35,1317.34 1315.45,1299.8 1311.26,1293.7 1280.59,1311.12 "/>
   <path class="fil36" d="M1024.63 1992.12c-93.92,0 -170.06,-28.4 -170.06,-63.43 0,-6.97 3.06,-13.67 8.63,-19.94 -31.15,14.67 -79.29,24.1 -133.37,24.1 -75.72,0 -139.84,-18.46 -161.87,-43.97 -11.25,6.13 -30.15,10.16 -51.56,10.16 -34.5,0 -62.45,-10.43 -62.45,-23.3 0,-12.86 27.95,-23.29 62.45,-23.29 17.86,0 33.96,2.8 45.34,7.29 12.5,-30.44 82.99,-53.75 168.09,-53.75 93.92,0 170.06,28.4 170.06,63.43 0,6.97 -3.06,13.67 -8.63,19.94 31.15,-14.67 79.29,-24.1 133.37,-24.1 93.92,0 170.06,28.4 170.06,63.43 0,35.03 -76.14,63.43 -170.06,63.43z"/>
   <path class="fil30" d="M679.06 1655.15c8.04,6.25 50.57,-17.39 55.04,-15.97 3.76,1.19 28.02,18.2 38.17,25.16 2.91,1.89 1.66,8.64 5.64,13.45 3.98,4.8 11.22,11.68 16.47,9.01 5.24,-2.67 13.89,-8.08 16.12,-15.14 2.22,-7.07 -6.11,-15.8 -12.83,-20.36 -6.71,-4.56 -9.8,-4.08 -11.97,-6.13l-0.36 -0.12c-9.54,-9.7 -29.73,-26.43 -41.93,-29.11 -16.01,-3.51 -39.88,0.72 -55.04,7.23 -15.17,6.51 -23.76,20.76 -9.31,31.98z"/>
   <path class="fil30" d="M770.51 1815.55c0,0 22.15,8.86 24.19,9.8 2.04,0.94 15.84,0.49 16.68,-0.67 0.84,-1.16 1.36,-18.05 0.13,-20.24 -1.24,-2.2 -13.27,-1.56 -15.59,-3.24 -2.32,-1.68 -20.04,-9.56 -20.04,-9.56 0,0 -8.48,17.33 -5.37,23.91z"/>
   <path class="fil37" d="M732.97 1803.75c0,0 36.87,13.87 37.92,15.59 1.07,1.73 9.84,-29.45 7.12,-32.25 -2.73,-2.8 -48.18,-29.57 -48.18,-29.57l3.14 46.23z"/>
   <path class="fil38" d="M827.87 1827.45c0,0 2.94,-0.19 8.97,9.71 6.04,9.9 8.19,15.04 19.66,13.91 0,0 6.66,-4.5 2.34,-26.39 -4.31,-21.89 0.82,-20.45 -4.19,-31.4 -5.02,-10.95 -30.01,3.84 -30.01,3.84l3.23 30.33z"/>
   <path class="fil34" d="M808.65 1801.55c0,0 3.73,6.56 3.43,13.36 -0.29,6.81 -5.29,10.06 -3.04,11.7 2.25,1.65 17.15,3.07 18.8,0.81 1.65,-2.26 4.53,-7.67 4.67,-13.59 0.14,-5.92 -0.93,-9.47 -3.98,-14.6 -3.05,-5.13 -21.11,-0.25 -19.88,2.32z"/>
   <path class="fil30" d="M651.75 1819.75c0,0 -15.99,17.7 -17.57,19.29 -1.59,1.59 -5.96,14.68 -5.17,15.87 0.8,1.19 16.46,7.54 18.95,7.15 2.49,-0.4 6.06,-11.91 8.44,-13.5 2.38,-1.58 15.92,-15.47 15.92,-15.47 0,0 -13.31,-13.97 -20.57,-13.34z"/>
   <path class="fil39" d="M651.75 1768.48c0,0 3.86,32.46 39.18,38.81 35.32,6.35 78.81,-10.54 82.27,-52.3l-121.45 13.49z"/>
   <path class="fil38" d="M722.57 1612.92c0,0 53.69,72.13 52.89,138.8 0,0 -11.11,21.44 -52.38,25.41 -54.61,5.25 -75.41,-11.12 -75.41,-11.12 0,0 -9,-67.88 9.12,-147.16 18.12,-79.28 65.78,-5.93 65.78,-5.93z"/>
   <path class="fil30" d="M715.42 1612.92c0,0 -8.78,36.07 -34.45,34.94 -30.89,-1.37 -20.63,-32.9 -20.63,-32.9l55.08 -2.04z"/>
   <path class="fil40" d="M543.94 1473.71c0,0 -19.91,-20.93 -6.03,-65.42 0,0 12.82,15.4 39.23,-14.85 26.42,-30.26 136.4,-47.54 148.84,-8.29 0,0 45.31,-14.38 67.67,59.78 22.37,74.16 5.63,108.75 -13.99,121.36 -19.62,12.62 -235.72,-92.58 -235.72,-92.58z"/>
   <path class="fil16" d="M685.75 1399.03c76.55,8.96 96.36,103.41 96.36,103.41 0,0 21.16,-14.31 27.98,13.14 6.82,27.46 -21.39,29.16 -21.39,29.16 0,0 -12.6,70.78 -124.96,81.78 -112.35,11 -124.57,-104.31 -111.95,-149.03 10.73,-38.02 43.73,-89.02 133.96,-78.46z"/>
   <path class="fil18" d="M664.45 1532.42c1.88,8.63 8.97,14.41 15.83,12.92 6.86,-1.5 10.9,-9.71 9.02,-18.34 -1.89,-8.63 -8.98,-14.41 -15.84,-12.92 -6.86,1.5 -10.9,9.71 -9.01,18.34z"/>
   <path class="fil18" d="M576.95 1542.55c1.89,8.63 8.98,14.41 15.84,12.91 6.86,-1.49 10.9,-9.7 9.01,-18.33 -1.88,-8.63 -8.97,-14.42 -15.83,-12.92 -6.86,1.5 -10.9,9.71 -9.02,18.34z"/>
   <path class="fil4" d="M668.91 1535.92c0.76,2.49 2.72,4.11 4.36,3.6 1.65,-0.5 2.36,-2.93 1.59,-5.43 -0.76,-2.5 -2.71,-4.11 -4.36,-3.61 -1.65,0.51 -2.36,2.94 -1.59,5.44z"/>
   <path class="fil4" d="M581.31 1545.74c0.76,2.5 2.72,4.11 4.36,3.61 1.65,-0.51 2.36,-2.94 1.59,-5.43 -0.76,-2.5 -2.71,-4.11 -4.36,-3.61 -1.64,0.51 -2.36,2.94 -1.59,5.43z"/>
   <path class="fil31" d="M636.33 1548.23c0,0 0.01,0.86 -0.54,2.29 -0.55,1.41 -1.76,3.41 -4.02,5.01 -1.1,0.79 -2.43,1.53 -3.92,1.99 -1.48,0.53 -3.09,0.87 -4.76,0.99l-0.63 0.06 -0.16 0.02 -0.04 0c0.26,-0.01 0.05,0 0.1,0l-0.07 0.01 -0.3 0.03c-0.41,0.04 -0.8,0.1 -0.95,0.18 -0.41,0.11 -0.95,0.39 -1.35,0.64 -0.78,0.58 -1.34,1.44 -1.57,2.55 -0.22,1.1 -0.14,2.36 0.27,3.5 0.41,1.14 1.02,2.24 1.92,3.04 1.74,1.67 4.22,2.4 6.48,2.52 1.14,0.06 2.22,0.04 3.19,-0.07 0.97,-0.08 1.82,-0.23 2.53,-0.34 1.44,-0.28 2.26,-0.43 2.26,-0.43 0,0 -0.17,0.12 -0.49,0.35 -0.33,0.21 -0.79,0.6 -1.43,0.97 -0.65,0.36 -1.43,0.84 -2.42,1.22 -0.97,0.43 -2.13,0.81 -3.46,1.03 -1.33,0.23 -2.85,0.37 -4.48,0.05 -1.61,-0.28 -3.35,-0.9 -4.86,-2.07 -3.06,-2.24 -5.04,-6.48 -4.16,-10.76 0.23,-1.07 0.67,-2.11 1.27,-3.07 0.64,-0.95 1.49,-1.76 2.45,-2.36 0.99,-0.58 1.95,-0.97 3.1,-1.12 0.63,-0.12 1.02,-0.12 1.4,-0.12l1.23 -0.01c1.42,0.01 2.79,-0.01 4.04,-0.24 1.26,-0.2 2.43,-0.52 3.47,-0.93 2.07,-0.84 3.61,-2.08 4.55,-3.13 0.96,-1.04 1.35,-1.8 1.35,-1.8z"/>
   <path class="fil31" d="M633.09 1584.96c17.16,-0.64 32.36,-9.28 36.04,0.07 3.69,9.35 -8.06,26.2 -28.91,27.69 -20.85,1.49 -32.34,-10.68 -36.71,-20.17 -4.36,-9.49 14.92,-7.05 29.58,-7.59z"/>
   <path class="fil4" d="M609.6 1585.6c6.16,-0.93 15.51,-0.35 23.49,-0.64 17.16,-0.64 32.36,-9.28 36.04,0.07 0.62,1.56 0.8,3.33 0.58,5.2 -1.01,0.65 -2.17,1.28 -3.52,1.85 -14.41,6.16 -46.25,5.06 -51.24,5.07 -3.73,0.01 -4.97,-7.67 -5.35,-11.55z"/>
   <path class="fil32" d="M672.84 1563.28c0.79,5.3 9.1,8.45 18.54,7.02 9.44,-1.42 16.45,-6.87 15.65,-12.17 -0.8,-5.3 -9.1,-8.45 -18.54,-7.02 -9.45,1.42 -16.45,6.87 -15.65,12.17z"/>
   <path class="fil32" d="M564.68 1572.21c0.77,5.11 8.79,8.15 17.9,6.77 9.11,-1.37 15.88,-6.63 15.1,-11.75 -0.77,-5.11 -8.78,-8.15 -17.89,-6.78 -9.12,1.38 -15.88,6.64 -15.11,11.76z"/>
   <path class="fil33" d="M664.81 1503.44l0.03 -0.05c0.21,-0.31 1.32,-1.87 3.06,-3.31 1.74,-1.45 4.06,-2.74 6.72,-2.73 2.59,0 5.67,1.17 9.23,5.05 0.44,0.48 1.2,0.51 1.68,0.07 0.49,-0.44 0.52,-1.19 0.08,-1.68 -3.83,-4.22 -7.62,-5.83 -10.99,-5.83 -3.67,0.01 -6.62,1.86 -8.63,3.62 -2.02,1.77 -3.14,3.51 -3.18,3.57 -0.36,0.55 -0.2,1.29 0.35,1.64 0.55,0.36 1.29,0.21 1.65,-0.35z"/>
   <path class="fil33" d="M597.52 1511.77c-0.04,-0.05 -1.15,-1.41 -2.98,-2.79 -1.84,-1.37 -4.42,-2.81 -7.48,-2.82 -1.9,-0.01 -3.96,0.6 -5.92,2.07 -1.97,1.46 -3.86,3.76 -5.63,7.16 -0.3,0.58 -0.08,1.3 0.51,1.6 0.58,0.3 1.3,0.08 1.6,-0.5 1.66,-3.17 3.35,-5.17 4.94,-6.35 1.6,-1.18 3.08,-1.59 4.5,-1.6 2.26,-0.01 4.44,1.13 6.05,2.35 0.8,0.6 1.45,1.21 1.9,1.66 0.22,0.23 0.39,0.41 0.5,0.54l0.13 0.14 0.03 0.04c0.42,0.51 1.17,0.59 1.68,0.17 0.51,-0.41 0.58,-1.16 0.17,-1.67z"/>
   <path class="fil40" d="M541.16 1501.86c0,0 102.19,-2.22 139.51,-43.3 0,0 62.04,65.66 100.03,58.67 0,0 12.25,-35.99 -35.1,-100.64 -47.36,-64.65 -207.79,-27.59 -204.44,85.27z"/>
   <path class="fil39" d="M675.85 1788.63c0,0 -25.8,29.77 -27.78,30.17 -1.99,0.39 24.21,19.44 27.78,17.86 3.57,-1.59 44.45,-34.93 44.45,-34.93l-44.45 -13.1z"/>
   <path class="fil38" d="M620.7 1869.42c0,0 -0.84,2.82 -12.22,5.05 -11.38,2.22 -16.95,2.46 -19.87,13.6 0,0 1.91,7.82 23.94,11.36 22.03,3.55 18.89,7.87 30.91,6.96 12,-0.91 6.81,-29.48 6.81,-29.48l-29.57 -7.49z"/>
   <path class="fil34" d="M651.65 1860.37c0,0 -7.44,1.23 -13.72,-1.41 -6.28,-2.64 -7.6,-8.45 -9.92,-6.91 -2.32,1.54 -8.83,15.02 -7.28,17.36 1.55,2.33 5.63,6.9 11.13,9.09 5.5,2.18 9.2,2.41 15.08,1.33 5.86,-1.08 7.56,-19.71 4.71,-19.46z"/>
   <path class="fil30" d="M715.5 1641c-9.83,-2.63 -39.87,35.64 -44.54,36.06 -3.93,0.36 -32.89,-5.91 -44.94,-8.4 -3.41,-0.61 -4.88,-7.32 -10.41,-10.21 -5.53,-2.88 -14.87,-6.41 -18.67,-1.92 -3.81,4.49 -9.68,12.83 -8.99,20.21 0.69,7.38 11.75,12.19 19.7,13.79 7.96,1.6 10.63,-0.04 13.41,1.01l0.38 -0.03c12.56,5.24 37.66,12.84 49.95,10.58 16.11,-2.97 36.48,-16.12 47.93,-28 11.45,-11.87 13.85,-28.34 -3.82,-33.09z"/>
   <path class="fil34" d="M563.67 1825.86c0,26.11 -21.16,47.27 -47.27,47.27 -26.12,0 -47.28,-21.16 -47.28,-47.27 0,-26.11 21.16,-47.28 47.28,-47.28 26.11,0 47.27,21.17 47.27,47.28z"/>
   <path class="fil41" d="M509.25 1823.5l4.77 -4.9c2.05,-2.1 2.82,-5.13 2.02,-7.96l-1.85 -6.58c-0.79,-2.82 -3.04,-5.01 -5.88,-5.73l-6.62 -1.69c-2.85,-0.72 -5.86,0.12 -7.91,2.23l-4.77 4.89c-2.05,2.1 -2.82,5.13 -2.03,7.96l1.85 6.58c0.8,2.82 3.04,5.01 5.88,5.74l6.63 1.68c2.84,0.72 5.86,-0.12 7.91,-2.22z"/>
   <path class="fil41" d="M525.5 1846.46c-0.79,-2.82 -3.03,-5.01 -5.88,-5.73l-6.62 -1.69c-2.85,-0.72 -5.86,0.12 -7.91,2.23l-4.77 4.89c-2.05,2.1 -2.82,5.13 -2.03,7.96l1.85 6.58c0.8,2.83 3.04,5.01 5.89,5.74l6.62 1.68c2.84,0.73 5.86,-0.12 7.91,-2.22l4.77 -4.9c2.05,-2.1 2.82,-5.13 2.02,-7.96l-1.85 -6.58z"/>
   <path class="fil41" d="M555.63 1804.71l-6.62 -1.69c-2.85,-0.72 -5.86,0.13 -7.91,2.23l-4.77 4.89c-2.05,2.1 -2.82,5.14 -2.03,7.97l1.85 6.57c0.8,2.83 3.04,5.01 5.88,5.74l6.63 1.68c2.84,0.73 5.86,-0.12 7.91,-2.22l4.77 -4.89c1.05,-1.08 1.75,-2.4 2.1,-3.81 -0.48,-4.81 -1.66,-9.41 -3.47,-13.69 -1.09,-1.35 -2.6,-2.34 -4.34,-2.78z"/>
   <path class="fil41" d="M548.54 1849.76l-4.77 4.89c-2.05,2.1 -2.82,5.14 -2.03,7.97l0.75 2.64c6.56,-4.35 11.97,-10.3 15.68,-17.29l-1.72 -0.43c-2.85,-0.73 -5.86,0.12 -7.91,2.22z"/>
   <path class="fil41" d="M522.39 1786.69l6.62 1.69c2.85,0.72 5.86,-0.13 7.91,-2.22l1.88 -1.94c-6.67,-3.59 -14.29,-5.64 -22.4,-5.64l-0.55 0.03 0.66 2.35c0.79,2.82 3.04,5.01 5.88,5.73z"/>
   <path class="fil41" d="M480.91 1840.36l-1.85 -6.58c-0.79,-2.82 -3.03,-5.01 -5.88,-5.73l-4 -1.02c0.21,8.77 2.81,16.93 7.18,23.89l2.53 -2.6c2.05,-2.1 2.82,-5.13 2.02,-7.96z"/>
   <path class="fil30" d="M965.51 1692.08c-10.09,-1.42 -35.22,40.24 -39.8,41.23 -3.85,0.84 -33.36,-1.84 -45.63,-2.83 -3.46,-0.19 -5.74,-6.67 -11.58,-8.86 -5.85,-2.19 -15.54,-4.55 -18.77,0.38 -3.22,4.92 -8.04,13.92 -6.45,21.15 1.59,7.24 13.16,10.66 21.25,11.28 8.09,0.62 10.54,-1.34 13.44,-0.64l0.37 -0.07c13.1,3.67 38.94,8.13 50.86,4.38 15.63,-4.92 34.23,-20.46 44.15,-33.65 9.91,-13.2 10.28,-29.83 -7.84,-32.37z"/>
   <path class="fil30" d="M1060.46 1871.05c0,0 22.15,8.86 24.19,9.8 2.04,0.93 15.84,0.48 16.68,-0.67 0.84,-1.16 1.36,-18.05 0.12,-20.25 -1.23,-2.19 -13.26,-1.55 -15.58,-3.23 -2.31,-1.69 -20.04,-9.57 -20.04,-9.57 0,0 -8.48,17.33 -5.37,23.92z"/>
   <path class="fil26" d="M1022.92 1859.25c0,0 36.86,13.87 37.92,15.59 1.07,1.72 9.84,-29.45 7.12,-32.25 -2.73,-2.8 -48.18,-29.57 -48.18,-29.57l3.14 46.23z"/>
   <path class="fil42" d="M1117.82 1882.94c0,0 2.94,-0.19 8.97,9.71 6.04,9.91 8.19,15.05 19.66,13.92 0,0 6.66,-4.51 2.34,-26.39 -4.32,-21.89 0.83,-20.46 -4.19,-31.41 -5.02,-10.94 -30.01,3.84 -30.01,3.84l3.23 30.33z"/>
   <path class="fil34" d="M1098.59 1857.05c0,0 3.74,6.55 3.44,13.36 -0.29,6.81 -5.29,10.06 -3.04,11.7 2.25,1.64 17.15,3.07 18.8,0.81 1.65,-2.26 4.53,-7.68 4.67,-13.6 0.14,-5.91 -0.93,-9.46 -3.98,-14.59 -3.05,-5.14 -21.11,-0.26 -19.89,2.32z"/>
   <path class="fil30" d="M941.7 1875.25c0,0 -15.99,17.7 -17.58,19.28 -1.58,1.59 -5.95,14.69 -5.16,15.88 0.8,1.19 16.46,7.54 18.95,7.14 2.49,-0.39 6.06,-11.9 8.44,-13.49 2.38,-1.59 15.92,-15.47 15.92,-15.47 0,0 -13.31,-13.98 -20.57,-13.34z"/>
   <path class="fil26" d="M941.7 1823.97c0,0 3.86,32.46 39.18,38.81 35.32,6.35 78.81,-10.53 82.27,-52.29l-121.45 13.48z"/>
   <path class="fil42" d="M1012.52 1668.42c0,0 53.69,72.12 52.89,138.8 0,0 -11.11,21.43 -52.38,25.4 -54.61,5.25 -75.41,-11.11 -75.41,-11.11 0,0 -9,-67.88 9.12,-147.16 18.12,-79.28 65.78,-5.93 65.78,-5.93z"/>
   <path class="fil19" d="M1005.37 1682.75c3.64,-8.56 5.47,-14.58 5.92,-16.13 -0.14,-0.19 -0.29,-0.4 -0.45,-0.62l-16.4 -6.63 -49.49 23.25 -0.04 0.16c-0.3,1.9 -2.85,21.7 20.95,24.81 25,3.28 35.27,-14.85 39.51,-24.84z"/>
   <path class="fil30" d="M1005.37 1668.42c0,0 -8.79,36.07 -34.45,34.93 -30.89,-1.37 -20.63,-32.89 -20.63,-32.89l55.08 -2.04z"/>
   <path class="fil16" d="M975.7 1454.53c76.55,8.96 96.36,103.41 96.36,103.41 0,0 21.16,-14.31 27.98,13.14 6.82,27.46 -21.39,29.16 -21.39,29.16 0,0 -12.61,70.78 -124.96,81.78 -112.35,10.99 -124.57,-104.32 -111.95,-149.03 10.73,-38.02 43.73,-89.02 133.96,-78.46z"/>
   <path class="fil31" d="M926.28 1603.72c0,0 0.01,0.87 -0.54,2.3 -0.54,1.41 -1.76,3.4 -4.02,5 -1.11,0.8 -2.43,1.53 -3.92,2 -1.48,0.52 -3.09,0.87 -4.76,0.99l-0.63 0.06 -0.16 0.01 -0.04 0.01c0.26,-0.01 0.05,0 0.1,-0.01l-0.07 0.01 -0.29 0.04c-0.42,0.04 -0.81,0.1 -0.96,0.18 -0.42,0.1 -0.95,0.39 -1.35,0.63 -0.78,0.58 -1.34,1.44 -1.57,2.55 -0.23,1.1 -0.14,2.36 0.26,3.51 0.42,1.14 1.03,2.24 1.93,3.04 1.74,1.66 4.22,2.4 6.48,2.52 1.13,0.05 2.22,0.04 3.19,-0.07 0.97,-0.09 1.82,-0.24 2.53,-0.34 1.44,-0.28 2.26,-0.44 2.26,-0.44 0,0 -0.17,0.12 -0.49,0.35 -0.33,0.22 -0.79,0.6 -1.43,0.97 -0.65,0.36 -1.43,0.85 -2.42,1.23 -0.97,0.42 -2.13,0.81 -3.46,1.03 -1.33,0.22 -2.85,0.36 -4.48,0.05 -1.61,-0.28 -3.36,-0.91 -4.86,-2.07 -3.06,-2.25 -5.04,-6.48 -4.17,-10.77 0.24,-1.06 0.67,-2.11 1.28,-3.06 0.64,-0.95 1.49,-1.76 2.45,-2.37 0.99,-0.58 1.94,-0.96 3.1,-1.12 0.63,-0.11 1.02,-0.11 1.4,-0.11l1.23 -0.01c1.42,0 2.78,-0.02 4.04,-0.24 1.26,-0.2 2.43,-0.52 3.47,-0.93 2.07,-0.85 3.61,-2.09 4.55,-3.13 0.96,-1.04 1.35,-1.81 1.35,-1.81z"/>
   <path class="fil31" d="M923.04 1640.45c17.16,-0.64 32.36,-9.27 36.04,0.08 3.69,9.34 -8.07,26.19 -28.91,27.69 -20.85,1.49 -32.34,-10.68 -36.71,-20.17 -4.36,-9.5 14.92,-7.05 29.58,-7.6z"/>
   <path class="fil4" d="M899.55 1641.1c6.16,-0.94 15.5,-0.35 23.49,-0.65 17.16,-0.64 32.36,-9.27 36.04,0.08 0.62,1.56 0.8,3.32 0.58,5.2 -1.01,0.65 -2.18,1.27 -3.52,1.85 -14.41,6.15 -46.25,5.06 -51.24,5.07 -3.73,0.01 -4.97,-7.67 -5.35,-11.55z"/>
   <path class="fil32" d="M962.79 1618.78c0.79,5.3 9.1,8.44 18.54,7.02 9.44,-1.42 16.45,-6.87 15.65,-12.18 -0.8,-5.29 -9.1,-8.44 -18.54,-7.02 -9.45,1.43 -16.45,6.88 -15.65,12.18z"/>
   <path class="fil32" d="M854.63 1627.7c0.77,5.12 8.78,8.15 17.9,6.78 9.11,-1.37 15.88,-6.64 15.1,-11.75 -0.77,-5.12 -8.78,-8.15 -17.89,-6.78 -9.12,1.38 -15.88,6.64 -15.11,11.75z"/>
   <path class="fil33" d="M954.76 1558.94l0.03 -0.05c0.21,-0.31 1.32,-1.87 3.06,-3.31 1.74,-1.45 4.07,-2.74 6.72,-2.74 2.59,0.01 5.67,1.17 9.23,5.05 0.44,0.49 1.2,0.52 1.68,0.08 0.49,-0.45 0.52,-1.2 0.08,-1.68 -3.84,-4.22 -7.62,-5.84 -10.99,-5.83 -3.68,0.01 -6.62,1.86 -8.63,3.62 -2.02,1.77 -3.14,3.51 -3.18,3.56 -0.36,0.56 -0.2,1.29 0.35,1.65 0.55,0.36 1.29,0.2 1.65,-0.35z"/>
   <path class="fil33" d="M887.47 1567.26c-0.04,-0.04 -1.15,-1.4 -2.98,-2.78 -1.84,-1.37 -4.42,-2.81 -7.48,-2.82 -1.9,-0.01 -3.96,0.6 -5.92,2.06 -1.97,1.47 -3.86,3.77 -5.63,7.16 -0.3,0.58 -0.08,1.3 0.51,1.61 0.58,0.3 1.3,0.07 1.6,-0.51 1.65,-3.17 3.35,-5.16 4.94,-6.35 1.6,-1.18 3.08,-1.59 4.5,-1.59 2.26,-0.01 4.44,1.13 6.05,2.34 0.79,0.6 1.45,1.21 1.9,1.67 0.22,0.22 0.39,0.41 0.5,0.53l0.13 0.15 0.03 0.04c0.42,0.51 1.17,0.58 1.68,0.17 0.51,-0.42 0.58,-1.17 0.17,-1.68z"/>
   <path class="fil33" d="M872.28 1597.11l0.04 -0.13c0.21,-0.68 1.32,-3.98 3.33,-7 1,-1.51 2.22,-2.95 3.63,-3.98 1.41,-1.03 2.96,-1.66 4.76,-1.66 1.76,0 3.82,0.61 6.26,2.29 2.43,1.67 5.21,4.41 8.29,8.56 0.39,0.53 1.14,0.64 1.66,0.25 0.53,-0.39 0.64,-1.14 0.25,-1.67 -3.19,-4.29 -6.12,-7.22 -8.85,-9.1 -2.72,-1.89 -5.28,-2.72 -7.61,-2.72 -2.54,0 -4.74,0.99 -6.51,2.39 -2.67,2.1 -4.51,5.12 -5.73,7.6 -1.22,2.49 -1.8,4.46 -1.81,4.5 -0.18,0.63 0.18,1.29 0.81,1.48 0.63,0.19 1.29,-0.18 1.48,-0.81z"/>
   <path class="fil33" d="M946.18 1589.24l0.03 -0.12c0.18,-0.67 1.14,-3.91 3.18,-6.88 1.01,-1.49 2.29,-2.91 3.85,-3.93 1.56,-1.03 3.39,-1.68 5.62,-1.69 3.68,0 8.63,1.85 15.04,7.42 0.5,0.44 1.25,0.38 1.68,-0.11 0.43,-0.5 0.38,-1.25 -0.12,-1.68 -6.65,-5.78 -12.09,-8 -16.6,-8.01 -2.9,0 -5.35,0.94 -7.3,2.33 -2.94,2.09 -4.83,5.12 -6.02,7.6 -1.18,2.49 -1.66,4.46 -1.67,4.52 -0.16,0.63 0.24,1.28 0.87,1.43 0.64,0.16 1.29,-0.23 1.44,-0.88z"/>
   <path class="fil43" d="M838.04 1575.43c0,0 11.8,-12.99 16.53,-40.43 4.73,-27.43 19.25,-41.14 33.12,-32.21 13.88,8.94 62.47,6.56 86.99,-11.3 24.52,-17.86 50.12,-3.35 60.24,20.95 10.12,24.3 37.14,45.5 37.14,45.5 0,0 11.08,-58.46 -46.86,-100.58 -50.78,-36.9 -144.47,-13.16 -170.63,26.99 -18.75,28.77 -21.56,59.59 -16.53,91.08z"/>
   <path class="fil26" d="M965.8 1844.13c0,0 -25.8,29.77 -27.79,30.16 -1.98,0.4 24.22,19.45 27.79,17.86 3.57,-1.58 44.45,-34.92 44.45,-34.92l-44.45 -13.1z"/>
   <path class="fil42" d="M910.65 1924.91c0,0 -0.84,2.83 -12.22,5.06 -11.38,2.22 -16.95,2.45 -19.87,13.6 0,0 1.91,7.81 23.94,11.36 22.02,3.54 18.9,7.86 30.9,6.95 12.01,-0.9 6.82,-29.47 6.82,-29.47l-29.57 -7.5z"/>
   <path class="fil34" d="M941.6 1915.87c0,0 -7.44,1.23 -13.72,-1.41 -6.28,-2.64 -7.59,-8.45 -9.92,-6.92 -2.32,1.54 -8.83,15.03 -7.28,17.36 1.55,2.33 5.63,6.91 11.13,9.09 5.5,2.19 9.2,2.41 15.07,1.34 5.87,-1.08 7.57,-19.71 4.72,-19.46z"/>
   <path class="fil30" d="M1003.13 1710.79c4.87,8.94 53.3,4.31 56.83,7.39 2.96,2.6 18.39,27.9 24.9,38.34 1.91,2.9 -1.94,8.58 -0.21,14.58 1.72,6 5.6,15.19 11.48,14.85 5.87,-0.34 15.97,-1.83 20.83,-7.42 4.87,-5.59 0.72,-16.92 -3.6,-23.79 -4.32,-6.86 -7.35,-7.66 -8.51,-10.4l-0.28 -0.26c-4.86,-12.71 -16.67,-36.12 -26.78,-43.46 -13.27,-9.63 -36.83,-15.31 -53.33,-15.41 -16.5,-0.11 -30.08,9.51 -21.33,25.58z"/>
   <path class="fil19" d="M928.75 1957.03c0,0 -2.97,1.19 -9.88,-3.37 -6.91,-4.56 -24.64,-5.75 -24.64,-5.75 4.93,-13.61 -2.2,-16.63 -2.29,-16.67 -7.13,1.54 -11.08,3.55 -13.38,12.33 0,0 1.91,7.81 23.94,11.36 22.02,3.54 18.9,7.86 30.9,6.95 5.23,-0.39 7.2,-6.03 7.75,-12.27 -8.55,-1.63 -12.4,7.42 -12.4,7.42z"/>
   <path class="fil19" d="M1141.56 1854.83c0,0 2.15,2.39 0.26,10.45 -1.89,8.06 3.13,25.11 3.13,25.11 -14.47,0.08 -14.84,7.81 -14.85,7.91 3.92,6.15 7.17,9.17 16.2,8.29 0,0 6.68,-4.5 2.38,-26.39 -4.3,-21.9 0.83,-20.45 -4.17,-31.41 -2.18,-4.77 -8.16,-4.66 -14.2,-3.02 1.43,8.59 11.25,9.06 11.25,9.06z"/>
   <path class="fil44" d="M1404.66 1667.24c0,0 -45.69,93.54 -87.25,128.6 -41.55,35.05 -96.67,146.3 -96.67,146.3 0,0 117.38,-15.91 230.99,5.96 113.6,21.88 227.54,-15.1 293.94,-14.91 66.4,0.18 127.13,19.13 178.33,14.07 51.2,-5.07 183.88,-10.63 211.18,-3.68 0,0 -48.44,-83.52 -65.97,-129.98 -17.52,-46.46 -70.24,-117.23 -70.6,-135.63 -0.37,-18.41 -168.76,12.1 -214.27,0.19 -45.5,-11.91 -83.78,-15 -176.4,-7.27 -92.63,7.73 -203.28,-3.65 -203.28,-3.65z"/>
   <path class="fil45" d="M1535.3 1669.24c0,0 12.45,9.68 16.32,11.54 3.88,1.87 34.43,10.48 34.43,10.48l-4.45 19.64c0,0 -24.96,1.67 -32.32,0 -7.35,-1.66 -25.89,-15.44 -25.89,-15.44l11.91 -26.22z"/>
   <path class="fil46" d="M1526.73 1659.28l12.03 6.31c0,0 -3.94,27.98 -8.3,29.87 -4.37,1.9 -3.73,-36.18 -3.73,-36.18z"/>
   <path class="fil16" d="M1564.25 1785.7c0,0 23.94,3.98 29.89,6.51 5.93,2.52 20.05,9.3 20.05,9.3l-7.66 21.39c0,0 -22.71,-9.61 -43.88,-14.12l1.6 -23.08z"/>
   <path class="fil47" d="M1628.45 1804.02c0,0 2.56,1.16 11.25,-5.61 8.7,-6.76 12.35,-10.6 22.16,-5.73 0,0 4.4,6.25 -6.82,24.24 -11.21,17.99 -6.16,18.45 -14.31,26.48 -8.16,8.04 -25.37,-13.52 -25.37,-13.52l13.09 -25.86z"/>
   <path class="fil34" d="M1602.65 1820.54c0,0 5.52,-4.56 7.55,-10.71 2.04,-6.15 -1.31,-10.72 1.25,-11.42 2.55,-0.7 16.27,3.05 16.97,5.62 0.71,2.56 1.44,8.35 -0.43,13.65 -1.87,5.31 -4.02,8.1 -8.46,11.63 -4.44,3.53 -18.84,-6.89 -16.88,-8.77z"/>
   <path class="fil16" d="M1526.17 1814.38c0,0 21.56,11.16 26.43,15.39 4.88,4.22 16.22,15.01 16.22,15.01l-13.87 18c0,0 -18.64,-16.13 -37.41,-26.93l8.63 -21.47z"/>
   <path class="fil47" d="M1581.63 1851.56c0,0 2.07,1.89 12.42,-1.87 10.36,-3.77 15.01,-6.3 22.85,1.35 0,0 2.27,7.3 -13.94,20.97 -16.21,13.67 -11.54,15.66 -21.77,20.8 -10.23,5.14 -19.98,-20.67 -19.98,-20.67l20.42 -20.58z"/>
   <path class="fil34" d="M1551.99 1859.34c0,0 6.66,-2.64 10.48,-7.86 3.83,-5.23 2.05,-10.61 4.7,-10.49 2.64,0.12 14.54,7.91 14.43,10.57 -0.13,2.66 -1.21,8.38 -4.62,12.86 -3.41,4.47 -6.32,6.46 -11.62,8.46 -5.31,1.99 -15.81,-12.35 -13.37,-13.54z"/>
   <path class="fil48" d="M1602.59 1413.03c0,17.33 -13.68,31.37 -30.55,31.37 -16.87,0 -30.55,-14.04 -30.55,-31.37 0,-17.33 13.68,-31.37 30.55,-31.37 16.87,0 30.55,14.04 30.55,31.37z"/>
   <path class="fil49" d="M1614.59 1484.83c-20.5,-63.63 -116.04,-116.17 -199.58,-52.05 0,0 -45.43,10.89 -49.43,73.92 -4,63.04 34.58,124.38 80.48,124.42 37.74,0.04 99.76,-36.16 137.3,-20.92l4.76 -74.07 15.64 92.02c0,0 36.04,-65.09 10.83,-143.32z"/>
   <path class="fil46" d="M1535.3 1765.43c0,0 57.73,12.83 60.75,22.63 3.02,9.81 -13.13,39.23 -32.59,34.7 -19.46,-4.52 -26.74,13.58 -40.07,19.62 -13.33,6.03 -38.21,24.13 -54.44,11.31 -16.22,-12.83 -32.06,-3.77 -47.15,0 -15.08,3.77 -74.67,-20.37 -50.54,-34.7 24.14,-14.33 35.46,-36.96 35.46,-36.96l128.58 -16.6z"/>
   <path class="fil47" d="M1461.88 1634.97c0,0 -60.13,50.12 -62.67,140.39 0,0 -4.3,25.14 61.49,25.31 65.79,0.17 79.94,-29.86 77.87,-44.68 -2.07,-14.82 -9.59,-116.53 -22.24,-130.47 -12.11,-13.34 -48.76,0.37 -54.45,9.45z"/>
   <path class="fil4" d="M1523.39 1643.36c-2.14,-8.58 -4.5,-15.01 -7.06,-17.84 -12.11,-13.34 -48.76,0.37 -54.45,9.45 0,0 -1.84,1.53 -4.87,4.53 5.55,8.3 26.11,35.3 51.35,22.87 10.16,-5 14.16,-11.99 15.03,-19.01z"/>
   <path class="fil30" d="M1461.88 1634.97c0,0 17.32,30.73 40.51,23.08 27.9,-9.2 10.4,-35.4 10.4,-35.4l-50.91 12.32z"/>
   <path class="fil16" d="M1465.77 1429.72c-70.7,19.11 -76.14,110.65 -76.14,110.65 0,0 -21.88,-10.49 -24.46,16.27 -2.58,26.75 24.17,24.42 24.17,24.42 0,0 21.74,64.77 128.89,59.42 107.14,-5.35 102.53,-115.45 84.42,-155.72 -15.39,-34.24 -53.53,-77.57 -136.88,-55.04z"/>
   <path class="fil18" d="M1504.42 1552.13c-0.56,8.37 -6.42,14.8 -13.08,14.35 -6.66,-0.45 -11.6,-7.61 -11.03,-15.98 0.56,-8.38 6.42,-14.8 13.08,-14.35 6.66,0.45 11.6,7.6 11.03,15.98z"/>
   <path class="fil18" d="M1588.08 1549.43c-0.57,8.38 -6.42,14.8 -13.08,14.35 -6.66,-0.45 -11.6,-7.6 -11.04,-15.98 0.57,-8.37 6.43,-14.8 13.08,-14.35 6.66,0.45 11.6,7.6 11.04,15.98z"/>
   <path class="fil4" d="M1501.47 1548.15c-0.37,2.45 -1.98,4.24 -3.6,3.99 -1.61,-0.24 -2.62,-2.42 -2.25,-4.88 0.37,-2.45 1.98,-4.24 3.6,-3.99 1.61,0.24 2.62,2.43 2.25,4.88z"/>
   <path class="fil4" d="M1584.54 1545.36c-0.37,2.46 -1.98,4.25 -3.59,4 -1.62,-0.24 -2.63,-2.43 -2.26,-4.88 0.37,-2.45 1.98,-4.24 3.6,-4 1.62,0.25 2.63,2.43 2.25,4.88z"/>
   <path class="fil31" d="M1533.06 1563.06c0,0 0.59,0.61 1.72,1.34 1.12,0.73 2.79,1.49 4.79,1.76 1,0.14 2.07,0.2 3.22,0.11 1.14,-0.04 2.35,-0.24 3.6,-0.51l0.47 -0.09 0.11 -0.03 0.34 -0.04 0.28 -0.05 0.55 -0.08c0.2,-0.03 0.6,-0.02 0.89,-0.03 1.32,-0.01 2.38,0.23 3.57,0.7 1.15,0.5 2.23,1.24 3.08,2.17 0.82,0.95 1.46,2.01 1.88,3.11 1.6,4.45 0.13,9.16 -2.76,11.94 -1.43,1.41 -3.15,2.3 -4.78,2.77 -1.64,0.49 -3.18,0.52 -4.53,0.42 -1.35,-0.11 -2.53,-0.41 -3.51,-0.76 -1,-0.29 -1.79,-0.74 -2.45,-1.05 -0.65,-0.33 -1.11,-0.69 -1.44,-0.89 -0.32,-0.22 -0.49,-0.34 -0.49,-0.34 0,0 0.85,-0.08 2.23,-0.16 0.7,-0.07 1.53,-0.14 2.43,-0.28 0.91,-0.11 1.9,-0.35 2.89,-0.64 1.99,-0.58 3.89,-1.72 4.93,-3.3 1.08,-1.52 1.37,-3.72 0.79,-5.21 -0.27,-0.75 -0.66,-1.17 -1.13,-1.48 -0.22,-0.11 -0.66,-0.29 -0.86,-0.33l-0.24 -0.07 -0.56 0.01 -0.28 0 -0.07 0 -0.02 0c0.09,-0.01 -0.21,0.02 0.19,-0.02l-0.04 0 -0.16 0 -0.63 0.01c-1.66,0.06 -3.31,-0.07 -4.85,-0.44 -1.53,-0.33 -2.95,-0.91 -4.14,-1.6 -2.41,-1.42 -3.78,-3.32 -4.39,-4.69 -0.63,-1.39 -0.63,-2.25 -0.63,-2.25z"/>
   <path class="fil31" d="M1541.24 1597.13c-16.22,1.8 -31.72,-4.2 -33.88,5.1 -2.16,9.3 11.25,23.5 31.05,22 19.8,-1.51 28.9,-14.56 31.68,-24.09 2.79,-9.53 -15,-4.54 -28.85,-3.01z"/>
   <path class="fil4" d="M1563.41 1594.46c-5.92,-0.02 -14.63,1.84 -22.17,2.67 -16.22,1.8 -31.72,-4.2 -33.88,5.1 -0.36,1.56 -0.28,3.24 0.19,4.97 1.04,0.48 2.22,0.9 3.57,1.25 14.4,3.78 44.17,-1.7 48.87,-2.39 3.51,-0.51 3.6,-7.9 3.42,-11.6z"/>
   <path class="fil32" d="M1500.85 1582.31c-0.01,5.09 -7.38,9.21 -16.45,9.19 -9.08,-0.02 -16.43,-4.17 -16.42,-9.26 0.02,-5.1 7.38,-9.21 16.45,-9.19 9.08,0.02 16.43,4.17 16.42,9.26z"/>
   <path class="fil32" d="M1603.76 1575.6c-0.01,4.91 -7.12,8.88 -15.88,8.86 -8.76,-0.02 -15.85,-4.02 -15.84,-8.93 0.01,-4.92 7.12,-8.89 15.88,-8.87 8.76,0.02 15.85,4.02 15.84,8.94z"/>
   <path class="fil33" d="M1501.78 1523.4c-0.04,-0.04 -1.16,-1.31 -3.03,-2.61 -1.87,-1.28 -4.51,-2.62 -7.61,-2.62 -1.77,0 -3.69,0.46 -5.57,1.59 -1.89,1.14 -3.74,2.93 -5.5,5.55 -0.37,0.55 -0.23,1.29 0.32,1.66 0.54,0.36 1.28,0.22 1.65,-0.32 1.62,-2.41 3.23,-3.93 4.76,-4.85 1.53,-0.91 2.97,-1.25 4.34,-1.25 2.39,-0.01 4.62,1.07 6.26,2.2 0.81,0.57 1.47,1.13 1.92,1.55 0.23,0.22 0.4,0.39 0.52,0.51l0.12 0.13 0.03 0.04c0.44,0.49 1.19,0.54 1.69,0.1 0.49,-0.43 0.54,-1.18 0.1,-1.68z"/>
   <path class="fil33" d="M1566.45 1524.56l0.03 -0.05c0.18,-0.29 1.14,-1.76 2.63,-3.11 1.5,-1.36 3.47,-2.54 5.68,-2.54 1.22,0.01 2.55,0.34 4.05,1.28 1.51,0.94 3.17,2.5 4.92,4.92 0.39,0.53 1.13,0.65 1.67,0.26 0.53,-0.38 0.65,-1.13 0.26,-1.66 -1.89,-2.6 -3.75,-4.39 -5.58,-5.54 -1.83,-1.14 -3.64,-1.64 -5.32,-1.64 -3.28,0.01 -5.87,1.8 -7.62,3.47 -1.76,1.69 -2.73,3.33 -2.77,3.39 -0.33,0.56 -0.15,1.29 0.42,1.63 0.56,0.34 1.29,0.15 1.63,-0.41z"/>
   <path class="fil18" d="M1449.71 1423.5c-79.96,27.67 -64.87,108.64 -64.87,108.64l10.56 90.51 18.86 -59.59 18.86 -54.85c104.85,-55.06 179.56,-15.84 179.56,-15.84 -15.81,-67.89 -83.01,-96.55 -162.97,-68.87z"/>
   <path class="fil16" d="M1502.89 1691.51c0,0 20.87,10.18 24.51,12.45 3.65,2.26 40.7,-4.91 42.98,-4.15 2.28,0.75 7.57,18.48 1.53,21.87 -6.04,3.4 -43.11,10.57 -48.52,8.3 -5.41,-2.26 -25.6,-6.41 -34.55,-13.2 -8.96,-6.79 7.26,-27.16 14.05,-25.27z"/>
   <path class="fil18" d="M1408.98 1444.4c0,17.33 -13.68,31.38 -30.55,31.38 -16.87,0 -30.55,-14.05 -30.55,-31.38 0,-17.32 13.68,-31.37 30.55,-31.37 16.87,0 30.55,14.05 30.55,31.37z"/>
   <path class="fil46" d="M1457.01 1673.03c-10.54,8.83 6.18,43 31.83,48.65 0,0 17.65,-19.23 15.94,-32.06 0,0 -30.67,-30.92 -47.77,-16.59z"/>
   <path class="fil50" d="M1612.27 1677.14l-18.45 3.62 -0.28 0.05 -18.46 3.62c0,0 1.53,20.87 5.33,34.22 3.71,13.07 18.31,10.71 22.48,9.91l0 0 0.14 -0.03 0.14 -0.02 0 -0.01c4.16,-0.83 18.57,-4.15 17.08,-17.66 -1.52,-13.79 -7.98,-33.7 -7.98,-33.7z"/>
   <path class="fil51" d="M1612.4 1677.11c0.58,2.92 -7.35,6.92 -17.69,8.95 -10.34,2.02 -19.19,1.31 -19.76,-1.6 -0.57,-2.92 7.35,-6.92 17.69,-8.95 10.35,-2.02 19.2,-1.31 19.76,1.6z"/>
   <path class="fil52" d="M1610.14 1677.56c0.41,2.13 -6.62,5.29 -15.71,7.07 -9.09,1.79 -16.8,1.51 -17.21,-0.62 -0.42,-2.13 6.61,-5.29 15.7,-7.07 9.09,-1.79 16.8,-1.51 17.22,0.62z"/>
   <path class="fil16" d="M1570.38 1699.81c0,0 1.11,-3.56 5.91,-3.5 4.81,0.06 27.44,-2.97 32.82,-4.92 5.37,-1.95 9.76,19.69 4.81,24.64 -4.95,4.95 -18.56,10.61 -29.23,9.62 -10.66,-1 -9.95,-3.82 -12.78,-3.97 -2.83,-0.14 -1.53,-21.87 -1.53,-21.87z"/>
   <path class="fil53" d="M1918.88 1739.86c-8.38,-10.15 -39.24,1.18 -44.95,2.99 0,0 -18.98,-3.87 -17.87,14.18 1.2,19.67 15.32,16.34 21.27,12.35 0,0 21.81,0.1 32.03,-4.14 10.22,-4.24 19.44,-13.38 9.52,-25.38z"/>
   <path class="fil53" d="M1917.27 1777.71c-13.48,-4.06 -62.64,-0.16 -67.14,1.42 -4.51,1.58 -2.11,-11.26 -16.47,-4.95 -14.35,6.31 -12.69,36.12 5.69,38.35 18.38,2.23 54.27,7.16 75.86,1.2 21.58,-5.97 13.86,-32.48 2.06,-36.02z"/>
   <path class="fil54" d="M1841.38 1793.51c-0.11,5.92 -3.09,10.67 -6.67,10.61 -3.58,-0.06 -6.4,-4.92 -6.29,-10.84 0.1,-5.93 3.09,-10.68 6.67,-10.61 3.58,0.06 6.39,4.91 6.29,10.84z"/>
   <path class="fil55" d="M1900.97 1736.79c0,0 -18.88,27.82 -14.89,59.4 3.99,31.57 55.56,46.17 81.24,19.32 25.68,-26.84 2.48,-85.35 0.22,-87.34 -2.26,-1.98 -60.86,-1.74 -66.57,8.62z"/>
   <path class="fil54" d="M1903.7 1737.94c0,0 -10.88,18.43 -13.85,40.37 -2.96,21.95 18.06,41.29 36.84,28.37 18.77,-12.93 17.67,-58.58 15.91,-68.66 -1.77,-10.08 -34.75,-13.03 -38.9,-0.08z"/>
   <path class="fil56" d="M1921.86 1631.78c4.29,12.65 -4.43,27.05 -19.49,32.16 -15.06,5.11 -30.74,-1.01 -35.04,-13.66 -4.29,-12.66 4.43,-27.06 19.49,-32.17 15.06,-5.11 30.75,1.01 35.04,13.67z"/>
   <path class="fil55" d="M1994.85 1697.17c-0.07,28.93 -27.01,52.32 -60.18,52.24 -33.17,-0.08 -60.01,-23.59 -59.94,-52.52 0.07,-28.94 27.01,-52.33 60.18,-52.25 33.17,0.08 60.01,23.59 59.94,52.53z"/>
   <path class="fil55" d="M2016.41 1657.77c-3.76,12.83 -19.17,19.6 -34.43,15.13 -15.26,-4.46 -24.59,-18.48 -20.83,-31.31 3.75,-12.83 19.17,-19.6 34.43,-15.14 15.26,4.47 24.58,18.49 20.83,31.32z"/>
   <path class="fil54" d="M1993.45 1657.51c-3.41,5.42 -11.39,6.52 -17.84,2.47 -6.45,-4.05 -8.91,-11.73 -5.5,-17.14 3.4,-5.42 11.39,-6.53 17.83,-2.48 6.45,4.05 8.91,11.73 5.51,17.15z"/>
   <path class="fil54" d="M1900.21 1637.43c3.2,5.54 0.45,13.12 -6.15,16.92 -6.59,3.81 -14.53,2.4 -17.73,-3.14 -3.19,-5.54 -0.44,-13.12 6.15,-16.93 6.6,-3.8 14.54,-2.39 17.73,3.15z"/>
   <path class="fil57" d="M1912.03 1681.35c2.43,4.21 0.44,9.91 -4.44,12.72 -4.88,2.82 -10.8,1.69 -13.23,-2.53 -2.43,-4.2 -0.44,-9.9 4.44,-12.71 4.88,-2.82 10.8,-1.69 13.23,2.52z"/>
   <path class="fil57" d="M1959.8 1697.69c-3.49,3.37 -9.5,2.83 -13.41,-1.22 -3.92,-4.05 -4.26,-10.07 -0.76,-13.45 3.49,-3.38 9.5,-2.83 13.41,1.22 3.92,4.05 4.26,10.07 0.76,13.45z"/>
   <path class="fil4" d="M1902.2 1684.24c0.09,1.25 -0.86,2.34 -2.11,2.43 -1.26,0.09 -2.34,-0.86 -2.43,-2.12 -0.09,-1.25 0.86,-2.34 2.11,-2.42 1.25,-0.09 2.34,0.85 2.43,2.11z"/>
   <path class="fil4" d="M1951.06 1688.19c0.09,1.25 -0.86,2.34 -2.11,2.43 -1.26,0.09 -2.35,-0.86 -2.44,-2.11 -0.08,-1.26 0.86,-2.35 2.12,-2.43 1.25,-0.09 2.34,0.85 2.43,2.11z"/>
   <path class="fil58" d="M1928.6 1706.16c-0.36,2.16 -4.09,5.73 -7.85,5.1 -3.75,-0.63 -6.11,-5.23 -5.75,-7.38 0.37,-2.15 3.51,-2.22 7.26,-1.59 3.75,0.63 6.7,1.72 6.34,3.87z"/>
   <path class="fil59" d="M1924.03 1704.88c-0.06,0.52 -1.13,0.81 -2.38,0.66 -1.25,-0.15 -2.21,-0.68 -2.15,-1.2 0.06,-0.51 1.12,-0.81 2.37,-0.66 1.26,0.15 2.22,0.69 2.16,1.2z"/>
   <path class="fil57" d="M1901.45 1715l-0.01 0.3c0.01,1.4 0.25,7.42 5.09,9.75 0.71,0.34 1.44,0.5 2.16,0.5 2.45,-0.01 4.75,-1.73 6.62,-3.68 1.86,-1.94 3.3,-4.14 3.94,-5.2l-0.26 -0.16 -0.3 0.01c0.02,0.02 0.22,9.46 7.77,12.36 1,0.38 1.96,0.54 2.86,0.54 5.93,-0.04 9.25,-7 9.27,-7l-0.13 -0.4 -0.4 0.13c0,0.01 -0.2,0.42 -0.6,1.05 -1.18,1.9 -4.09,5.65 -8.14,5.63 -0.83,0 -1.71,-0.15 -2.65,-0.51 -3.56,-1.35 -5.4,-4.28 -6.36,-6.91 -0.48,-1.31 -0.73,-2.54 -0.87,-3.44 -0.14,-0.91 -0.15,-1.46 -0.15,-1.46l-0.22 -0.29 -0.33 0.14c-0.63,1.04 -2.04,3.21 -3.86,5.1 -1.82,1.91 -4.03,3.5 -6.19,3.49 -0.63,0 -1.27,-0.13 -1.9,-0.43 -4.45,-2.09 -4.76,-7.86 -4.76,-9.22l0.01 -0.27 -0.28 -0.31 -0.31 0.28z"/>
   <path class="fil19" d="M1944.35 1805.05c-14.09,0 -60.04,17.9 -63.9,20.7 -3.86,2.81 -5.26,-10.17 -17.19,0 -11.93,10.18 -1.76,38.25 16.49,35.09 18.25,-3.16 54.04,-8.77 72.99,-20.7 18.95,-11.93 3.92,-35.09 -8.39,-35.09z"/>
   <path class="fil54" d="M1876.22 1842.04c1.6,5.71 0.11,11.11 -3.33,12.08 -3.45,0.97 -7.55,-2.86 -9.15,-8.57 -1.61,-5.7 -0.11,-11.11 3.33,-12.08 3.45,-0.97 7.54,2.87 9.15,8.57z"/>
   <path class="fil19" d="M1948.77 1759.54c-9.01,11.93 11.6,43.06 15.11,48.9 0,0 0.7,21.98 20.35,16.02 21.43,-6.5 14.04,-21.22 8.07,-26.75 0,0 -5.61,-24.13 -12.98,-34.31 -7.37,-10.17 -19.89,-17.97 -30.55,-3.86z"/>
   <path class="fil50" d="M1730.03 1751.39l-16.3 -0.08 -0.25 0 -16.31 -0.09c0,0 -2.26,18.01 -1.32,30 0.92,11.75 13.73,12.24 17.41,12.27l0 0 0.12 0 0.13 0.01 0 -0.01c3.68,0.01 16.49,-0.35 17.54,-12.08 1.06,-11.99 -1.02,-30.02 -1.02,-30.02z"/>
   <path class="fil51" d="M1730.15 1751.4c-0.01,2.56 -7.43,4.61 -16.57,4.57 -9.14,-0.05 -16.54,-2.18 -16.52,-4.75 0.01,-2.57 7.43,-4.61 16.57,-4.57 9.14,0.05 16.53,2.17 16.52,4.75z"/>
   <path class="fil52" d="M1728.14 1751.38c-0.01,1.88 -6.52,3.37 -14.55,3.33 -8.03,-0.04 -14.54,-1.6 -14.53,-3.48 0.01,-1.88 6.53,-3.36 14.56,-3.32 8.03,0.04 14.53,1.6 14.52,3.47z"/>
   <path class="fil50" d="M1781.32 1751.39l-16.3 -0.08 -0.25 0 -16.31 -0.09c0,0 -2.26,18.01 -1.32,30 0.92,11.75 13.73,12.24 17.41,12.27l0 0 0.12 0 0.13 0.01 0 -0.01c3.68,0.01 16.49,-0.35 17.54,-12.08 1.06,-11.99 -1.02,-30.02 -1.02,-30.02z"/>
   <path class="fil51" d="M1781.44 1751.4c-0.01,2.56 -7.43,4.61 -16.57,4.57 -9.14,-0.05 -16.54,-2.18 -16.53,-4.75 0.02,-2.57 7.44,-4.61 16.58,-4.57 9.14,0.05 16.53,2.17 16.52,4.75z"/>
   <path class="fil52" d="M1779.43 1751.38c-0.01,1.88 -6.52,3.37 -14.55,3.33 -8.04,-0.04 -14.54,-1.6 -14.53,-3.48 0.01,-1.88 6.53,-3.36 14.56,-3.32 8.03,0.04 14.53,1.6 14.52,3.47z"/>
   <path class="fil47" d="M1775.71 1815.7c0,9.59 -17.39,17.37 -38.85,17.37 -21.45,0 -38.84,-7.78 -38.84,-17.37 0,-9.6 17.39,-17.38 38.84,-17.38 21.46,0 38.85,7.78 38.85,17.38z"/>
   <path class="fil60" d="M1764.78 1815.7c0,6.29 -12.5,11.39 -27.92,11.39 -15.41,0 -27.9,-5.1 -27.9,-11.39 0,-6.3 12.49,-11.4 27.9,-11.4 15.42,0 27.92,5.1 27.92,11.4z"/>
   <path class="fil61" d="M1734.47 1853.86c0,9.59 -17.4,17.37 -38.85,17.37 -21.45,0 -38.85,-7.78 -38.85,-17.37 0,-9.6 17.4,-17.38 38.85,-17.38 21.45,0 38.85,7.78 38.85,17.38z"/>
   <path class="fil62" d="M1723.53 1853.86c0,6.29 -12.5,11.39 -27.91,11.39 -15.42,0 -27.91,-5.1 -27.91,-11.39 0,-6.3 12.49,-11.4 27.91,-11.4 15.41,0 27.91,5.1 27.91,11.4z"/>
   <path class="fil54" d="M1828.42 1853.86c0,9.59 -17.4,17.37 -38.85,17.37 -21.46,0 -38.85,-7.78 -38.85,-17.37 0,-9.6 17.39,-17.38 38.85,-17.38 21.45,0 38.85,7.78 38.85,17.38z"/>
   <path class="fil63" d="M1817.48 1853.86c0,6.29 -12.5,11.39 -27.91,11.39 -15.41,0 -27.91,-5.1 -27.91,-11.39 0,-6.3 12.5,-11.4 27.91,-11.4 15.41,0 27.91,5.1 27.91,11.4z"/>
  </g>
 </g>
</svg>
